<svg width="48" height="48" viewBox="0 0 48 48" fill="none" xmlns="http://www.w3.org/2000/svg">
<circle cx="24" cy="24" r="24" fill="#9C3DCC"/>
<path fill-rule="evenodd" clip-rule="evenodd" d="M21 16C21.4645 16 21.9143 16.0633 22.341 16.1819C23.0685 14.3192 24.8796 13 26.9999 13C29.7614 13 31.9999 15.2386 31.9999 18C31.9999 19.4296 31.4 20.719 30.4381 21.6303C31.0383 21.8501 31.6185 22.1263 32.1518 22.4568C33.6934 23.4123 35.0001 24.9355 35.0001 27C35.0001 27.4255 34.9203 27.909 34.6452 28.3802C34.3697 28.8518 33.9449 29.2318 33.3854 29.5279C32.4469 30.0248 31.0349 30.3349 28.968 30.4497C28.9193 30.7801 28.8086 31.1274 28.5932 31.4652C28.2791 31.9577 27.7989 32.3418 27.1723 32.6337C25.963 33.1972 24.0262 33.5 21 33.5C17.9738 33.5 16.037 33.1972 14.8277 32.6337C14.2011 32.3418 13.7209 31.9577 13.4068 31.4652C13.0907 30.9695 13 30.4532 13 30C13 27.9355 14.3066 26.4123 15.8482 25.4569C16.3815 25.1263 16.9617 24.8501 17.5618 24.6303C16.6 23.719 16 22.4296 16 21C16 18.2386 18.2386 16 21 16ZM24.4382 24.6303C25.0383 24.8501 25.6185 25.1263 26.1518 25.4568C27.2807 26.1566 28.2836 27.1607 28.7397 28.459C30.7687 28.3548 31.8716 28.0663 32.4497 27.7603C32.7511 27.6008 32.8675 27.4583 32.9181 27.3716C32.969 27.2844 33.0001 27.1737 33.0001 27C33.0001 25.8827 32.3067 24.9058 31.0982 24.1568C29.8905 23.4083 28.3249 23 27 23C26.5315 23 26.0267 23.0512 25.5137 23.1535C25.2475 23.7105 24.8812 24.2105 24.4382 24.6303ZM25.9971 20.8286C25.9464 19.3241 25.2311 17.9882 24.1355 17.1051C24.5159 15.8856 25.6551 15 26.9999 15C28.6568 15 29.9999 16.3431 29.9999 18C29.9999 19.6569 28.6568 21 26.9999 21C26.6473 21 26.3101 20.9395 25.9971 20.8286ZM21 18C19.3431 18 18 19.3431 18 21C18 22.6569 19.3431 24 21 24C22.6569 24 24 22.6569 24 21C24 19.3431 22.6569 18 21 18ZM15 30C15 28.8827 15.6934 27.9058 16.9018 27.1568C18.1095 26.4083 19.6751 26 20.9999 26C22.3248 26 23.8905 26.4083 25.0981 27.1568C26.3066 27.9058 27 28.8827 27 30C27 30.1831 26.9657 30.2976 26.9068 30.3899C26.8459 30.4855 26.7011 30.6468 26.3277 30.8208C25.537 31.1892 23.9738 31.5 21 31.5C18.0262 31.5 16.463 31.1892 15.6723 30.8208C15.2989 30.6468 15.1541 30.4855 15.0932 30.3899C15.0343 30.2976 15 30.1831 15 30Z" fill="white"/>
</svg>
