<svg width="48" height="48" viewBox="0 0 48 48" fill="none" xmlns="http://www.w3.org/2000/svg">
<circle cx="24" cy="24" r="24" fill="#E6457A"/>
<path fill-rule="evenodd" clip-rule="evenodd" d="M15.9351 15.3837C17.5664 15.1902 20.1486 15 24 15C27.8514 15 30.4336 15.1902 32.0649 15.3837C33.8858 15.5996 35.3484 16.912 35.6498 18.7677C35.8377 19.9242 36 21.5018 36 23.5C36 25.4982 35.8377 27.0758 35.6498 28.2323C35.3484 30.088 33.8858 31.4004 32.0649 31.6163C30.5791 31.7926 28.3042 31.9661 25 31.9956L25 32V34H30C30.5523 34 31 34.4477 31 35C31 35.5523 30.5523 36 30 36H18C17.4477 36 17 35.5523 17 35C17 34.4477 17.4477 34 18 34H23V32L23 31.9956C19.6958 31.9661 17.4209 31.7926 15.9351 31.6163C14.1142 31.4004 12.6516 30.088 12.3502 28.2323C12.1623 27.0758 12 25.4982 12 23.5C12 21.5018 12.1623 19.9242 12.3502 18.7677C12.6516 16.912 14.1142 15.5996 15.9351 15.3837ZM24 17C20.2129 17 17.7106 17.1871 16.1707 17.3697C15.1895 17.4861 14.4753 18.1589 14.3243 19.0884C14.1534 20.1403 14 21.6106 14 23.5C14 25.3894 14.1534 26.8597 14.3243 27.9116C14.4753 28.8411 15.1895 29.5139 16.1707 29.6303C17.7106 29.8129 20.2129 30 24 30C27.7871 30 30.2894 29.8129 31.8293 29.6303C32.8105 29.5139 33.5247 28.8411 33.6757 27.9116C33.8466 26.8597 34 25.3894 34 23.5C34 21.6106 33.8466 20.1403 33.6757 19.0884C33.5247 18.1589 32.8105 17.4861 31.8293 17.3697C30.2894 17.1871 27.7871 17 24 17Z" fill="white"/>
</svg>
