<svg width="48" height="48" viewBox="0 0 48 48" fill="none" xmlns="http://www.w3.org/2000/svg">
<circle cx="24" cy="24" r="22.5" stroke="#ACB3BF" stroke-width="1.5"/>
<path d="M14 20C14 18.8954 14.8954 18 16 18H28C29.1046 18 30 18.8954 30 20V29C30 30.1046 29.1046 31 28 31H16C14.8954 31 14 30.1046 14 29V20Z" stroke="#ACB3BF" stroke-width="1.5" stroke-linecap="round" stroke-linejoin="round"/>
<path d="M34 20H34.75C34.75 19.7401 34.6154 19.4987 34.3943 19.362C34.1732 19.2254 33.8971 19.2129 33.6646 19.3292L34 20ZM34 29L33.6646 29.6708C33.8971 29.7871 34.1732 29.7746 34.3943 29.638C34.6154 29.5013 34.75 29.2599 34.75 29H34ZM30.3354 22.6708L34.3354 20.6708L33.6646 19.3292L29.6646 21.3292L30.3354 22.6708ZM33.25 20V29H34.75V20H33.25ZM34.3354 28.3292L30.3354 26.3292L29.6646 27.6708L33.6646 29.6708L34.3354 28.3292Z" fill="#ACB3BF"/>
<circle cx="18.5" cy="22.5" r="1.5" fill="#ACB3BF"/>
</svg>
