<svg width="48" height="48" viewBox="0 0 48 48" fill="none" xmlns="http://www.w3.org/2000/svg">
<circle cx="24" cy="24" r="24" fill="#9B51E0"/>
<path fill-rule="evenodd" clip-rule="evenodd" d="M16.4238 13.1462C16.4325 13.1172 18.7165 13 21 13C23.284 13 25.5675 13.1172 25.5762 13.1462C26.5475 13.2206 27.3227 13.3131 27.9285 13.4047C29.3385 13.6179 30.4247 14.7709 30.6563 16.3321C30.8331 17.5234 31 19.2444 31 21.4947C31 23.745 30.8331 25.4661 30.6563 26.6573C30.4247 28.2186 29.3385 29.3715 27.9285 29.5848C26.5705 29.7901 24.361 30 21 30C17.639 30 15.4295 29.7901 14.0715 29.5848C12.6615 29.3715 11.5753 28.2186 11.3437 26.6573C11.1669 25.4661 11 23.745 11 21.4947C11 19.2444 11.1669 17.5234 11.3437 16.3321C11.5753 14.7709 12.6615 13.6179 14.0715 13.4047C14.6773 13.3131 15.4525 13.2206 16.4238 13.1462ZM21 15C17.8757 15 15.8538 15.1972 14.6465 15.3817C13.9388 15.4899 13.4202 16.0518 13.3057 16.8313C13.1512 17.8835 13 19.4396 13 21.5C13 23.5604 13.1512 25.1165 13.3057 26.1687C13.4202 26.9482 13.9388 27.5101 14.6465 27.6183C15.8538 27.8027 17.8757 28 21 28C24.1243 28 26.1462 27.8027 27.3535 27.6183C28.0612 27.5101 28.5799 26.9482 28.6943 26.1687C28.8487 25.1165 29 23.5604 29 21.5C29 19.4396 28.8487 17.8835 28.6943 16.8313C28.5799 16.0518 28.0612 15.4899 27.3535 15.3817C26.1462 15.1972 24.1243 15 21 15Z" fill="white"/>
<path d="M30 18.2004V24.7993L36 27V16L30 18.2004Z" stroke="white" stroke-width="2" stroke-linecap="round" stroke-linejoin="round"/>
<path d="M19 29L15 34" stroke="white" stroke-width="2" stroke-linecap="round"/>
<path d="M23 29L27 34.0002" stroke="white" stroke-width="2" stroke-linecap="round"/>
</svg>
