<svg width="24" height="24" viewBox="0 0 24 24" fill="none" xmlns="http://www.w3.org/2000/svg">
<path d="M12.2775 9.1849C12.1096 9.07293 11.8908 9.07293 11.7228 9.1849L6.22281 12.8516C6.08371 12.9443 6.00016 13.1004 6.00016 13.2676V19.5C6.00016 19.7761 6.22401 20 6.50016 20H9.50016C9.7763 20 10.0002 19.7761 10.0002 19.5V15C10.0002 14.7239 10.224 14.5 10.5002 14.5H13.5002C13.7763 14.5 14.0002 14.7239 14.0002 15V19.5C14.0002 19.7761 14.224 20 14.5002 20H17.5002C17.7763 20 18.0002 19.7761 18.0002 19.5V13.2676C18.0002 13.1004 17.9166 12.9443 17.7775 12.8516L12.2775 9.1849Z" fill="#8492A6"/>
<path d="M19.8929 11.1609C20.0461 10.9311 19.984 10.6207 19.7542 10.4675L12.2775 5.48306C12.1096 5.37109 11.8908 5.37109 11.7228 5.48306L4.2461 10.4675C4.01634 10.6207 3.95425 10.9311 4.10743 11.1609L4.66213 11.993C4.8153 12.2227 5.12574 12.2848 5.3555 12.1316L11.7228 7.88676C11.8908 7.77479 12.1096 7.77479 12.2775 7.88676L18.6448 12.1316C18.8746 12.2848 19.185 12.2227 19.3382 11.9929L19.8929 11.1609Z" fill="#8492A6"/>
</svg>
