<svg width="24" height="24" viewBox="0 0 24 24" fill="none" xmlns="http://www.w3.org/2000/svg">
<path fill-rule="evenodd" clip-rule="evenodd" d="M15.5 6C15.7761 6 16 6.22386 16 6.5V9H17.5C17.7761 9 18 9.22386 18 9.5V18.5C18 19.3284 17.3284 20 16.5 20H6.5C5.67157 20 5 19.3284 5 18.5V6.5C5 6.22386 5.22386 6 5.5 6H15.5ZM16 10H17V18.5C17 18.7761 16.7761 19 16.5 19C16.2239 19 16 18.7761 16 18.5V10ZM7.5 8.5C7.5 8.22386 7.72386 8 8 8H13C13.2761 8 13.5 8.22386 13.5 8.5C13.5 8.77614 13.2761 9 13 9H8C7.72386 9 7.5 8.77614 7.5 8.5ZM7.5 10.5C7.5 10.2239 7.72386 10 8 10H13C13.2761 10 13.5 10.2239 13.5 10.5C13.5 10.7761 13.2761 11 13 11H8C7.72386 11 7.5 10.7761 7.5 10.5ZM8 12C7.72386 12 7.5 12.2239 7.5 12.5C7.5 12.7761 7.72386 13 8 13H13C13.2761 13 13.5 12.7761 13.5 12.5C13.5 12.2239 13.2761 12 13 12H8ZM7.5 14.5C7.5 14.2239 7.72386 14 8 14H11C11.2761 14 11.5 14.2239 11.5 14.5C11.5 14.7761 11.2761 15 11 15H8C7.72386 15 7.5 14.7761 7.5 14.5Z" fill="#8492A6"/>
</svg>
