<svg width="24" height="24" viewBox="0 0 24 24" fill="none" xmlns="http://www.w3.org/2000/svg">
<path d="M12 16C13.6569 16 15 14.6569 15 13C15 11.3431 13.6569 10 12 10C10.3431 10 9 11.3431 9 13C9 14.6569 10.3431 16 12 16Z" fill="#8492A6"/>
<path fill-rule="evenodd" clip-rule="evenodd" d="M6 7C4.89543 7 4 7.89543 4 9V17C4 18.1046 4.89543 19 6 19H18C19.1046 19 20 18.1046 20 17V9C20 7.89543 19.1046 7 18 7H16.3568C16.1339 7 15.9257 6.8886 15.8021 6.70313L15.2604 5.8906C14.8895 5.3342 14.265 5 13.5963 5H10.4037C9.73499 5 9.11053 5.3342 8.7396 5.8906L8.19791 6.70313C8.07427 6.8886 7.86611 7 7.64321 7H6ZM16 13C16 15.2091 14.2091 17 12 17C9.79086 17 8 15.2091 8 13C8 10.7909 9.79086 9 12 9C14.2091 9 16 10.7909 16 13Z" fill="#8492A6"/>
</svg>
