<svg width="42" height="32" viewBox="0 0 42 32" fill="none" xmlns="http://www.w3.org/2000/svg">
<path d="M14.5658 28.1085V26.5033C14.5852 26.2308 14.4834 25.9635 14.2862 25.7694C14.089 25.5753 13.8156 25.4732 13.5358 25.4893C13.166 25.4656 12.8123 25.6399 12.6128 25.9441C12.4309 25.649 12.0979 25.4745 11.7449 25.4893C11.4375 25.4741 11.1448 25.6187 10.9758 25.8692V25.5535H10.4044V28.1085H10.9812V26.6932C10.9554 26.5159 11.0126 26.3367 11.1372 26.205C11.2617 26.0733 11.4405 26.003 11.624 26.0136C12.0031 26.0136 12.1953 26.2544 12.1953 26.6879V28.1085H12.7722V26.6932C12.7483 26.5163 12.8063 26.3382 12.9304 26.207C13.0545 26.0758 13.232 26.005 13.4149 26.0136C13.8049 26.0136 13.9917 26.2544 13.9917 26.6879V28.1085H14.5658ZM17.7795 26.8323V25.5561H17.2027V25.8665C17.0062 25.6195 16.6993 25.48 16.3787 25.4919C15.6202 25.4919 15.0053 26.0909 15.0053 26.8297C15.0053 27.5685 15.6202 28.1674 16.3787 28.1674C16.6993 28.1793 17.0062 28.0399 17.2027 27.7928V28.1032H17.7741L17.7795 26.8323ZM15.6563 26.8323C15.6817 26.4125 16.047 26.0894 16.4785 26.1052C16.91 26.1209 17.2494 26.4698 17.2424 26.8903C17.2355 27.3109 16.8847 27.6488 16.4528 27.651C16.2318 27.6561 16.0188 27.5701 15.8661 27.4143C15.7134 27.2585 15.6353 27.0472 15.6508 26.8323H15.6563ZM29.9863 25.4946C30.1744 25.4941 30.3608 25.5286 30.5356 25.5963C30.7025 25.6614 30.8546 25.7577 30.9834 25.8799C31.1104 26.0009 31.2113 26.1456 31.28 26.3053C31.4235 26.6483 31.4235 27.0324 31.28 27.3754C31.2114 27.5352 31.1105 27.6798 30.9834 27.8008C30.8546 27.923 30.7025 28.0194 30.5356 28.0844C30.1734 28.2215 29.7717 28.2215 29.4095 28.0844C29.2434 28.0194 29.0921 27.923 28.9645 27.8008C28.8386 27.6794 28.7387 27.5348 28.6706 27.3754C28.5273 27.0324 28.5273 26.6484 28.6706 26.3053C28.7387 26.1459 28.8386 26.0014 28.9645 25.8799C29.0921 25.7577 29.2434 25.6613 29.4095 25.5963C29.5905 25.5232 29.7848 25.4859 29.9808 25.4866L29.9863 25.4946ZM29.9863 26.0297C29.8744 26.0282 29.7633 26.0482 29.6594 26.0886C29.5615 26.1268 29.4727 26.1842 29.3985 26.2571C29.3227 26.3339 29.2638 26.4249 29.2254 26.5247C29.1415 26.7383 29.1415 26.9745 29.2254 27.1882C29.2638 27.2879 29.3227 27.3789 29.3985 27.4557C29.4727 27.5287 29.5615 27.5861 29.6594 27.6243C29.8687 27.7041 30.1011 27.7041 30.3104 27.6243C30.413 27.5873 30.5066 27.5299 30.5851 27.4557C30.661 27.379 30.7199 27.288 30.7581 27.1882C30.842 26.9745 30.842 26.7383 30.7581 26.5247C30.7199 26.4248 30.661 26.3338 30.5851 26.2571C30.5066 26.1829 30.413 26.1255 30.3104 26.0886C30.2068 26.0424 30.0947 26.0169 29.9808 26.0136L29.9863 26.0297ZM20.8834 26.8323C20.8834 26.0297 20.3725 25.4946 19.6391 25.4946C18.8806 25.505 18.2743 26.1123 18.285 26.8511C18.2956 27.5899 18.9191 28.1804 19.6776 28.1701C20.0686 28.1831 20.4509 28.0555 20.7516 27.8115L20.4769 27.3995C20.26 27.569 19.9913 27.6631 19.7133 27.6671C19.3206 27.7 18.9724 27.4224 18.9277 27.041H20.8752C20.8834 26.9741 20.8834 26.9072 20.8834 26.8323ZM18.9305 26.6076C18.9525 26.2546 19.2569 25.9817 19.6199 25.9896C19.7926 25.986 19.9596 26.0494 20.0843 26.1658C20.2089 26.2822 20.281 26.4421 20.2846 26.6103L18.9305 26.6076ZM23.2869 26.2063C23.036 26.0656 22.7523 25.99 22.4628 25.9869C22.1497 25.9869 21.9629 26.0993 21.9629 26.2865C21.9629 26.4738 22.1607 26.5059 22.4079 26.538L22.6826 26.5755C23.2539 26.6558 23.6 26.8912 23.6 27.3407C23.6 27.7901 23.1605 28.1754 22.4051 28.1754C22.0003 28.1859 21.6027 28.0696 21.2707 27.8436L21.5454 27.4102C21.7975 27.5924 22.1051 27.6866 22.4189 27.6778C22.8089 27.6778 23.0177 27.5654 23.0177 27.3674C23.0177 27.2229 22.8693 27.1427 22.5562 27.0999L22.2815 27.0624C21.6937 26.9822 21.3751 26.7253 21.3751 26.3079C21.3751 25.7996 21.8036 25.4893 22.4738 25.4893C22.8489 25.477 23.2198 25.5699 23.5423 25.7568L23.2869 26.2063ZM26.0336 26.0618H25.1025V27.2149C25.1025 27.4825 25.1959 27.643 25.4815 27.643C25.6598 27.6372 25.8337 27.5875 25.987 27.4985L26.1518 27.9747C25.9376 28.1049 25.69 28.1736 25.4376 28.1727C24.7619 28.1727 24.5257 27.8196 24.5257 27.2256V26.0618H23.9928V25.5535H24.5257V24.7776H25.1025V25.5535H26.0336V26.0618ZM28.0086 25.4893C28.1472 25.4898 28.2846 25.5133 28.4151 25.5588L28.2393 26.0939C28.1258 26.0498 28.0044 26.028 27.8822 26.0297C27.5087 26.0297 27.3329 26.2651 27.3329 26.6879V28.1192H26.7615V25.5642H27.3274V25.8745C27.4702 25.6356 27.7358 25.4918 28.0196 25.5L28.0086 25.4893ZM31.9585 27.7366C31.9942 27.7362 32.0296 27.7426 32.0628 27.7554C32.0944 27.7679 32.1233 27.786 32.148 27.8089C32.1721 27.8319 32.1917 27.8591 32.2057 27.8891C32.2338 27.9523 32.2338 28.024 32.2057 28.0871C32.1917 28.1171 32.1721 28.1443 32.148 28.1674C32.1233 28.1902 32.0944 28.2083 32.0628 28.2209C32.03 28.235 31.9944 28.2423 31.9585 28.2423C31.8522 28.2415 31.7559 28.1811 31.7113 28.0871C31.6835 28.0239 31.6835 27.9523 31.7113 27.8891C31.7253 27.8591 31.7448 27.8319 31.7689 27.8089C31.7937 27.786 31.8225 27.7679 31.8541 27.7554C31.883 27.7442 31.9137 27.7378 31.9447 27.7366H31.9585ZM31.9585 28.1888C31.9859 28.1889 32.013 28.1835 32.0381 28.1727C32.0618 28.1625 32.0832 28.1479 32.1013 28.1299C32.1486 28.0835 32.1693 28.0174 32.1567 27.9532C32.1441 27.8889 32.0997 27.8349 32.0381 27.8089C32.013 27.7982 31.9859 27.7927 31.9585 27.7928C31.9311 27.793 31.904 27.7984 31.8788 27.8089C31.8541 27.8187 31.8317 27.8333 31.8129 27.8517C31.7417 27.9274 31.7417 28.0435 31.8129 28.1192C31.8513 28.1571 31.9038 28.1783 31.9585 28.1781V28.1888ZM31.975 27.8704C32.0006 27.8692 32.0259 27.8768 32.0464 27.8918C32.0634 27.9056 32.0726 27.9265 32.0711 27.948C32.0719 27.966 32.0649 27.9834 32.0519 27.9962C32.0359 28.0102 32.0156 28.0187 31.9942 28.0202L32.0738 28.1085H32.0107L31.9365 28.0202H31.9118V28.1085H31.8596V27.8624L31.975 27.8704ZM31.9145 27.9159V27.9801H31.975C31.9857 27.9832 31.9972 27.9832 32.0079 27.9801C32.0118 27.9725 32.0118 27.9636 32.0079 27.956C32.0118 27.9484 32.0118 27.9395 32.0079 27.9319C31.9972 27.9288 31.9857 27.9288 31.975 27.9319L31.9145 27.9159Z" fill="#8492A6"/>
<path fill-rule="evenodd" clip-rule="evenodd" d="M14.8846 3.99951C17.1357 3.99951 19.2131 4.74338 20.8844 5.9987C22.5556 4.74337 24.633 3.99951 26.8841 3.99951C32.4067 3.99951 36.8837 8.47648 36.8837 13.9991C36.8837 19.5217 32.4067 23.9987 26.8841 23.9987C24.633 23.9987 22.5556 23.2548 20.8844 21.9995C19.2131 23.2548 17.1357 23.9987 14.8846 23.9987C9.36198 23.9987 4.88501 19.5217 4.88501 13.9991C4.88501 8.47648 9.36198 3.99951 14.8846 3.99951ZM26.8841 22.6654C31.6704 22.6654 35.5504 18.7854 35.5504 13.9991C35.5504 9.21283 31.6704 5.33279 26.8841 5.33279C24.4264 5.33279 22.2076 6.35586 20.6305 7.99935H22.2176C22.5858 7.99935 22.8843 8.29781 22.8843 8.66599C22.8843 9.03416 22.5858 9.33263 22.2176 9.33263H19.5802C19.3106 9.75361 19.0765 10.1994 18.882 10.6659H23.5509C23.9191 10.6659 24.2176 10.9644 24.2176 11.3325C24.2176 11.7007 23.9191 11.9992 23.5509 11.9992H18.4497C18.3475 12.432 18.2777 12.8773 18.2431 13.3325H24.2176C24.5857 13.3325 24.8842 13.6309 24.8842 13.9991C24.8842 14.3673 24.5857 14.6657 24.2176 14.6657H18.2431C18.2777 15.1209 18.3475 15.5662 18.4497 15.999H23.5509C23.9191 15.999 24.2176 16.2975 24.2176 16.6657C24.2176 17.0338 23.9191 17.3323 23.5509 17.3323H18.882C19.0765 17.7988 19.3106 18.2446 19.5802 18.6656H22.2176C22.5858 18.6656 22.8843 18.964 22.8843 19.3322C22.8843 19.7004 22.5858 19.9989 22.2176 19.9989H20.6305C22.2076 21.6424 24.4264 22.6654 26.8841 22.6654Z" fill="#8492A6"/>
</svg>
