<svg width="33" height="32" viewBox="0 0 33 32" fill="none" xmlns="http://www.w3.org/2000/svg">
<g clip-path="url(#clip0)">
<path d="M32.2217 28.5472V28.6119H32.2815C32.2947 28.6119 32.306 28.6088 32.3141 28.6038C32.3217 28.5987 32.3261 28.5899 32.3261 28.5793C32.3261 28.5686 32.3217 28.5604 32.3141 28.5554C32.306 28.5497 32.2947 28.5472 32.2815 28.5472H32.2217ZM32.2821 28.5019C32.3129 28.5019 32.3368 28.5089 32.3538 28.5227C32.3707 28.5365 32.3789 28.5554 32.3789 28.5793C32.3789 28.5994 32.3726 28.6157 32.3588 28.6289C32.3456 28.6415 32.3267 28.6497 32.3016 28.6528L32.3808 28.744H32.3192L32.2456 28.6534H32.2217V28.744H32.1702V28.5019H32.2821ZM32.2664 28.8276C32.2947 28.8276 32.3211 28.8219 32.345 28.8112C32.3695 28.8005 32.3909 28.7861 32.4091 28.7678C32.4273 28.7496 32.4418 28.7282 32.4525 28.7031C32.4625 28.6786 32.4682 28.6522 32.4682 28.6239C32.4682 28.5956 32.4625 28.5692 32.4525 28.5447C32.4418 28.5202 32.4273 28.4982 32.4091 28.4799C32.3909 28.4617 32.3695 28.4472 32.345 28.4366C32.3211 28.4265 32.2947 28.4215 32.2664 28.4215C32.2381 28.4215 32.211 28.4265 32.1865 28.4366C32.1614 28.4472 32.1394 28.4617 32.1211 28.4799C32.1029 28.4982 32.0884 28.5202 32.0784 28.5447C32.0677 28.5692 32.0627 28.5956 32.0627 28.6239C32.0627 28.6522 32.0677 28.6786 32.0784 28.7031C32.0884 28.7282 32.1029 28.7496 32.1211 28.7678C32.1394 28.7861 32.1614 28.8005 32.1865 28.8112C32.211 28.8219 32.2381 28.8276 32.2664 28.8276ZM32.2664 28.363C32.3035 28.363 32.3374 28.3699 32.3701 28.3838C32.4022 28.397 32.4298 28.4158 32.4543 28.4397C32.4782 28.463 32.4971 28.4906 32.5109 28.5227C32.5248 28.5541 32.5317 28.5881 32.5317 28.6239C32.5317 28.6597 32.5248 28.6937 32.5109 28.7251C32.4971 28.7565 32.4782 28.7842 32.4543 28.8081C32.4298 28.8313 32.4022 28.8502 32.3701 28.864C32.3374 28.8779 32.3035 28.8848 32.2664 28.8848C32.2286 28.8848 32.1941 28.8779 32.1614 28.864C32.1287 28.8502 32.1004 28.8313 32.0765 28.8081C32.0526 28.7842 32.0337 28.7565 32.0199 28.7251C32.0061 28.6937 31.9992 28.6597 31.9992 28.6239C31.9992 28.5881 32.0061 28.5541 32.0199 28.5227C32.0337 28.4906 32.0526 28.463 32.0765 28.4397C32.1004 28.4158 32.1287 28.397 32.1614 28.3838C32.1941 28.3699 32.2286 28.363 32.2664 28.363ZM7.77102 27.4308C7.77102 26.9694 8.07343 26.5903 8.5676 26.5903C9.03977 26.5903 9.35853 26.953 9.35853 27.4308C9.35853 27.9085 9.03977 28.2712 8.5676 28.2712C8.07343 28.2712 7.77102 27.8922 7.77102 27.4308ZM9.89671 27.4308V26.1182H9.32583V26.4369C9.14476 26.2006 8.87002 26.0522 8.49656 26.0522C7.76034 26.0522 7.18318 26.6293 7.18318 27.4308C7.18318 28.2329 7.76034 28.8093 8.49656 28.8093C8.87002 28.8093 9.14476 28.661 9.32583 28.4246V28.7433H9.89671V27.4308ZM29.1882 27.4308C29.1882 26.9694 29.4906 26.5903 29.9848 26.5903C30.4576 26.5903 30.7757 26.953 30.7757 27.4308C30.7757 27.9085 30.4576 28.2712 29.9848 28.2712C29.4906 28.2712 29.1882 27.8922 29.1882 27.4308ZM31.3145 27.4308V25.064H30.743V26.4369C30.5619 26.2006 30.2872 26.0522 29.9137 26.0522C29.1775 26.0522 28.6003 26.6293 28.6003 27.4308C28.6003 28.2329 29.1775 28.8093 29.9137 28.8093C30.2872 28.8093 30.5619 28.661 30.743 28.4246V28.7433H31.3145V27.4308ZM16.9829 26.5633C17.3507 26.5633 17.5871 26.794 17.6475 27.2001H16.2851C16.3461 26.821 16.5762 26.5633 16.9829 26.5633ZM16.9943 26.0522C16.2247 26.0522 15.6865 26.6123 15.6865 27.4308C15.6865 28.2656 16.2467 28.8093 17.0326 28.8093C17.4281 28.8093 17.7902 28.7106 18.109 28.4416L17.8292 28.0185C17.6091 28.1939 17.3287 28.2932 17.0653 28.2932C16.6975 28.2932 16.3624 28.1229 16.28 27.6502H18.2297C18.2353 27.5791 18.241 27.5075 18.241 27.4308C18.2353 26.6123 17.7299 26.0522 16.9943 26.0522ZM23.8875 27.4308C23.8875 26.9694 24.1899 26.5903 24.6841 26.5903C25.1562 26.5903 25.475 26.953 25.475 27.4308C25.475 27.9085 25.1562 28.2712 24.6841 28.2712C24.1899 28.2712 23.8875 27.8922 23.8875 27.4308ZM26.0132 27.4308V26.1182H25.4423V26.4369C25.2606 26.2006 24.9865 26.0522 24.613 26.0522C23.8768 26.0522 23.2996 26.6293 23.2996 27.4308C23.2996 28.2329 23.8768 28.8093 24.613 28.8093C24.9865 28.8093 25.2606 28.661 25.4423 28.4246V28.7433H26.0132V27.4308ZM20.6634 27.4308C20.6634 28.2272 21.218 28.8093 22.0642 28.8093C22.4597 28.8093 22.7231 28.7213 23.0085 28.4963L22.7344 28.0349C22.52 28.1889 22.295 28.2712 22.0472 28.2712C21.5914 28.2656 21.2563 27.9362 21.2563 27.4308C21.2563 26.9254 21.5914 26.596 22.0472 26.5903C22.295 26.5903 22.52 26.6727 22.7344 26.8267L23.0085 26.3653C22.7231 26.1402 22.4597 26.0522 22.0642 26.0522C21.218 26.0522 20.6634 26.6343 20.6634 27.4308ZM28.0238 26.0522C27.6944 26.0522 27.48 26.2062 27.3316 26.4369V26.1182H26.7657V28.7433H27.3372V27.2717C27.3372 26.8374 27.524 26.596 27.8974 26.596C28.0131 26.596 28.1338 26.6123 28.2545 26.662L28.4306 26.1239C28.3042 26.0742 28.1395 26.0522 28.0238 26.0522ZM12.7203 26.3269C12.4455 26.1459 12.067 26.0522 11.6496 26.0522C10.9844 26.0522 10.5562 26.3709 10.5562 26.8927C10.5562 27.3208 10.875 27.5848 11.4622 27.6671L11.7319 27.7055C12.045 27.7495 12.1928 27.8318 12.1928 27.9802C12.1928 28.1832 11.984 28.2989 11.5942 28.2989C11.1988 28.2989 10.9133 28.1725 10.721 28.0242L10.4519 28.4686C10.765 28.6993 11.1604 28.8093 11.5886 28.8093C12.3468 28.8093 12.7863 28.4523 12.7863 27.9525C12.7863 27.4911 12.4405 27.2497 11.869 27.1674L11.5999 27.1284C11.3528 27.0957 11.1548 27.0467 11.1548 26.8707C11.1548 26.6783 11.3415 26.5633 11.6546 26.5633C11.9897 26.5633 12.3141 26.6896 12.4732 26.7883L12.7203 26.3269ZM20.0863 26.0522C19.7568 26.0522 19.5424 26.2062 19.3947 26.4369V26.1182H18.8289V28.7433H19.3997V27.2717C19.3997 26.8374 19.5865 26.596 19.9599 26.596C20.0756 26.596 20.1963 26.6123 20.317 26.662L20.4931 26.1239C20.3667 26.0742 20.202 26.0522 20.0863 26.0522ZM15.2144 26.1182H14.2807V25.3218H13.7036V26.1182H13.1711V26.64H13.7036V27.8375C13.7036 28.4466 13.94 28.8093 14.6152 28.8093C14.8629 28.8093 15.1484 28.7326 15.3294 28.6063L15.1647 28.1172C14.9943 28.2159 14.8076 28.2656 14.6592 28.2656C14.3738 28.2656 14.2807 28.0896 14.2807 27.8262V26.64H15.2144V26.1182ZM6.67832 28.7433V27.0957C6.67832 26.4753 6.28286 26.0579 5.64534 26.0522C5.31024 26.0466 4.96444 26.1509 4.72239 26.5193C4.54132 26.2282 4.25588 26.0522 3.85476 26.0522C3.57436 26.0522 3.30024 26.1346 3.08584 26.442V26.1182H2.51434V28.7433H3.09087V27.2881C3.09087 26.8323 3.34362 26.5903 3.73405 26.5903C4.11316 26.5903 4.30492 26.8374 4.30492 27.2824V28.7433H4.88208V27.2881C4.88208 26.8323 5.14551 26.5903 5.52463 26.5903C5.91443 26.5903 6.10116 26.8374 6.10116 27.2824V28.7433H6.67832Z" fill="#8492A6"/>
<path fill-rule="evenodd" clip-rule="evenodd" d="M10.8862 3.99976C13.1373 3.99976 15.2147 4.74362 16.8859 5.99894C18.5572 4.74362 20.6346 3.99976 22.8857 3.99976C28.4083 3.99976 32.8853 8.47673 32.8853 13.9993C32.8853 19.522 28.4083 23.9989 22.8857 23.9989C20.6346 23.9989 18.5572 23.2551 16.8859 21.9998C15.2147 23.2551 13.1373 23.9989 10.8862 23.9989C5.36357 23.9989 0.886597 19.522 0.886597 13.9993C0.886597 8.47673 5.36357 3.99976 10.8862 3.99976ZM22.8857 22.6657C27.672 22.6657 31.552 18.7856 31.552 13.9993C31.552 9.21308 27.672 5.33303 22.8857 5.33303C20.428 5.33303 18.2092 6.3561 16.6321 7.99959H18.2192C18.5874 7.99959 18.8859 8.29806 18.8859 8.66623C18.8859 9.03441 18.5874 9.33287 18.2192 9.33287H15.5818C15.3122 9.75386 15.0781 10.1997 14.8836 10.6662H19.5525C19.9207 10.6662 20.2191 10.9646 20.2191 11.3328C20.2191 11.701 19.9207 11.9994 19.5525 11.9994H14.4513C14.3491 12.4322 14.2793 12.8776 14.2446 13.3327H20.2191C20.5873 13.3327 20.8858 13.6312 20.8858 13.9993C20.8858 14.3675 20.5873 14.666 20.2191 14.666H14.2446C14.2793 15.1211 14.3491 15.5665 14.4513 15.9993H19.5525C19.9207 15.9993 20.2191 16.2977 20.2191 16.6659C20.2191 17.0341 19.9207 17.3325 19.5525 17.3325H14.8836C15.0781 17.799 15.3122 18.2448 15.5818 18.6658H18.2192C18.5874 18.6658 18.8859 18.9643 18.8859 19.3325C18.8859 19.7006 18.5874 19.9991 18.2192 19.9991H16.6321C18.2092 21.6426 20.428 22.6657 22.8857 22.6657Z" fill="#8492A6"/>
</g>
<defs>
<clipPath id="clip0">
<rect width="31.9987" height="31.9987" fill="white" transform="translate(0.886597)"/>
</clipPath>
</defs>
</svg>
