<svg width="58" height="32" viewBox="0 0 58 32" fill="none" xmlns="http://www.w3.org/2000/svg">
<path fill-rule="evenodd" clip-rule="evenodd" d="M49.9664 8.00122H39.6757C40.2289 11.3471 43.5485 14.4771 47.2001 14.4771H55.3884C55.4991 14.1534 55.4991 13.7216 55.4991 13.3978C55.4991 10.3757 53.0647 8.00122 49.9664 8.00122Z" fill="#8492A6"/>
<path fill-rule="evenodd" clip-rule="evenodd" d="M40.561 15.0168V23.1118H45.5404V18.7945H49.9665C52.4009 18.7945 54.5033 17.1755 55.1672 15.0168H40.561Z" fill="#8492A6"/>
<path fill-rule="evenodd" clip-rule="evenodd" d="M22.8561 8.00122V23.1117H27.2822C27.2822 23.1117 28.3887 23.1117 28.942 22.0324C31.9296 16.2041 32.8149 14.4771 32.8149 14.4771H33.3681V23.1117H38.3475V8.00122H33.9214C33.9214 8.00122 32.8149 8.10915 32.2616 9.08054C29.7166 14.0454 28.3887 16.6358 28.3887 16.6358H27.8355V8.00122H22.8561Z" fill="#8492A6"/>
<path fill-rule="evenodd" clip-rule="evenodd" d="M1.83228 23.1117V8.00122H6.81166C6.81166 8.00122 8.25015 8.00122 9.02473 10.1599C11.0165 15.8803 11.2378 16.6358 11.2378 16.6358C11.2378 16.6358 11.6804 15.2327 13.4508 10.1599C14.2254 8.00122 15.6639 8.00122 15.6639 8.00122H20.6433V23.1117H15.6639V15.0168H15.1106L12.3443 23.1117H10.1313L7.36493 15.0168H6.81166V23.1117H1.83228Z" fill="#8492A6"/>
</svg>
