<svg width="34" height="32" viewBox="0 0 34 32" fill="none" xmlns="http://www.w3.org/2000/svg">
<path fill-rule="evenodd" clip-rule="evenodd" d="M16.385 27.1116C9.60642 27.1116 4.11194 21.6171 4.11194 14.8385C4.11194 14.5816 4.11961 14.3269 4.13495 14.0745L11.518 18.3302L27.3486 9.3172C28.2122 11.0294 28.6608 12.9208 28.658 14.8385C28.658 21.6171 23.1635 27.1116 16.385 27.1116ZM11.518 16.8482L4.29987 12.6877C4.38425 12.2121 4.49547 11.7473 4.63201 11.2916L11.518 15.2619L25.8927 7.07737C26.1858 7.43559 26.4581 7.80992 26.7089 8.19958L11.518 16.849V16.8482ZM11.518 13.78L5.0746 10.0659C5.2541 9.6409 5.4566 9.22822 5.68135 8.82934L11.5187 12.1937L23.9068 5.13976C24.2919 5.43892 24.6585 5.76032 25.0045 6.10243L11.518 13.7807V13.78ZM11.518 10.7117L6.36941 7.74471C6.63788 7.36578 6.92783 7.00296 7.23619 6.65778L11.518 9.1262L21.2673 3.57495C21.7728 3.79433 22.2607 4.0467 22.7286 4.32974L11.518 10.7117Z" fill="#8492A6"/>
</svg>
