<svg width="57" height="32" viewBox="0 0 57 32" fill="none" xmlns="http://www.w3.org/2000/svg">
<path d="M24.3243 24.6335H19.8601L22.6523 7.4248H27.1163L24.3243 24.6335Z" fill="#8492A6"/>
<path d="M40.5076 7.84543C39.627 7.49724 38.2304 7.11279 36.5035 7.11279C32.095 7.11279 28.9905 9.45598 28.9715 12.806C28.9349 15.2777 31.1942 16.6505 32.884 17.4746C34.6111 18.3168 35.1982 18.8664 35.1982 19.6171C35.1807 20.7699 33.8026 21.3013 32.5173 21.3013C30.735 21.3013 29.78 21.0274 28.3287 20.386L27.7409 20.111L27.1162 23.974C28.1632 24.4494 30.0922 24.8714 32.095 24.8898C36.7792 24.8898 39.8287 22.5829 39.8648 19.0129C39.8826 17.0539 38.6896 15.5529 36.1176 14.3263C34.5562 13.5389 33.6 13.008 33.6 12.2023C33.6183 11.4699 34.4088 10.7198 36.1713 10.7198C37.6226 10.683 38.6889 11.0308 39.4967 11.3787L39.9005 11.5614L40.5076 7.84543Z" fill="#8492A6"/>
<path d="M46.4406 18.5371C46.8082 17.5484 48.2229 13.7222 48.2229 13.7222C48.2043 13.7589 48.5898 12.7153 48.8102 12.0747L49.1222 13.5575C49.1222 13.5575 49.9676 17.6767 50.1512 18.5371C49.4535 18.5371 47.3223 18.5371 46.4406 18.5371ZM51.9511 7.4248H48.498C47.4332 7.4248 46.6242 7.73577 46.1647 8.85261L39.5337 24.6332H44.2179C44.2179 24.6332 44.989 22.5093 45.1548 22.0518C45.6687 22.0518 50.2254 22.0518 50.8865 22.0518C51.0146 22.656 51.4191 24.6332 51.4191 24.6332H55.5526L51.9511 7.4248Z" fill="#8492A6"/>
<path d="M0.517785 7.4248H7.70026C8.67381 7.46106 9.46378 7.77227 9.72083 8.87135L11.2814 16.776L11.2824 16.7795L11.7602 19.1595L16.1321 7.4248H20.8526L13.8357 24.6152H9.11488L5.13597 9.66254C3.76306 8.86249 2.19618 8.21903 0.444305 7.77251L0.517785 7.4248Z" fill="#8492A6"/>
</svg>
