<svg width="93" height="32" viewBox="0 0 93 32" fill="none" xmlns="http://www.w3.org/2000/svg">
<defs>
<clipPath id="clip0">
<rect width="92.4407" height="31.9987" fill="white" transform="translate(0.416504 0.00146484)"/>
</clipPath>
</defs>
<g clip-path="url(#clip0)">
<path d="M20.1159 19.9095C21.9818 19.9095 23.4944 18.3585 23.4944 16.4452C23.4944 14.532 21.9818 12.981 20.1159 12.981C18.25 12.981 16.7374 14.532 16.7374 16.4452C16.7374 18.3585 18.25 19.9095 20.1159 19.9095Z" fill="#8492A6"/>
<path d="M11.4927 3.55688L18.1607 10.3942C18.2087 10.3942 15.3313 13.3546 12.3239 16.4352C15.3072 19.4929 18.1158 22.3823 18.1158 22.3823L11.4477 29.2196L3.73507 21.3111C2.51133 20.0545 1.80212 18.3658 1.75254 16.5907C1.72824 15.7205 1.86335 14.8617 2.1431 14.056C2.47557 13.0945 3.01321 12.2104 3.72796 11.4733L3.73507 11.4654C6.32103 8.82928 8.90694 6.19314 11.4927 3.55688Z" fill="#8492A6"/>
<path fill-rule="evenodd" clip-rule="evenodd" d="M32.3073 9.51685C31.8384 9.50687 31.3727 9.59845 30.9407 9.78561C30.5086 9.97277 30.12 10.2513 29.8001 10.603C29.4802 10.9547 29.2362 11.3716 29.0842 11.8266C28.9321 12.2815 28.8754 12.7642 28.9177 13.2432C28.8461 13.8951 28.9667 14.554 29.2638 15.1349C29.5609 15.7158 30.021 16.1921 30.5847 16.5023L28.3621 21.3568H29.8068L31.7961 16.7986H32.8296V21.3568H34.0854V9.51685H32.3073ZM32.9185 15.7616H32.2517C31.1404 15.7616 30.2736 15.1462 30.2736 13.2432C30.2736 11.3401 31.2404 10.588 32.2517 10.588H32.9185V15.7616Z" fill="#8492A6"/>
<path d="M38.9421 12.9811H40.1979V21.2884H38.9421V17.5621H37.0751V21.2884H35.8082V12.9811H37.0751V16.5137H38.9421V12.9811Z" fill="#8492A6"/>
<path fill-rule="evenodd" clip-rule="evenodd" d="M46.0323 12.9811V20.2401H46.6324V22.9294H45.5211V21.2998H42.0315V22.9294H40.9201V20.2401H41.4202C42.0864 18.1267 42.3652 15.9051 42.2426 13.6876V12.9811H46.0323ZM42.5649 20.2401H44.7876L44.732 14.0181H43.3206V14.1662C43.4044 16.22 43.1489 18.2736 42.5649 20.2401Z" fill="#8492A6"/>
<path fill-rule="evenodd" clip-rule="evenodd" d="M51.8779 19.7387C51.4136 20.0915 50.8552 20.2903 50.2776 20.3085C49.2663 20.3085 48.755 19.317 48.755 17.4368H52.0891V16.7303C52.0891 13.9042 51.2 12.8672 49.8664 12.8672C48.1327 12.8672 47.4103 14.8158 47.4103 17.4824C47.4103 20.1489 48.4439 21.4138 50.122 21.4138C50.8481 21.4223 51.5561 21.1816 52.1335 20.7301L51.8779 19.7387ZM49.8997 13.9269C50.6221 13.9269 50.8555 14.9639 50.8555 16.377H48.7662C48.844 14.9525 49.1218 13.9269 49.8997 13.9269Z" fill="#8492A6"/>
<path d="M58.2349 21.2884L55.9233 16.8898L57.9459 12.9811H56.6679L54.7008 16.8214V12.9811H53.445V21.2884H54.7008V17.1519L56.8568 21.2884H58.2349Z" fill="#8492A6"/>
<path d="M62.8914 20.7871C62.4211 21.207 61.8143 21.4306 61.191 21.4138C59.4796 21.4138 58.3682 19.978 58.3682 17.1405C58.3682 14.5309 59.3573 12.8671 61.2688 12.8671C61.816 12.8348 62.3585 12.9869 62.8136 13.3002L62.6357 14.5195C62.267 14.1714 61.7915 13.9659 61.291 13.9383C60.3909 13.9383 59.7463 14.9753 59.7463 17.0721C59.7463 19.1689 60.2241 20.3426 61.2466 20.3426C61.7513 20.348 62.2408 20.1658 62.6246 19.8298L62.8914 20.7871Z" fill="#8492A6"/>
<path d="M71.9822 21.3568L68.3925 14.9753L71.6932 9.51687H70.9264L67.5702 15.0437V9.51687H66.77V21.3568H67.5702V15.1121L71.0931 21.3568H71.9822Z" fill="#8492A6"/>
<path fill-rule="evenodd" clip-rule="evenodd" d="M76.9164 19.8526V15.2944C76.9164 13.6307 76.1607 12.8672 74.8271 12.8672C74.4672 12.8517 74.1085 12.9194 73.7776 13.0654C73.4467 13.2113 73.1521 13.4318 72.9156 13.7104L73.1268 14.4625C73.3151 14.1788 73.5689 13.9472 73.8655 13.7882C74.1621 13.6291 74.4924 13.5476 74.8271 13.5509C75.7162 13.5509 76.1829 14.0979 76.1829 15.3742V16.4226H75.2939C74.9322 16.3729 74.5642 16.4088 74.2181 16.5275C73.872 16.6463 73.5571 16.8447 73.2974 17.1077C73.0378 17.3706 72.8403 17.6911 72.7202 18.0444C72.6001 18.3978 72.5605 18.7746 72.6044 19.1461C72.6044 20.6731 73.349 21.562 74.4493 21.562C74.8348 21.5499 75.2083 21.4212 75.5227 21.1921C75.8371 20.963 76.0784 20.6436 76.2163 20.2743C76.2342 20.6605 76.2977 21.0432 76.4052 21.4138H77.0942C76.9747 20.9025 76.915 20.3784 76.9164 19.8526ZM76.1496 19.2943C75.8607 20.1831 75.3272 20.9352 74.5715 20.9352C73.8158 20.9352 73.3046 20.2515 73.3046 19.0777C73.3046 17.6191 73.9492 16.981 75.2828 16.981H76.1496V19.2943Z" fill="#8492A6"/>
<path d="M82.6177 20.6389L82.3732 19.9894C82.1851 20.2556 81.9401 20.474 81.6569 20.6281C81.3737 20.7822 81.0599 20.8677 80.7395 20.8782C79.4615 20.8782 78.8836 19.5905 78.8836 17.2317C78.8836 14.8728 79.4837 13.5281 80.7395 13.5281C81.0578 13.5421 81.3679 13.6355 81.6429 13.8004C81.918 13.9652 82.1496 14.1964 82.3176 14.4739L82.5288 13.6535C82.3083 13.3918 82.0326 13.185 81.7226 13.0488C81.4126 12.9125 81.0764 12.8504 80.7395 12.8672C79.0503 12.8672 78.1168 14.5081 78.1168 17.2317C78.1168 19.9552 79.0614 21.562 80.7173 21.562C81.0821 21.5695 81.4437 21.4901 81.7735 21.3299C82.1033 21.1697 82.3923 20.9332 82.6177 20.6389Z" fill="#8492A6"/>
<path d="M87.7851 19.9894L88.0296 20.6389C87.8077 20.9314 87.5225 21.167 87.1965 21.3272C86.8706 21.4874 86.5129 21.5678 86.1515 21.562C84.5067 21.562 83.5621 19.9552 83.5621 17.2317C83.5621 14.5081 84.4623 12.8672 86.1515 12.8672C86.4902 12.8487 86.8285 12.9099 87.1406 13.0462C87.4527 13.1825 87.7302 13.3902 87.9518 13.6535L87.7407 14.474C87.5695 14.1969 87.3356 13.9663 87.059 13.8016C86.7823 13.637 86.471 13.5431 86.1515 13.5281C84.8957 13.5281 84.3067 14.8728 84.3067 17.2317C84.3067 19.5906 84.8734 20.8783 86.1515 20.8783C86.4724 20.8703 86.7871 20.7859 87.0707 20.6316C87.3542 20.4773 87.5988 20.2575 87.7851 19.9894Z" fill="#8492A6"/>
<path fill-rule="evenodd" clip-rule="evenodd" d="M93.064 15.2944V19.8526C93.0569 20.3787 93.1167 20.9035 93.2418 21.4138H92.5528C92.4453 21.0432 92.3818 20.6605 92.3639 20.2743C92.226 20.6436 91.9846 20.963 91.6702 21.1921C91.3558 21.4212 90.9824 21.5499 90.5968 21.562C89.4855 21.562 88.752 20.6503 88.752 19.1461C88.708 18.7746 88.7476 18.3978 88.8678 18.0444C88.9879 17.6911 89.1854 17.3706 89.445 17.1077C89.7047 16.8447 90.0196 16.6463 90.3657 16.5275C90.7117 16.4088 91.0798 16.3729 91.4414 16.4226H92.3305V15.3742C92.3305 14.0979 91.8638 13.5509 90.9747 13.5509C90.64 13.5476 90.3097 13.6291 90.0131 13.7882C89.7165 13.9472 89.4627 14.1788 89.2743 14.4625L89.0632 13.7104C89.2997 13.4318 89.5943 13.2113 89.9252 13.0654C90.2561 12.9194 90.6148 12.8517 90.9747 12.8672C92.3083 12.8672 93.064 13.6307 93.064 15.2944ZM90.7524 20.9352C91.5081 20.9352 92.0416 20.1831 92.3305 19.2943V16.981H91.4637C90.1301 16.981 89.4855 17.6191 89.4855 19.0777C89.4855 20.2515 89.9967 20.9352 90.7524 20.9352Z" fill="#8492A6"/>
</g>
</svg>
