<svg xmlns="http://www.w3.org/2000/svg" width="244" height="244" fill="none" viewBox="0 0 244 244">
  <path fill="none" d="M244 52.7V244H38c-16.4-22-29.6-33-28.5-63.5 1.5-40.5 58.3-70 110.6-73.5 52.4-3.5 85.2-53.9 123.9-54.3z"/>
  <path stroke="#2E6BE5" stroke-opacity=".1" d="M244.5 52.7v-.5h-.5c-9.8.1-19.2 3.4-28.5 8.2a272.3 272.3 0 00-28.6 17.9c-19.6 13-40.8 26.4-66.8 28.2-26.3 1.7-53.6 10-74.6 23-21 12.8-35.7 30.5-36.5 51a63 63 0 007.7 35.1c3.6 6.5 8.3 12.5 13.5 19.1l7.3 9.6.2.2H244.5V52.7z"/>
  <path fill="none" d="M244 145v99H59.4C50 231.8 35.5 220 36 194s38-56.2 76-47c38 9.2 81.5-72 132-2z"/>
  <path stroke="#2E6BE5" stroke-opacity=".1" d="M244.5 145v-.2h0c-12.8-17.7-25-25.8-37-28.2-12-2.4-23.4 1-34.4 6.1a220.8 220.8 0 00-18.2 10c-4.6 2.6-9.1 5.3-13.6 7.6-10.2 5.2-19.9 8.5-29.2 6.2A66.3 66.3 0 0059.6 157c-14.2 9.7-23.8 23.9-24.1 37-.4 22 9.7 34 18.6 44.4l5 6v.2h185.4V145z"/>
  <path fill="#2E6BE5" fill-opacity=".1" d="M167 179H89a6 6 0 01-6-6v-50.8c0-2 1-3.9 2.7-5l39-26a6 6 0 016.6 0l39 26a6 6 0 012.7 5V173a6 6 0 01-6 6z"/>
  <path fill="#fff" stroke="#3D5C99" stroke-width="2" d="M162 174H84a6 6 0 01-6-6v-50.8c0-2 1-3.9 2.7-5l39-26a6 6 0 016.6 0l39 26a6 6 0 012.7 5V168a6 6 0 01-6 6z"/>
  <path stroke="#3D5C99" stroke-linecap="round" stroke-linejoin="round" stroke-width="2" d="M160 122l-22 22M86 122l22 22"/>
  <path fill="#fff" stroke="#3D5C99" stroke-linecap="round" stroke-linejoin="round" stroke-width="2" d="M149 93H97a6 6 0 00-6 6v28l17 17 .7-.4a6 6 0 012.7-.6h23.2c1 0 1.8.2 2.7.6l.7.4 17-17V99a6 6 0 00-6-6z"/>
  <path stroke="#2E6BE5" stroke-linecap="round" stroke-linejoin="round" stroke-opacity=".2" stroke-width="2" d="M160 166l-19-19M86 166l19-19"/>
  <path stroke="#2E6BE5" stroke-linecap="round" stroke-linejoin="round" stroke-opacity=".3" stroke-width="2" d="M95 105v-6c0-1.1.9-2 2-2h6M107 97h5"/>
  <path fill="#2E6BE5" d="M103 129a1 1 0 000 2v-2zm40 2a1 1 0 000-2v2zm-40 0h40v-2h-40v2zM103 122a1 1 0 000 2v-2zm40 2a1 1 0 000-2v2zm-40 0h40v-2h-40v2zM143 117a1 1 0 000-2v2zm-20-2a1 1 0 000 2v-2zm0 2h20v-2h-20v2z"/>
  <path stroke="#2E6BE5" stroke-linecap="round" stroke-linejoin="round" stroke-width="1.5" d="M110 116h-.5c-3.6 0-6.5-3-6.5-6.5v0c0-3.6 3-6.5 6.5-6.5v0c3.6 0 6.5 3 6.5 6.5v.4c0 1.2-1 2.1-2 2.1h-.3c-1.2 0-2.2-1-2.2-2.3V107"/>
  <path stroke="#2E6BE5" stroke-width="1.5" d="M107.5 110v-1a2 2 0 114 0v1a2 2 0 11-4 0z"/>
  <path stroke="#2E6BE5" stroke-linecap="round" stroke-linejoin="round" stroke-width="2" d="M85 95l-8-1M88 90l-8-8M93 87l-1-8M76 78l-3-3M141 71v8M137 75h8"/>
  <circle cx="119" cy="68" r="3" stroke="#2E6BE5" stroke-opacity=".3" stroke-width="2"/>
  <circle cx="131" cy="53" r="2" fill="#2E6BE5" fill-opacity=".3"/>
</svg>
