<svg xmlns="http://www.w3.org/2000/svg" width="244" height="244" fill="none" viewBox="0 0 244 244">
  <path fill="none" d="M244 46.3V244H33.5c-21-42.5-2.5-89.5 53.5-101.5S130.5 10 244 46.3z"/>
  <path stroke="#F93" stroke-opacity=".1" d="M244.5 46.3V46l-.3-.1c-28.5-9.1-49.1-8.4-65-2A80.2 80.2 0 00143.6 76c-4.4 6.7-8.4 13.7-12.4 20.6l-.2.4c-4 7-7.9 13.8-12.1 20-8.5 12.4-18 22-31.9 25-28.1 6-46.9 20.9-56 39.6a70.5 70.5 0 002.2 62.6l.1.3h211.3V46.3z"/>
  <path fill="none" d="M244 128.5V244H72c-16.5-37.5-6.5-75 46.5-90s64-53.5 125.5-25.5z"/>
  <path stroke="#F93" stroke-opacity=".1" d="M244.5 128.5v-.3l-.3-.2a94.9 94.9 0 00-38.3-10 62.7 62.7 0 00-28 6.7c-5.7 2.6-11.3 6-17.2 9.4l-9.1 5.2c-9.5 5.3-20 10.5-33.2 14.2-26.6 7.5-42.5 20.7-49.7 36.9-7.1 16-5.4 35 2.8 53.8l.2.3h172.8v-116z"/>
  <path fill="#F93" fill-opacity=".1" fill-rule="evenodd" d="M140.7 110.6l33.9 9a6 6 0 014.2 7.4l-12 44.4a6 6 0 01-7.3 4.3l-44-11.8-32.7 8.8a6 6 0 01-7.3-4.3l-12-44.4a6 6 0 014.3-7.4l35.6-9.5v-.3a6 6 0 017.4-4.2l4.8 1.2 16-4.2a6 6 0 017.3 4.2l1.8 6.8z" clip-rule="evenodd"/>
  <rect width="78" height="58" x="105" y="96" fill="#fff" stroke="#806040" stroke-width="2" rx="6" transform="rotate(15 105 96)"/>
  <path stroke="#F93" stroke-linecap="round" stroke-linejoin="round" stroke-opacity=".3" stroke-width="2" d="M172 128.3l2-7.6a1 1 0 00-.7-1.2l-7.3-2m-1.9 40l-2 7.6a1 1 0 01-1.3.7l-7.2-2m-36.8-59.5l-7.3-2a1 1 0 00-1.2.8l-2 7.6m-2 40l-7.2-2a1 1 0 01-.7-1.2l2-7.6"/>
  <rect width="78" height="58" x="152.4" y="149" fill="#fff" stroke="#806040" stroke-width="2" rx="6" transform="rotate(165 152.4 149)"/>
  <path stroke="#F93" stroke-linecap="round" stroke-linejoin="round" stroke-opacity=".3" stroke-width="2" d="M78.2 154.5l2 7.6c.2.6.8.9 1.3.7l7.3-2m-18.4-35.5l-2-7.6a1 1 0 01.7-1.2l7.2-2m61.7 33.2l7.3-2c.5-.1.8-.6.7-1.2l-2-7.6m-18.4-35.6l7.2-2a1 1 0 011.3.8l2 7.6"/>
  <rect width="78" height="58" x="81" y="94" fill="#fff" stroke="#806040" stroke-width="2" rx="6"/>
  <path stroke="#F93" stroke-linecap="round" stroke-linejoin="round" stroke-opacity=".3" stroke-width="2" d="M154 107.9V100c0-.6-.4-1-1-1h-7.5m8.5 39.1v7.9c0 .6-.4 1-1 1h-7.5m-51-48H87a1 1 0 00-1 1v7.9m8.5 39.1H87a1 1 0 01-1-1v-7.9"/>
  <circle cx="120" cy="115" r="8" stroke="#F93" stroke-linecap="round" stroke-linejoin="round" stroke-width="2"/>
  <path stroke="#F93" stroke-linecap="round" stroke-linejoin="round" stroke-width="2" d="M122 118c-.3.5-1 1-2 1s-1.8-.5-2-1M113.5 110.5c5.5-1 8.5 3 12.5-.5M135 130.1c0 5-2.3 8.9-15 8.9s-15-4-15-8.9 9.8-7.1 15-7.1c5.2 0 15 2.2 15 7.1z"/>
  <path fill="#F93" d="M161 85a6.6 6.6 0 00-6-6 6.6 6.6 0 006-6 6.6 6.6 0 006 6 6.6 6.6 0 00-6 6zM179 74a3.3 3.3 0 00-3-3 3.3 3.3 0 003-3 3.3 3.3 0 003 3 3.3 3.3 0 00-3 3zM172 100a4.4 4.4 0 00-4-4 4.4 4.4 0 004-4 4.4 4.4 0 004 4 4.4 4.4 0 00-4 4z"/>
  <path stroke="#F93" stroke-linecap="round" stroke-linejoin="round" stroke-width="2" d="M76 97l-8-1M79 92l-8-8M84 89l-1-8M67 80l-3-3"/>
</svg>
