<svg width="244" height="244" viewBox="0 0 244 244" fill="none" xmlns="http://www.w3.org/2000/svg">
<g clip-path="url(#clip0)">
<g clip-path="url(#clip1)">
<path d="M245 46.3412V244H34.5339C13.5001 201.5 32.0002 154.5 88.0002 142.5C144 130.5 131.5 10 245 46.3412Z" fill="#B433FF" fill-opacity="0.01"/>
<path fill-rule="evenodd" clip-rule="evenodd" d="M245.5 46.3412V45.9762L245.153 45.865C216.705 36.7563 196.078 37.4526 180.273 43.8839C164.474 50.3128 153.576 62.4392 144.522 76.0152C140.069 82.6918 136.053 89.7325 132.12 96.6274L131.924 96.9714C127.925 103.982 124.007 110.832 119.783 117.02C111.331 129.4 101.707 139.052 87.8954 142.011C59.7718 148.038 41.0036 162.87 31.9294 181.594C22.8572 200.315 23.5102 222.853 34.0858 244.222L34.2235 244.5H34.5339H245H245.5V244V46.3412Z" stroke="#D77FFF" stroke-opacity="0.15"/>
<path d="M245 128.5V244H73.0001C56.5001 206.5 66.5003 169 119.5 154C172.5 139 183.5 100.5 245 128.5Z" fill="#B033FF" fill-opacity="0.01"/>
<path fill-rule="evenodd" clip-rule="evenodd" d="M245.5 128.5V128.178L245.207 128.045C229.789 121.025 217.5 118.157 206.903 118.062C196.3 117.968 187.428 120.65 178.85 124.672C173.153 127.344 167.559 130.621 161.677 134.066C158.732 135.791 155.715 137.559 152.576 139.314C143.15 144.585 132.562 149.784 119.364 153.519C92.7683 161.046 76.8708 174.247 69.7306 190.36C62.594 206.465 64.2556 225.367 72.5426 244.201L72.674 244.5H73.0002H245H245.5V244V128.5Z" stroke="#D77FFF" stroke-opacity="0.15"/>
<path opacity="0.1" d="M159 99H93C89.6863 99 87 101.686 87 105V151C87 154.314 89.6863 157 93 157H159C162.314 157 165 154.314 165 151V105C165 101.686 162.314 99 159 99Z" fill="#9B51E0"/>
<path opacity="0.4" d="M176.025 94.5389C176.185 89.9727 174.504 85.6883 171.29 82.4745C168.077 79.2611 163.792 77.5799 159.226 77.7404C158.703 77.7589 158.294 78.1979 158.312 78.7211C158.331 79.2442 158.77 79.6535 159.293 79.635C163.328 79.4931 167.112 80.9776 169.95 83.8152C172.788 86.6527 174.272 90.4374 174.13 94.4722C174.121 94.7458 174.228 94.9964 174.407 95.1759C174.571 95.3395 174.795 95.444 175.044 95.4528C175.567 95.4712 176.006 95.062 176.025 94.5389Z" fill="#9B51E0"/>
<path opacity="0.7" d="M168.674 96.967C168.687 93.6982 167.481 90.6859 165.28 88.4848C163.079 86.2833 160.066 85.0779 156.798 85.0906C156.274 85.0926 155.852 85.5186 155.854 86.0421C155.856 86.5656 156.282 86.9884 156.805 86.9863C159.564 86.9756 162.098 87.9838 163.94 89.8253C165.781 91.6664 166.789 94.2001 166.779 96.9598C166.778 97.2229 166.884 97.4613 167.056 97.6337C167.227 97.8043 167.463 97.9103 167.723 97.9113C168.247 97.9133 168.672 97.4905 168.674 96.967Z" fill="#9B51E0"/>
<path d="M161.095 99.1819C161.087 97.446 160.373 95.6594 159.233 94.5193C159.233 94.5191 159.233 94.5189 159.233 94.5188L159.184 94.4705C159.184 94.4703 159.184 94.4702 159.184 94.47C158.044 93.3298 156.257 92.6165 154.521 92.6084C153.998 92.606 153.571 93.0284 153.569 93.5518C153.568 93.8152 153.674 94.054 153.846 94.2265C154.017 94.397 154.252 94.5029 154.512 94.5041C155.748 94.5098 157.055 95.0226 157.843 95.8105C157.843 95.8106 157.844 95.8108 157.844 95.8109L157.892 95.8594C157.892 95.8595 157.892 95.8595 157.892 95.8597C158.68 96.6475 159.193 97.955 159.199 99.1907C159.201 99.7141 159.628 100.137 160.151 100.134C160.675 100.132 161.097 99.7054 161.095 99.1819Z" fill="#9B51E0"/>
<path opacity="0.1" d="M159.5 156H92.5C89.4624 156 87 158.462 87 161.5C87 164.538 89.4624 167 92.5 167H159.5C162.538 167 165 164.538 165 161.5C165 158.462 162.538 156 159.5 156Z" fill="#9B51E0"/>
<path d="M154 93H88C84.6863 93 82 95.6863 82 99V145C82 148.314 84.6863 151 88 151H154C157.314 151 160 148.314 160 145V99C160 95.6863 157.314 93 154 93Z" fill="white" stroke="#5E4080" stroke-width="2"/>
<path opacity="0.5" d="M83 123.449C90.0998 119.718 98.1303 117.852 107.092 117.852C116.053 117.852 133.356 121.868 159 129.9V145C159 147.761 156.761 150 154 150H88C85.2386 150 83 147.761 83 145V123.449Z" fill="#F8E8FE"/>
<path d="M154.5 151H87.5C84.4624 151 82 153.462 82 156.5C82 159.538 84.4624 162 87.5 162H154.5C157.538 162 160 159.538 160 156.5C160 153.462 157.538 151 154.5 151Z" fill="white" stroke="#5E4080" stroke-width="2"/>
<path opacity="0.2" d="M88 97H97" stroke="#9B51E0" stroke-width="2" stroke-linecap="round"/>
<path opacity="0.2" d="M151 97H154" stroke="#9B51E0" stroke-width="2" stroke-linecap="round"/>
<path opacity="0.2" d="M101 97H104" stroke="#9B51E0" stroke-width="2" stroke-linecap="round"/>
<path d="M111.5 145C112.881 145 114 143.881 114 142.5C114 141.119 112.881 140 111.5 140C110.119 140 109 141.119 109 142.5C109 143.881 110.119 145 111.5 145Z" fill="#9B51E0" fill-opacity="0.5"/>
<path d="M120.5 145C121.881 145 123 143.881 123 142.5C123 141.119 121.881 140 120.5 140C119.119 140 118 141.119 118 142.5C118 143.881 119.119 145 120.5 145Z" fill="#9B51E0" fill-opacity="0.5"/>
<path opacity="0.8" d="M129.5 145C130.881 145 132 143.881 132 142.5C132 141.119 130.881 140 129.5 140C128.119 140 127 141.119 127 142.5C127 143.881 128.119 145 129.5 145Z" fill="#9B51E0" fill-opacity="0.8"/>
<mask id="mask0" mask-type="alpha" maskUnits="userSpaceOnUse" x="105" y="104" width="32" height="32">
<path d="M121 136C129.837 136 137 128.837 137 120C137 111.163 129.837 104 121 104C112.163 104 105 111.163 105 120C105 128.837 112.163 136 121 136Z" fill="white"/>
</mask>
<g mask="url(#mask0)">
<path d="M121 136C129.837 136 137 128.837 137 120C137 111.163 129.837 104 121 104C112.163 104 105 111.163 105 120C105 128.837 112.163 136 121 136Z" fill="white"/>
<path d="M121 127C125.418 127 129 123.418 129 119C129 114.582 125.418 111 121 111C116.582 111 113 114.582 113 119C113 123.418 116.582 127 121 127Z" stroke="#9B51E0" stroke-width="2" stroke-linecap="round" stroke-linejoin="round"/>
<path d="M123 122C122.75 122.5 122 123 121 123C120 123 119.25 122.5 119 122" stroke="#9B51E0" stroke-width="2" stroke-linecap="round" stroke-linejoin="round"/>
<path d="M114.5 114.5C120 113.5 123 117.5 127 114" stroke="#9B51E0" stroke-width="2" stroke-linecap="round" stroke-linejoin="round"/>
<path fill-rule="evenodd" clip-rule="evenodd" d="M136 134.111C136 139.02 133.656 143 121 143C108.344 143 106 139.02 106 134.111C106 129.202 115.822 127 121 127C126.178 127 136 129.202 136 134.111Z" stroke="#9B51E0" stroke-width="2" stroke-linecap="round" stroke-linejoin="round"/>
</g>
<path d="M121 136C129.837 136 137 128.837 137 120C137 111.163 129.837 104 121 104C112.163 104 105 111.163 105 120C105 128.837 112.163 136 121 136Z" stroke="#9B51E0" stroke-width="2"/>
<path d="M77 97L69 96" stroke="#9B51E0" stroke-width="2" stroke-linecap="round" stroke-linejoin="round"/>
<path d="M80 92L72 84" stroke="#9B51E0" stroke-width="2" stroke-linecap="round" stroke-linejoin="round"/>
<path d="M85 89L84 81" stroke="#9B51E0" stroke-width="2" stroke-linecap="round" stroke-linejoin="round"/>
<path d="M68 80L65 77" stroke="#9B51E0" stroke-width="2" stroke-linecap="round" stroke-linejoin="round"/>
</g>
</g>
<defs>
<clipPath id="clip0">
<rect width="244" height="244" fill="white"/>
</clipPath>
<clipPath id="clip1">
<rect width="220" height="206" fill="white" transform="translate(25 38)"/>
</clipPath>
</defs>
</svg>
