<svg width="48" height="48" viewBox="0 0 48 48" fill="none" xmlns="http://www.w3.org/2000/svg">
<path d="M15 32V11" stroke="#2E6BE6" stroke-width="1.5"/>
<path d="M27 36V25" stroke="#2E6BE6" stroke-width="1.5" stroke-linecap="round" stroke-linejoin="round"/>
<path d="M47 36V25" stroke="#2E6BE6" stroke-width="1.5" stroke-linecap="round" stroke-linejoin="round"/>
<path d="M35 11V22" stroke="#2E6BE6" stroke-width="1.5"/>
<ellipse cx="25" cy="11" rx="10" ry="3" fill="white" stroke="#2E6BE6" stroke-width="1.5" stroke-linecap="round" stroke-linejoin="round"/>
<path d="M35 17C35 18.6569 30.5228 20 25 20C19.4772 20 15 18.6569 15 17" stroke="#2E6BE6" stroke-width="1.5" stroke-linecap="round" stroke-linejoin="round"/>
<ellipse cx="37" cy="25" rx="10" ry="3" fill="white" stroke="#2E6BE6" stroke-width="1.5" stroke-linecap="round" stroke-linejoin="round"/>
<path d="M47 31C47 32.6569 42.5228 34 37 34C31.4772 34 27 32.6569 27 31" stroke="#2E6BE6" stroke-width="1.5" stroke-linecap="round" stroke-linejoin="round"/>
<path d="M47 36C47 37.6569 42.5228 39 37 39C31.4772 39 27 37.6569 27 36" stroke="#2E6BE6" stroke-width="1.5" stroke-linecap="round" stroke-linejoin="round"/>
<path d="M15 22C15 23.6569 19.4772 25 25 25H26" stroke="#2E6BE6" stroke-width="1.5" stroke-linecap="round" stroke-linejoin="round"/>
<path d="M15 27C15 28.6569 19.4772 30 25 30H27" stroke="#2E6BE6" stroke-width="1.5" stroke-linecap="round" stroke-linejoin="round"/>
<path d="M15 32C15 33.6569 19.4772 35 25 35H27" stroke="#2E6BE6" stroke-width="1.5" stroke-linecap="round" stroke-linejoin="round"/>
<circle cx="11" cy="28" r="10" fill="white" stroke="#2E6BE6" stroke-width="1.5"/>
<path d="M14.8667 23H9V28H14.8667C14.9403 28 15 27.9403 15 27.8667V23.1333C15 23.0597 14.9403 23 14.8667 23Z" fill="white"/>
<path d="M9 33V28M9 28V23H14.8667C14.9403 23 15 23.0597 15 23.1333V27.8667C15 27.9403 14.9403 28 14.8667 28H9Z" stroke="#2E6BE6" stroke-width="1.5" stroke-linecap="round" stroke-linejoin="round"/>
<path d="M7 31H13" stroke="#2E6BE6" stroke-width="1.5" stroke-linecap="round" stroke-linejoin="round"/>
</svg>
