<svg width="64" height="64" viewBox="0 0 64 64" fill="none" xmlns="http://www.w3.org/2000/svg">
<path d="M53.2428 19.7581C52.0708 18.5863 50.6571 18.0003 49.0007 18.0003H43.7507L42.5556 14.813C42.2586 14.0475 41.7159 13.3872 40.9264 12.8322C40.1372 12.2776 39.3287 12 38.5005 12H26.5002C25.672 12 24.8633 12.2776 24.0742 12.8322C23.285 13.3872 22.7423 14.0475 22.4453 14.813L21.2501 18.0003H16C14.3435 18.0003 12.9297 18.5863 11.7577 19.7581C10.5859 20.93 10 22.3439 10 24.0003V45.0005C10 46.657 10.5859 48.0711 11.7577 49.2426C12.9297 50.4147 14.3436 51.0007 16 51.0007H49.0001C50.6565 51.0007 52.0701 50.4147 53.2422 49.2426C54.4139 48.0711 55 46.657 55 45.0005V24.0003C55.0003 22.3439 54.4143 20.93 53.2428 19.7581ZM39.9181 41.9187C37.8634 43.9735 35.391 45.0011 32.5001 45.0011C29.6093 45.0011 27.137 43.9735 25.0821 41.9187C23.0273 39.8643 22.0001 37.3912 22.0001 34.501C22.0001 31.6099 23.0276 29.1377 25.0821 27.0829C27.1367 25.028 29.6093 24.0008 32.5001 24.0008C35.3909 24.0008 37.8634 25.0283 39.9181 27.0829C41.9729 29.1375 43.0003 31.6099 43.0003 34.501C43.0003 37.3912 41.973 39.864 39.9181 41.9187Z" fill="white"/>
</svg>
