<svg width="228" height="32" viewBox="0 0 228 32" fill="none" xmlns="http://www.w3.org/2000/svg">
<path d="M24.3243 24.6315H19.8601L22.6523 7.42285H27.1163L24.3243 24.6315Z" fill="#2A2B6A"/>
<path d="M40.5076 7.84348C39.627 7.49529 38.2304 7.11084 36.5035 7.11084C32.095 7.11084 28.9905 9.45402 28.9715 12.8041C28.9349 15.2757 31.1942 16.6485 32.884 17.4727C34.6111 18.3148 35.1982 18.8645 35.1982 19.6151C35.1807 20.768 33.8026 21.2994 32.5173 21.2994C30.735 21.2994 29.78 21.0254 28.3287 20.384L27.7409 20.1091L27.1162 23.972C28.1632 24.4475 30.0922 24.8694 32.095 24.8879C36.7792 24.8879 39.8287 22.581 39.8648 19.011C39.8826 17.052 38.6896 15.5509 36.1176 14.3243C34.5562 13.537 33.6 13.006 33.6 12.2004C33.6183 11.468 34.4088 10.7178 36.1713 10.7178C37.6226 10.6811 38.6889 11.0288 39.4967 11.3767L39.9005 11.5595L40.5076 7.84348Z" fill="#2A2B6A"/>
<path d="M46.4406 18.5351C46.8082 17.5465 48.2229 13.7203 48.2229 13.7203C48.2043 13.757 48.5898 12.7134 48.8102 12.0727L49.1222 13.5555C49.1222 13.5555 49.9676 17.6747 50.1512 18.5351C49.4535 18.5351 47.3223 18.5351 46.4406 18.5351ZM51.9511 7.42285H48.498C47.4332 7.42285 46.6242 7.73382 46.1647 8.85066L39.5337 24.6313H44.2179C44.2179 24.6313 44.989 22.5073 45.1548 22.0499C45.6687 22.0499 50.2254 22.0499 50.8865 22.0499C51.0146 22.654 51.4191 24.6313 51.4191 24.6313H55.5526L51.9511 7.42285Z" fill="#2A2B6A"/>
<path d="M0.517785 7.42285H7.70026C8.67381 7.45911 9.46378 7.77031 9.72083 8.8694L11.2814 16.7741L11.2824 16.7776L11.7602 19.1575L16.1321 7.42285H20.8526L13.8357 24.6133H9.11488L5.13597 9.66059C3.76306 8.86053 2.19618 8.21708 0.444305 7.77056L0.517785 7.42285Z" fill="#2A2B6A"/>
<circle cx="81.1133" cy="16" r="10" fill="#E80024"/>
<circle cx="94.1133" cy="16" r="10" fill="#F59D2E"/>
<path d="M87.6133 23.5996C89.7556 21.7655 91.1133 19.0413 91.1133 16C91.1133 12.9587 89.7556 10.2345 87.6133 8.40039C85.471 10.2345 84.1133 12.9587 84.1133 16C84.1133 19.0413 85.471 21.7655 87.6133 23.5996Z" fill="#FC5C1C"/>
<circle cx="133.113" cy="16" r="10" fill="#E80024"/>
<circle cx="146.113" cy="16" r="10" fill="#19A2DD"/>
<path d="M139.613 23.5996C141.756 21.7655 143.113 19.0413 143.113 16C143.113 12.9587 141.756 10.2345 139.613 8.40039C137.471 10.2345 136.113 12.9587 136.113 16C136.113 19.0413 137.471 21.7655 139.613 23.5996Z" fill="#7674BE"/>
<path fill-rule="evenodd" clip-rule="evenodd" d="M221.634 7.99976H211.344C211.897 11.3457 215.217 14.4757 218.868 14.4757H227.056C227.167 14.1519 227.167 13.7202 227.167 13.3964C227.167 10.3743 224.733 7.99976 221.634 7.99976Z" fill="#179BDB"/>
<path fill-rule="evenodd" clip-rule="evenodd" d="M212.23 15.0154V23.1103H217.21V18.793H221.636C224.07 18.793 226.173 17.174 226.837 15.0154H212.23Z" fill="#379B46"/>
<path fill-rule="evenodd" clip-rule="evenodd" d="M194.523 7.99976V23.1103H198.95C198.95 23.1103 200.056 23.1103 200.609 22.0309C203.597 16.2026 204.482 14.4757 204.482 14.4757H205.035V23.1103H210.015V7.99976H205.589C205.589 7.99976 204.482 8.10769 203.929 9.07908C201.384 14.044 200.056 16.6343 200.056 16.6343H199.503V7.99976H194.523Z" fill="#379B46"/>
<path fill-rule="evenodd" clip-rule="evenodd" d="M173.5 23.1103V7.99976H178.479C178.479 7.99976 179.918 7.99976 180.692 10.1584C182.684 15.8788 182.906 16.6343 182.906 16.6343C182.906 16.6343 183.348 15.2312 185.119 10.1584C185.893 7.99976 187.332 7.99976 187.332 7.99976H192.311V23.1103H187.332V15.0153H186.778L184.012 23.1103H181.799L179.033 15.0153H178.479V23.1103H173.5Z" fill="#379B46"/>
</svg>
