<svg width="16" height="20" viewBox="0 0 16 20" fill="none" xmlns="http://www.w3.org/2000/svg">
<path fill-rule="evenodd" clip-rule="evenodd" d="M15.1143 0.945684C15.3385 1.03855 15.4847 1.25733 15.4847 1.50001V16.5C15.4847 17.936 14.3206 19.1 12.8847 19.1H2.88467C1.44873 19.1 0.284668 17.936 0.284668 16.5V14.5C0.284668 14.1686 0.553297 13.9 0.884668 13.9H2.28467V1.58509C2.28467 1.34478 2.42805 1.12766 2.64905 1.03329C2.87005 0.938922 3.12604 0.985518 3.29961 1.15171L4.87555 2.6606L6.4604 1.07575C6.69472 0.841433 7.07462 0.841433 7.30893 1.07575L8.88467 2.65148L10.4604 1.07575C10.6947 0.841433 11.0746 0.841433 11.3089 1.07575L12.8847 2.65148L14.4604 1.07575C14.632 0.904149 14.8901 0.852815 15.1143 0.945684ZM3.48467 13.9H10.8847C11.216 13.9 11.4847 14.1686 11.4847 14.5V16.5C11.4847 17.2732 12.1115 17.9 12.8847 17.9C13.6579 17.9 14.2847 17.2732 14.2847 16.5V2.94854L13.3089 3.92428C13.0746 4.15859 12.6947 4.15859 12.4604 3.92428L10.8847 2.34854L9.30893 3.92428C9.07462 4.15859 8.69472 4.15859 8.4604 3.92428L6.88467 2.34854L5.30893 3.92428C5.07821 4.155 4.7054 4.15905 4.46972 3.93339L3.48467 2.99024V13.9ZM10.6934 17.9C10.4347 17.4959 10.2847 17.0155 10.2847 16.5V15.1H2.88467H1.48467V16.5C1.48467 17.2732 2.11147 17.9 2.88467 17.9H10.6934ZM5.28467 6.50001C5.28467 6.16864 5.5533 5.90001 5.88467 5.90001H9.88467C10.216 5.90001 10.4847 6.16864 10.4847 6.50001C10.4847 6.83138 10.216 7.10001 9.88467 7.10001H5.88467C5.5533 7.10001 5.28467 6.83138 5.28467 6.50001ZM5.88467 8.90001C5.5533 8.90001 5.28467 9.16864 5.28467 9.50001C5.28467 9.83138 5.5533 10.1 5.88467 10.1H11.8847C12.216 10.1 12.4847 9.83138 12.4847 9.50001C12.4847 9.16864 12.216 8.90001 11.8847 8.90001H5.88467Z" fill="#295FCC"/>
</svg>
