<svg width="24" height="24" viewBox="0 0 24 24" fill="none" xmlns="http://www.w3.org/2000/svg">
<path fill-rule="evenodd" clip-rule="evenodd" d="M13 1.25C10.6975 1.25 8.56257 1.41316 7.14782 1.55393C5.7582 1.69221 4.75 2.86978 4.75 4.23459V6.5C4.75 6.77614 4.97386 7 5.25 7H5.75C6.02614 7 6.25 6.77614 6.25 6.5V4.23459C6.25 3.6088 6.70516 3.10539 7.29635 3.04656C8.68089 2.90879 10.7632 2.75 13 2.75C15.3196 2.75 17.4729 2.92076 18.854 3.06172C19.4068 3.11813 19.8379 3.56073 19.8819 4.13175C20.0298 6.05534 20.25 9.36418 20.25 12C20.25 14.6358 20.0298 17.9447 19.8819 19.8682C19.8379 20.4393 19.4068 20.8819 18.854 20.9383C17.4729 21.0792 15.3196 21.25 13 21.25C10.7632 21.25 8.68089 21.0912 7.29635 20.9534C6.70516 20.8946 6.25 20.3912 6.25 19.7654V17.5C6.25 17.2239 6.02614 17 5.75 17H5.25C4.97386 17 4.75 17.2239 4.75 17.5V19.7654C4.75 21.1302 5.7582 22.3078 7.14783 22.4461C8.56257 22.5868 10.6975 22.75 13 22.75C15.3874 22.75 17.5949 22.5746 19.0063 22.4305C20.298 22.2987 21.2792 21.2608 21.3774 19.9833C21.5258 18.055 21.75 14.6974 21.75 12C21.75 9.30263 21.5258 5.94501 21.3774 4.01671C21.2792 2.73918 20.298 1.70129 19.0063 1.56947C17.5949 1.42542 15.3874 1.25 13 1.25ZM13 6.25C11.2051 6.25 9.75 7.70507 9.75 9.5C9.75 10.4083 10.1226 11.2297 10.7234 11.8194C10.23 12.0842 9.81322 12.416 9.47487 12.7589C9.08937 13.1496 8.79594 13.5633 8.59526 13.9302C8.49494 14.1137 8.41349 14.2932 8.35533 14.4599C8.30198 14.6128 8.25 14.8056 8.25 15C8.25 15.6265 8.63154 16.2278 9.40372 16.6296C10.1428 17.0143 11.2836 17.25 13 17.25C14.7164 17.25 15.8572 17.0143 16.5963 16.6296C17.3685 16.2278 17.75 15.6265 17.75 15C17.75 14.8056 17.698 14.6128 17.6447 14.4599C17.5865 14.2932 17.5051 14.1137 17.4047 13.9302C17.2041 13.5633 16.9106 13.1496 16.5251 12.7589C16.1868 12.416 15.77 12.0842 15.2766 11.8194C15.8774 11.2297 16.25 10.4083 16.25 9.5C16.25 7.70507 14.7949 6.25 13 6.25ZM10.5426 13.8125C11.1088 13.2386 11.9268 12.75 13 12.75C14.0732 12.75 14.8912 13.2386 15.4574 13.8125C15.7415 14.1004 15.9524 14.4009 16.0887 14.65C16.1569 14.7747 16.2021 14.8786 16.2284 14.9541C16.2374 14.9798 16.243 14.9988 16.2464 15.0116C16.2288 15.0572 16.1588 15.1663 15.9038 15.299C15.4763 15.5215 14.617 15.75 13 15.75C11.383 15.75 10.5237 15.5215 10.0962 15.299C9.84118 15.1663 9.7712 15.0572 9.7536 15.0116C9.75701 14.9988 9.76261 14.9798 9.77158 14.9541C9.79794 14.8786 9.84311 14.7747 9.91128 14.65C10.0476 14.4009 10.2585 14.1004 10.5426 13.8125ZM14.75 9.5C14.75 10.4665 13.9665 11.25 13 11.25C12.0335 11.25 11.25 10.4665 11.25 9.5C11.25 8.5335 12.0335 7.75 13 7.75C13.9665 7.75 14.75 8.5335 14.75 9.5ZM6.5 8.75C6.5 8.47386 6.27614 8.25 6 8.25H4C3.72386 8.25 3.5 8.47386 3.5 8.75V9.25C3.5 9.52614 3.72386 9.75 4 9.75H6C6.27614 9.75 6.5 9.52614 6.5 9.25V8.75ZM3.5 11.75C3.5 11.4739 3.72386 11.25 4 11.25H6C6.27614 11.25 6.5 11.4739 6.5 11.75V12.25C6.5 12.5261 6.27614 12.75 6 12.75H4C3.72386 12.75 3.5 12.5261 3.5 12.25V11.75ZM6 14.25C6.27614 14.25 6.5 14.4739 6.5 14.75V15.25C6.5 15.5261 6.27614 15.75 6 15.75H4C3.72386 15.75 3.5 15.5261 3.5 15.25V14.75C3.5 14.4739 3.72386 14.25 4 14.25H6ZM9.75 15.0007L9.75 15C9.75 14.984 9.74593 14.9852 9.7498 15L9.75 15.0007ZM16.25 15.0007L16.2502 15C16.2541 14.9852 16.25 14.984 16.25 15V15.0007Z" fill="#7A8599"/>
</svg>
