<svg width="40" height="40" viewBox="0 0 40 40" fill="none" xmlns="http://www.w3.org/2000/svg">
<circle cx="20" cy="20" r="20" fill="#B336B3"/>
<path fill-rule="evenodd" clip-rule="evenodd" d="M17.5 13.3334C17.8871 13.3334 18.2619 13.3862 18.6175 13.4849C19.2237 11.9327 20.733 10.8334 22.5 10.8334C24.8011 10.8334 26.6666 12.6989 26.6666 15C26.6666 16.1913 26.1667 17.2659 25.3651 18.0253C25.8653 18.2085 26.3488 18.4386 26.7932 18.7141C28.0778 19.5103 29.1667 20.7796 29.1667 22.5C29.1667 22.8546 29.1003 23.2576 28.871 23.6502C28.6414 24.0432 28.2874 24.3598 27.8212 24.6066C27.0391 25.0207 25.8625 25.2791 24.14 25.3748C24.0994 25.6501 24.0072 25.9396 23.8276 26.2211C23.5659 26.6315 23.1657 26.9516 22.6436 27.1948C21.6358 27.6643 20.0218 27.9167 17.5 27.9167C14.9782 27.9167 13.3642 27.6643 12.3564 27.1948C11.8343 26.9515 11.4341 26.6315 11.1724 26.2211C10.9089 25.8079 10.8333 25.3777 10.8333 25C10.8333 23.2796 11.9222 22.0103 13.2068 21.2141C13.6512 20.9386 14.1347 20.7085 14.6349 20.5253C13.8333 19.7659 13.3333 18.6914 13.3333 17.5C13.3333 15.1989 15.1988 13.3334 17.5 13.3334ZM20.3651 20.5253C20.8652 20.7085 21.3487 20.9386 21.7932 21.2141C22.7339 21.7972 23.5697 22.634 23.9497 23.7158C25.6406 23.6291 26.5597 23.3887 27.0414 23.1337C27.2926 23.0007 27.3896 22.8819 27.4317 22.8097C27.4742 22.7371 27.5001 22.6448 27.5001 22.5C27.5001 21.5689 26.9222 20.7549 25.9152 20.1307C24.9088 19.5069 23.6041 19.1667 22.5 19.1667C22.1096 19.1667 21.689 19.2094 21.2615 19.2946C21.0396 19.7588 20.7344 20.1755 20.3651 20.5253ZM21.6643 17.3572C21.622 16.1035 21.0259 14.9902 20.1129 14.2543C20.43 13.238 21.3793 12.5 22.5 12.5C23.8807 12.5 25 13.6193 25 15C25 16.3808 23.8807 17.5 22.5 17.5C22.2061 17.5 21.9251 17.4497 21.6643 17.3572ZM17.5 15C16.1193 15 15 16.1193 15 17.5C15 18.8808 16.1193 20 17.5 20C18.8807 20 20 18.8808 20 17.5C20 16.1193 18.8807 15 17.5 15ZM12.5 25C12.5 24.0689 13.0778 23.2549 14.0849 22.6307C15.0912 22.0069 16.3959 21.6667 17.5 21.6667C18.604 21.6667 19.9087 22.0069 20.9151 22.6307C21.9222 23.2549 22.5 24.0689 22.5 25C22.5 25.1526 22.4714 25.248 22.4224 25.325C22.3716 25.4046 22.251 25.5391 21.9397 25.6841C21.2809 25.991 19.9782 26.25 17.5 26.25C15.0218 26.25 13.7192 25.991 13.0603 25.6841C12.7491 25.5391 12.6284 25.4046 12.5776 25.3249C12.5286 25.248 12.5 25.1526 12.5 25Z" fill="white"/>
</svg>
