<svg width="18" height="14" viewBox="0 0 18 14" fill="none" xmlns="http://www.w3.org/2000/svg">
<path fill-rule="evenodd" clip-rule="evenodd" d="M15.7324 1H17.5C17.7761 1 18 1.22386 18 1.5V2.51562C18 2.79177 17.7761 3.01562 17.5 3.01562H15.7233C15.3753 3.6048 14.7338 4 14 4C13.2662 4 12.6247 3.6048 12.2767 3.01562H0.5C0.223858 3.01562 0 2.79177 0 2.51562V1.5C0 1.22386 0.223858 1 0.5 1H12.2676C12.6134 0.402199 13.2597 0 14 0C14.7403 0 15.3866 0.402199 15.7324 1ZM0 7.48438C0 7.76052 0.223858 7.98438 0.5 7.98438H2.25862C2.60215 8.59078 3.25329 9 4 9C4.74671 9 5.39785 8.59078 5.74138 7.98438H17.5C17.7761 7.98438 18 7.76052 18 7.48438V6.51562C18 6.23948 17.7761 6.01562 17.5 6.01562H5.74138C5.39785 5.40922 4.74671 5 4 5C3.25329 5 2.60215 5.40922 2.25862 6.01562H0.5C0.223858 6.01562 0 6.23948 0 6.51562V7.48438ZM0 12.5C0 12.7761 0.223858 13 0.5 13H10.2676C10.6134 13.5978 11.2597 14 12 14C12.7403 14 13.3866 13.5978 13.7324 13H17.5C17.7761 13 18 12.7761 18 12.5V11.4844C18 11.2082 17.7761 10.9844 17.5 10.9844H13.7233C13.3753 10.3952 12.7338 10 12 10C11.2662 10 10.6247 10.3952 10.2767 10.9844H0.5C0.223858 10.9844 0 11.2082 0 11.4844V12.5Z" fill="#295FCC"/>
</svg>
