<svg width="16" height="16" viewBox="0 0 16 16" fill="none" xmlns="http://www.w3.org/2000/svg">
<path fill-rule="evenodd" clip-rule="evenodd" d="M4.1235 11.9664C4.09269 11.9415 4.0644 11.9135 4.03908 11.883C4.0047 11.8417 3.97673 11.7968 3.95518 11.7497C3.92031 11.6737 3.90088 11.5891 3.90088 11.4999V4.49994C3.90088 4.16857 4.16951 3.89994 4.50088 3.89994C4.83225 3.89994 5.10088 4.16857 5.10088 4.49994V10.0514L11.0766 4.07564C11.3109 3.84132 11.6908 3.84132 11.9251 4.07564C12.1595 4.30995 12.1595 4.68985 11.9251 4.92417L5.94937 10.8999H11.5009C11.8322 10.8999 12.1009 11.1686 12.1009 11.4999C12.1009 11.8313 11.8322 12.0999 11.5009 12.0999H4.50088C4.40393 12.0999 4.31236 12.0769 4.23131 12.0361C4.19355 12.0171 4.15737 11.9939 4.1235 11.9664Z" fill="#47B347"/>
</svg>
