<svg width="40" height="40" viewBox="0 0 40 40" fill="none" xmlns="http://www.w3.org/2000/svg">
<circle cx="20" cy="20" r="20" fill="#2E6BE6"/>
<path d="M11.9109 14.4107C12.2363 14.0852 12.764 14.0852 13.0894 14.4107L20.0002 21.3214L21.9103 19.4113C21.9101 19.4114 21.9105 19.4111 21.9103 19.4113C21.9105 19.4111 21.9113 19.4103 21.9115 19.4101L26.9109 14.4107C27.2363 14.0852 27.764 14.0852 28.0894 14.4107C28.4149 14.7361 28.4149 15.2637 28.0894 15.5892L23.6787 19.9999L28.0894 24.4107C28.4149 24.7361 28.4149 25.2637 28.0894 25.5892C27.764 25.9146 27.2363 25.9146 26.9109 25.5892L22.5002 21.1784L20.5894 23.0892C20.264 23.4146 19.7363 23.4146 19.4109 23.0892L17.5002 21.1784L13.0894 25.5892C12.764 25.9146 12.2363 25.9146 11.9109 25.5892C11.5855 25.2637 11.5855 24.7361 11.9109 24.4107L16.3217 19.9999L11.9109 15.5892C11.5855 15.2637 11.5855 14.7361 11.9109 14.4107Z" fill="white"/>
<path fill-rule="evenodd" clip-rule="evenodd" d="M11.7147 11.3079C13.29 11.0776 15.9219 10.8333 20.0002 10.8333C24.0784 10.8333 26.7103 11.0776 28.2856 11.3079C29.8114 11.5309 30.9739 12.6683 31.2306 14.1886C31.4491 15.4836 31.6668 17.4209 31.6668 19.9999C31.6668 22.579 31.4491 24.5162 31.2306 25.8112C30.9739 27.3315 29.8114 28.469 28.2856 28.692C26.7103 28.9222 24.0784 29.1666 20.0002 29.1666C15.9219 29.1666 13.29 28.9222 11.7147 28.692C10.1889 28.469 9.02639 27.3315 8.76977 25.8112C8.55118 24.5162 8.3335 22.579 8.3335 19.9999C8.3335 17.4209 8.55118 15.4836 8.76977 14.1886C9.02639 12.6683 10.1889 11.5309 11.7147 11.3079ZM20.0002 12.4999C15.9867 12.4999 13.437 12.7405 11.9557 12.957C11.1457 13.0754 10.5495 13.6586 10.4132 14.466C10.2099 15.6707 10.0002 17.5151 10.0002 19.9999C10.0002 22.4847 10.2099 24.3292 10.4132 25.5338C10.5495 26.3412 11.1457 26.9244 11.9557 27.0428C13.437 27.2593 15.9867 27.4999 20.0002 27.4999C24.0136 27.4999 26.5634 27.2593 28.0446 27.0428C28.8547 26.9244 29.4509 26.3412 29.5871 25.5338C29.7905 24.3292 30.0002 22.4847 30.0002 19.9999C30.0002 17.5151 29.7905 15.6707 29.5871 14.466C29.4509 13.6586 28.8547 13.0754 28.0446 12.957C26.5634 12.7405 24.0136 12.4999 20.0002 12.4999Z" fill="white"/>
</svg>
