<svg width="24" height="24" viewBox="0 0 24 24" fill="none" xmlns="http://www.w3.org/2000/svg">
<path d="M4.71967 6.71994C5.01256 6.42705 5.48744 6.42705 5.78033 6.71994L12 12.9396L13.7191 11.2205C13.719 11.2207 13.7193 11.2203 13.7191 11.2205C13.7193 11.2203 13.72 11.2196 13.7202 11.2194L18.2197 6.71994C18.5126 6.42705 18.9874 6.42705 19.2803 6.71994C19.5732 7.01284 19.5732 7.48771 19.2803 7.7806L15.3107 11.7503L19.2803 15.7199C19.5732 16.0128 19.5732 16.4877 19.2803 16.7806C18.9874 17.0735 18.5126 17.0735 18.2197 16.7806L14.25 12.8109L12.5303 14.5306C12.2374 14.8235 11.7626 14.8235 11.4697 14.5306L9.75 12.8109L5.78033 16.7806C5.48744 17.0735 5.01256 17.0735 4.71967 16.7806C4.42678 16.4877 4.42678 16.0128 4.71967 15.7199L8.68934 11.7503L4.71967 7.7806C4.42678 7.48771 4.42678 7.01284 4.71967 6.71994Z" fill="#7A8599"/>
<path fill-rule="evenodd" clip-rule="evenodd" d="M4.54309 3.92744C5.96088 3.72022 8.32959 3.50027 12 3.50027C15.6704 3.50027 18.0391 3.72022 19.4569 3.92744C20.8301 4.12815 21.8764 5.15182 22.1074 6.52012C22.3041 7.6856 22.5 9.42913 22.5 11.7503C22.5 14.0714 22.3041 15.8149 22.1074 16.9804C21.8764 18.3487 20.8301 19.3724 19.4569 19.5731C18.0391 19.7803 15.6704 20.0003 12 20.0003C8.32959 20.0003 5.96089 19.7803 4.54309 19.5731C3.16989 19.3724 2.12361 18.3487 1.89264 16.9804C1.69592 15.8149 1.5 14.0714 1.5 11.7503C1.5 9.42913 1.69592 7.6856 1.89264 6.52012C2.12361 5.15182 3.16989 4.12815 4.54309 3.92744ZM12 5.00027C8.38791 5.00027 6.09312 5.21683 4.76002 5.41167C4.03094 5.51823 3.49438 6.04311 3.37172 6.76978C3.18872 7.85394 3 9.51396 3 11.7503C3 13.9866 3.18872 15.6466 3.37172 16.7308C3.49438 17.4574 4.03094 17.9823 4.76002 18.0889C6.09312 18.2837 8.38791 18.5003 12 18.5003C15.6121 18.5003 17.9069 18.2837 19.24 18.0889C19.9691 17.9823 20.5056 17.4574 20.6283 16.7308C20.8113 15.6466 21 13.9866 21 11.7503C21 9.51396 20.8113 7.85394 20.6283 6.76978C20.5056 6.04311 19.9691 5.51823 19.24 5.41167C17.9069 5.21683 15.6121 5.00027 12 5.00027Z" fill="#7A8599"/>
</svg>
