<svg width="160" height="160" viewBox="0 0 160 160" fill="none" xmlns="http://www.w3.org/2000/svg">
<path d="M0 80C0 35.8172 35.8172 0 80 0C124.183 0 160 35.8172 160 80C160 124.183 124.183 160 80 160C35.8172 160 0 124.183 0 80Z" fill="#C3CAD9"/>
<path opacity="0.6" d="M116 62C116 81.8823 99.8823 98 80 98C60.1177 98 44 81.8823 44 62C44 42.1177 60.1177 26 80 26C99.8823 26 116 42.1177 116 62Z" fill="#E0E6ED"/>
<path opacity="0.6" d="M146.34 160H13.6592C17.3624 132.161 36.3014 109.508 61.2514 101.817C66.939 104.5 73.2942 106 79.9998 106C86.7054 106 93.0606 104.5 98.7482 101.817C123.698 109.508 142.637 132.161 146.34 160Z" fill="#E0E6ED"/>
<path d="M101.243 67.7581C100.071 66.5863 98.6571 66.0003 97.0007 66.0003H91.7507L90.5556 62.813C90.2586 62.0475 89.7159 61.3872 88.9264 60.8322C88.1372 60.2776 87.3287 60 86.5005 60H74.5002C73.672 60 72.8633 60.2776 72.0742 60.8322C71.285 61.3872 70.7423 62.0475 70.4453 62.813L69.2501 66.0003H64C62.3435 66.0003 60.9297 66.5863 59.7577 67.7581C58.5859 68.93 58 70.3439 58 72.0003V93.0005C58 94.657 58.5859 96.0711 59.7577 97.2426C60.9297 98.4147 62.3436 99.0007 64 99.0007H97.0001C98.6565 99.0007 100.07 98.4147 101.242 97.2426C102.414 96.0711 103 94.657 103 93.0005V72.0003C103 70.3439 102.414 68.93 101.243 67.7581ZM87.9181 89.9187C85.8634 91.9735 83.391 93.0011 80.5001 93.0011C77.6093 93.0011 75.137 91.9735 73.0821 89.9187C71.0273 87.8643 70.0001 85.3912 70.0001 82.501C70.0001 79.6099 71.0276 77.1377 73.0821 75.0829C75.1367 73.028 77.6093 72.0008 80.5001 72.0008C83.3909 72.0008 85.8634 73.0283 87.9181 75.0829C89.9729 77.1375 91.0003 79.6099 91.0003 82.501C91.0003 85.3912 89.973 87.864 87.9181 89.9187Z" fill="white"/>
</svg>
