<svg width="24" height="25" viewBox="0 0 24 25" fill="none" xmlns="http://www.w3.org/2000/svg">
<path fill-rule="evenodd" clip-rule="evenodd" d="M12.5648 3.97755C12.2244 3.74463 11.7759 3.74463 11.4355 3.97755L2.30111 10.2274C1.81789 10.558 1.72083 11.2312 2.09097 11.6848L3.69543 13.6513C3.842 13.831 4.03893 13.9471 4.25013 13.9946V20.25C4.25013 20.8023 4.69784 21.25 5.25013 21.25H9.75013C10.3024 21.25 10.7501 20.8023 10.7501 20.25V15.75H13.2501V20.25C13.2501 20.8023 13.6978 21.25 14.2501 21.25H18.7501C19.3024 21.25 19.7501 20.8023 19.7501 20.25V13.9946C19.9613 13.9471 20.1582 13.831 20.3048 13.6513L21.9093 11.6848C22.2794 11.2312 22.1824 10.558 21.6991 10.2274L12.5648 3.97755ZM5.76726 13.3318L12.0001 8.96746L18.233 13.3318C18.2442 13.3604 18.2501 13.3912 18.2501 13.4227V19.75H14.7501V15.25C14.7501 14.6977 14.3024 14.25 13.7501 14.25H10.2501C9.69784 14.25 9.25013 14.6977 9.25013 15.25V19.75H5.75013V13.4227C5.75013 13.3912 5.75608 13.3604 5.76726 13.3318ZM19.2918 12.242L19.4363 12.3431L20.4031 11.1581L12.0001 5.40869L3.59714 11.1581L4.564 12.3431L4.70841 12.242C4.79397 12.1484 4.89031 12.0635 4.99637 11.9892L11.2831 7.58715C11.4416 7.47622 11.6193 7.40612 11.8021 7.37684C11.9328 7.35048 12.0676 7.35048 12.1983 7.37686C12.381 7.40615 12.5587 7.47625 12.7171 7.58715L19.0039 11.9892C19.1099 12.0635 19.2063 12.1484 19.2918 12.242Z" fill="#7A8599"/>
</svg>
