<svg width="40" height="40" viewBox="0 0 40 40" fill="none" xmlns="http://www.w3.org/2000/svg">
<circle cx="20" cy="20" r="20" fill="#FF9933"/>
<path fill-rule="evenodd" clip-rule="evenodd" d="M15 21.0417C15 18.2803 17.2386 16.0417 20 16.0417C22.7614 16.0417 25 18.2803 25 21.0417C25 23.8031 22.7614 26.0417 20 26.0417C17.2386 26.0417 15 23.8031 15 21.0417ZM20 17.7084C18.159 17.7084 16.6667 19.2007 16.6667 21.0417C16.6667 22.8826 18.159 24.375 20 24.375C21.8409 24.375 23.3333 22.8826 23.3333 21.0417C23.3333 19.2007 21.8409 17.7084 20 17.7084Z" fill="white"/>
<path fill-rule="evenodd" clip-rule="evenodd" d="M15.0424 12.6536C15.0613 12.5969 15.0867 12.5413 15.1187 12.4879L16.1957 10.6929C16.6475 9.93993 17.4613 9.47919 18.3395 9.47919H21.6605C22.5387 9.47919 23.3524 9.93993 23.8042 10.6929L24.8812 12.4879C24.9133 12.5413 24.9386 12.5969 24.9576 12.6536C26.0098 12.7265 26.8496 12.8171 27.5058 12.9069C29.0334 13.1158 30.2101 14.2455 30.461 15.7752C30.6525 16.9423 30.8333 18.6285 30.8333 20.8334C30.8333 23.0382 30.6525 24.7244 30.461 25.8916C30.2101 27.4212 29.0334 28.5509 27.5058 28.7598C26.0347 28.961 23.6411 29.1667 20 29.1667C16.3589 29.1667 13.9653 28.961 12.4941 28.7598C10.9666 28.5509 9.78987 27.4212 9.53895 25.8916C9.3475 24.7244 9.16666 23.0382 9.16666 20.8334C9.16666 18.6285 9.3475 16.9423 9.53895 15.7752C9.78987 14.2455 10.9666 13.1158 12.4941 12.9069C13.1504 12.8171 13.9902 12.7265 15.0424 12.6536ZM17.6249 11.5504C17.7755 11.2994 18.0468 11.1459 18.3395 11.1459H21.6605C21.9532 11.1459 22.2245 11.2994 22.3751 11.5504L22.9753 12.5508C22.092 12.5189 21.1033 12.5 20 12.5C18.8967 12.5 17.9079 12.5189 17.0247 12.5508L17.6249 11.5504ZM20 14.1667C16.4201 14.1667 14.1033 14.369 12.72 14.5582C11.909 14.6691 11.3148 15.2455 11.1836 16.0449C11.0066 17.1241 10.8333 18.7201 10.8333 20.8334C10.8333 22.9466 11.0066 24.5426 11.1836 25.6218C11.3148 26.4212 11.909 26.9976 12.72 27.1085C14.1033 27.2977 16.4201 27.5 20 27.5C23.5799 27.5 25.8967 27.2977 27.28 27.1085C28.0909 26.9976 28.6852 26.4212 28.8163 25.6218C28.9934 24.5426 29.1667 22.9466 29.1667 20.8334C29.1667 18.7201 28.9934 17.1241 28.8163 16.0449C28.6852 15.2455 28.0909 14.6691 27.28 14.5582C25.8967 14.369 23.5799 14.1667 20 14.1667Z" fill="white"/>
</svg>
