<svg width="24" height="24" viewBox="0 0 24 24" fill="none" xmlns="http://www.w3.org/2000/svg">
<path fill-rule="evenodd" clip-rule="evenodd" d="M7.5 13.4063C7.5 10.9211 9.51472 8.90634 12 8.90634C14.4853 8.90634 16.5 10.9211 16.5 13.4063C16.5 15.8916 14.4853 17.9063 12 17.9063C9.51472 17.9063 7.5 15.8916 7.5 13.4063ZM12 10.4063C10.3431 10.4063 9 11.7495 9 13.4063C9 15.0632 10.3431 16.4063 12 16.4063C13.6569 16.4063 15 15.0632 15 13.4063C15 11.7495 13.6569 10.4063 12 10.4063Z" fill="#7A8599"/>
<path fill-rule="evenodd" clip-rule="evenodd" d="M7.53818 5.85708C7.55522 5.80603 7.57804 5.75603 7.60688 5.70797L8.57618 4.09248C8.9828 3.41476 9.71519 3.00009 10.5055 3.00009H13.4945C14.2848 3.00009 15.0172 3.41476 15.4238 4.09248L16.3931 5.70797C16.422 5.75603 16.4448 5.80603 16.4618 5.85708C17.4088 5.92267 18.1646 6.00425 18.7553 6.08503C20.1301 6.27306 21.1891 7.28974 21.4149 8.66646C21.5872 9.7169 21.75 11.2345 21.75 13.2188C21.75 15.2032 21.5872 16.7208 21.4149 17.7712C21.1891 19.1479 20.1301 20.1646 18.7553 20.3527C17.4312 20.5337 15.277 20.7188 12 20.7188C8.72303 20.7188 6.56878 20.5337 5.24473 20.3527C3.86992 20.1646 2.81089 19.1479 2.58507 17.7712C2.41276 16.7208 2.25 15.2032 2.25 13.2188C2.25 11.2345 2.41276 9.7169 2.58507 8.66646C2.81089 7.28974 3.86992 6.27306 5.24473 6.08503C5.83536 6.00425 6.59119 5.92267 7.53818 5.85708ZM9.86242 4.86422C9.99796 4.63832 10.2421 4.50009 10.5055 4.50009H13.4945C13.7579 4.50009 14.002 4.63832 14.1376 4.86422L14.6778 5.76457C13.8829 5.73584 12.993 5.71884 12 5.71884C11.007 5.71884 10.1171 5.73584 9.32221 5.76457L9.86242 4.86422ZM12 7.21884C8.7781 7.21884 6.69299 7.40091 5.44799 7.57119C4.71815 7.67101 4.18331 8.18975 4.06529 8.90926C3.90597 9.88051 3.75 11.3169 3.75 13.2188C3.75 15.1208 3.90597 16.5572 4.06529 17.5284C4.18331 18.2479 4.71815 18.7667 5.44799 18.8665C6.69299 19.0368 8.7781 19.2188 12 19.2188C15.2219 19.2188 17.307 19.0368 18.552 18.8665C19.2818 18.7667 19.8167 18.2479 19.9347 17.5284C20.094 16.5572 20.25 15.1208 20.25 13.2188C20.25 11.3169 20.094 9.88051 19.9347 8.90926C19.8167 8.18975 19.2818 7.67101 18.552 7.57119C17.307 7.40091 15.2219 7.21884 12 7.21884Z" fill="#7A8599"/>
</svg>
