<svg width="14" height="14" viewBox="0 0 14 14" fill="none" xmlns="http://www.w3.org/2000/svg">
<path d="M13.6679 0H12.3518C12.1615 0 12.0099 0.159139 12.019 0.349278L12.1291 2.64814C10.8665 1.16386 8.98593 0.222222 6.88535 0.222222C3.09171 0.222222 -0.00182524 3.32017 0.000978467 7.11631C0.00378217 10.9186 3.08494 14 6.88532 14C8.65987 14 10.2776 13.3281 11.4983 12.2248C11.6403 12.0965 11.6469 11.8759 11.5117 11.7405L10.5687 10.7969C10.4447 10.6728 10.2456 10.6659 10.114 10.7818C9.25342 11.5402 8.12356 12 6.88532 12C4.18524 12 1.99966 9.81344 1.99966 7.11111C1.99966 4.40925 4.18477 2.22222 6.88532 2.22222C8.57564 2.22222 10.0639 3.07939 10.9409 4.38333L8.12267 4.24819C7.93265 4.23908 7.77362 4.39078 7.77362 4.58114V5.89811C7.77362 6.08219 7.92277 6.23144 8.10673 6.23144H13.6679C13.8518 6.23144 14.001 6.08219 14.001 5.89811V0.333333C14.001 0.14925 13.8518 0 13.6679 0Z" fill="#295FCC"/>
</svg>
