<svg width="16" height="16" viewBox="0 0 16 16" fill="none" xmlns="http://www.w3.org/2000/svg">
<path fill-rule="evenodd" clip-rule="evenodd" d="M11.5009 3.8999L4.50089 3.8999C4.16952 3.8999 3.90089 4.16853 3.90089 4.4999C3.90089 4.83127 4.16952 5.0999 4.50089 5.0999L10.0524 5.0999L4.07661 11.0758C3.8423 11.3101 3.8423 11.69 4.07662 11.9243C4.31093 12.1586 4.69083 12.1586 4.92515 11.9243L10.9009 5.94846V11.5C10.9009 11.8313 11.1695 12.1 11.5009 12.1C11.8322 12.1 12.1009 11.8313 12.1009 11.5V4.5006C12.1009 4.50036 12.1009 4.50013 12.1009 4.4999C12.1009 4.48552 12.1004 4.47119 12.0993 4.45693C12.0897 4.32292 12.0353 4.1958 11.9447 4.0962C11.9384 4.08921 11.9319 4.08235 11.9251 4.07564C11.918 4.06851 11.9107 4.06158 11.9033 4.05485C11.8059 3.96663 11.6865 3.91608 11.5639 3.90322C11.543 3.90102 11.522 3.8999 11.5009 3.8999Z" fill="#2E6BE6"/>
</svg>
