<svg width="40" height="40" viewBox="0 0 40 40" fill="none" xmlns="http://www.w3.org/2000/svg">
<circle cx="20" cy="20" r="20" fill="#3FCC6F"/>
<path fill-rule="evenodd" clip-rule="evenodd" d="M25.2362 10.1497C24.8982 9.33836 23.9883 8.9289 23.1569 9.21403L12.2295 12.9617C12.1302 12.9958 12.0414 13.0468 11.9654 13.1103C10.7099 13.5482 9.73742 14.5978 9.51447 16.0004C9.3307 17.1565 9.1665 18.7676 9.1665 20.8333C9.1665 22.8991 9.3307 24.5102 9.51447 25.6663C9.78264 27.3534 11.1353 28.5297 12.7604 28.7452C14.2929 28.9485 16.5533 29.1667 19.2004 29.1667C21.8475 29.1667 24.1079 28.9485 25.6404 28.7452C27.2656 28.5297 28.6182 27.3529 28.8864 25.6659C28.9794 25.0808 29.0674 24.379 29.1316 23.5608C29.6633 23.1023 29.9998 22.4238 29.9998 21.6667V20C29.9998 19.2429 29.6633 18.5644 29.1316 18.1059C29.0674 17.2876 28.9794 16.5859 28.8864 16.0008C28.6658 14.6132 27.7116 13.5708 26.4753 13.1245L25.2362 10.1497ZM24.5296 12.7879L23.6976 10.7906L18.7059 12.5025C18.8691 12.5009 19.034 12.5 19.2004 12.5C21.2665 12.5 23.097 12.6329 24.5296 12.7879ZM19.2004 14.1667C16.6422 14.1667 14.4567 14.3777 12.9796 14.5736C12.0158 14.7015 11.3023 15.3699 11.1605 16.262C10.9903 17.3327 10.8332 18.8563 10.8332 20.8333C10.8332 22.8104 10.9903 24.334 11.1605 25.4046C11.3023 26.2968 12.0158 26.9652 12.9796 27.0931C14.4567 27.289 16.6422 27.5 19.2004 27.5C21.7585 27.5 23.944 27.289 25.4212 27.0931C26.3849 26.9652 27.0986 26.2965 27.2404 25.4042C27.2977 25.0432 27.3536 24.6307 27.4025 24.1667H24.1665C22.7858 24.1667 21.6665 23.0474 21.6665 21.6667V20C21.6665 18.6193 22.7858 17.5 24.1665 17.5H27.4025C27.3536 17.036 27.2977 16.6235 27.2404 16.2624C27.0986 15.3702 26.3849 14.7015 25.4212 14.5736C23.944 14.3777 21.7585 14.1667 19.2004 14.1667ZM24.1665 19.1667C23.7063 19.1667 23.3332 19.5398 23.3332 20V21.6667C23.3332 22.1269 23.7063 22.5 24.1665 22.5H27.4998C27.9601 22.5 28.3332 22.1269 28.3332 21.6667V20C28.3332 19.5398 27.9601 19.1667 27.4998 19.1667H24.1665Z" fill="white"/>
</svg>
