<svg width="24" height="24" viewBox="0 0 24 24" fill="none" xmlns="http://www.w3.org/2000/svg">
<path fill-rule="evenodd" clip-rule="evenodd" d="M17.2127 3.17371C16.9085 2.44352 16.0896 2.07502 15.3414 2.33163L5.50668 5.70457C5.4173 5.73522 5.33745 5.78108 5.26903 5.83826C4.13908 6.23242 3.26383 7.17699 3.06317 8.43937C2.89777 9.47986 2.75 10.9299 2.75 12.789C2.75 14.6482 2.89777 16.0982 3.06317 17.1387C3.30452 18.6571 4.52189 19.7157 5.98452 19.9097C7.36373 20.0927 9.39811 20.289 11.7805 20.289C14.1629 20.289 16.1973 20.0927 17.5765 19.9097C19.0392 19.7157 20.2566 18.6566 20.4979 17.1383C20.5816 16.6117 20.6608 15.9801 20.7186 15.2437C21.1971 14.8311 21.5 14.2204 21.5 13.539V12.039C21.5 11.3576 21.1971 10.7469 20.7186 10.3343C20.6608 9.59789 20.5816 8.96635 20.4979 8.43976C20.2994 7.19089 19.4406 6.25271 18.328 5.85107L17.2127 3.17371ZM16.5768 5.54811L15.828 3.7505L11.3354 5.29129C11.4824 5.28979 11.6307 5.28901 11.7805 5.28901C13.64 5.28901 15.2874 5.40862 16.5768 5.54811ZM11.7805 6.78901C9.47814 6.78901 7.5112 6.97893 6.18176 7.15528C5.31433 7.27034 4.67219 7.87194 4.54457 8.67484C4.3914 9.63844 4.25 11.0097 4.25 12.789C4.25 14.5683 4.3914 15.9396 4.54457 16.9032C4.67219 17.7061 5.31433 18.3077 6.18176 18.4228C7.5112 18.5991 9.47814 18.789 11.7805 18.789C14.0828 18.789 16.0498 18.5991 17.3792 18.4228C18.2465 18.3077 18.8888 17.7058 19.0165 16.9028C19.0681 16.5779 19.1184 16.2066 19.1624 15.789H16.25C15.0074 15.789 14 14.7817 14 13.539V12.039C14 10.7964 15.0074 9.78901 16.25 9.78901H19.1624C19.1184 9.37142 19.0681 9.00015 19.0165 8.6752C18.8888 7.8722 18.2465 7.27032 17.3792 7.15528C16.0498 6.97893 14.0828 6.78901 11.7805 6.78901ZM16.25 11.289C15.8358 11.289 15.5 11.6248 15.5 12.039V13.539C15.5 13.9532 15.8358 14.289 16.25 14.289H19.25C19.6642 14.289 20 13.9532 20 13.539V12.039C20 11.6248 19.6642 11.289 19.25 11.289H16.25Z" fill="#7A8599"/>
</svg>
