<svg width="40" height="40" viewBox="0 0 40 40" fill="none" xmlns="http://www.w3.org/2000/svg">
<circle cx="20" cy="20" r="20" fill="#F23071"/>
<path fill-rule="evenodd" clip-rule="evenodd" d="M13.2793 12.8197C14.6386 12.6585 16.7905 12.5 20 12.5C23.2095 12.5 25.3614 12.6585 26.7207 12.8197C28.2381 12.9997 29.457 14.0933 29.7082 15.6398C29.8647 16.6035 30 17.9182 30 19.5833C30 21.2485 29.8647 22.5632 29.7082 23.5269C29.457 25.0733 28.2381 26.167 26.7207 26.3469C25.4826 26.4938 23.5868 26.6384 20.8333 26.663L20.8333 26.6667V28.3333H25C25.4602 28.3333 25.8333 28.7064 25.8333 29.1667C25.8333 29.6269 25.4602 30 25 30H15C14.5398 30 14.1667 29.6269 14.1667 29.1667C14.1667 28.7064 14.5398 28.3333 15 28.3333H19.1667V26.6667L19.1667 26.663C16.4132 26.6384 14.5174 26.4938 13.2793 26.3469C11.7619 26.167 10.543 25.0733 10.2918 23.5269C10.1353 22.5632 10 21.2485 10 19.5833C10 17.9182 10.1353 16.6035 10.2918 15.6398C10.543 14.0933 11.7619 12.9997 13.2793 12.8197ZM20 14.1667C16.8441 14.1667 14.7588 14.3226 13.4756 14.4748C12.6579 14.5718 12.0628 15.1324 11.9369 15.907C11.7945 16.7836 11.6667 18.0089 11.6667 19.5833C11.6667 21.1578 11.7945 22.3831 11.9369 23.2597C12.0628 24.0343 12.6579 24.5949 13.4756 24.6919C14.7588 24.8441 16.8441 25 20 25C23.1559 25 25.2412 24.8441 26.5244 24.6919C27.3421 24.5949 27.9373 24.0343 28.0631 23.2597C28.2055 22.3831 28.3333 21.1578 28.3333 19.5833C28.3333 18.0089 28.2055 16.7836 28.0631 15.907C27.9373 15.1324 27.3421 14.5718 26.5244 14.4748C25.2412 14.3226 23.1559 14.1667 20 14.1667Z" fill="white"/>
</svg>
