<svg width="14" height="14" viewBox="0 0 14 14" fill="none" xmlns="http://www.w3.org/2000/svg">
<path d="M13.6669 0H12.3508C12.1605 0 12.009 0.159139 12.0181 0.349278L12.1282 2.64814C10.8655 1.16386 8.98495 0.222222 6.88437 0.222222C3.09074 0.222222 -0.0028018 3.32017 1.90426e-06 7.11631C0.00280561 10.9186 3.08396 14 6.88434 14C8.65889 14 10.2766 13.3281 11.4973 12.2248C11.6393 12.0965 11.646 11.8759 11.5107 11.7405L10.5677 10.7969C10.4437 10.6728 10.2446 10.6659 10.113 10.7818C9.25244 11.5402 8.12258 12 6.88434 12C4.18426 12 1.99868 9.81344 1.99868 7.11111C1.99868 4.40925 4.18379 2.22222 6.88434 2.22222C8.57467 2.22222 10.063 3.07939 10.94 4.38333L8.12169 4.24819C7.93168 4.23908 7.77264 4.39078 7.77264 4.58114V5.89811C7.77264 6.08219 7.92179 6.23144 8.10576 6.23144H13.6669C13.8508 6.23144 14 6.08219 14 5.89811V0.333333C14 0.14925 13.8508 0 13.6669 0Z" fill="white"/>
</svg>
