<svg width="56" height="32" viewBox="0 0 56 32" fill="none" xmlns="http://www.w3.org/2000/svg">
<path d="M24.3243 24.6315H19.8601L22.6523 7.42285H27.1163L24.3243 24.6315Z" fill="#2A2B6A"/>
<path d="M40.5076 7.84348C39.6271 7.49529 38.2305 7.11084 36.5036 7.11084C32.095 7.11084 28.9906 9.45402 28.9715 12.8041C28.9349 15.2757 31.1942 16.6485 32.884 17.4727C34.6112 18.3148 35.1983 18.8645 35.1983 19.6151C35.1807 20.768 33.8026 21.2994 32.5173 21.2994C30.735 21.2994 29.78 21.0254 28.3288 20.384L27.7409 20.1091L27.1162 23.972C28.1632 24.4475 30.0923 24.8694 32.095 24.8879C36.7792 24.8879 39.8287 22.581 39.8648 19.011C39.8827 17.052 38.6897 15.5509 36.1176 14.3243C34.5562 13.537 33.6 13.006 33.6 12.2004C33.6183 11.468 34.4088 10.7178 36.1713 10.7178C37.6226 10.6811 38.6889 11.0288 39.4967 11.3767L39.9005 11.5595L40.5076 7.84348Z" fill="#2A2B6A"/>
<path d="M46.4405 18.5351C46.8082 17.5465 48.2229 13.7203 48.2229 13.7203C48.2043 13.757 48.5898 12.7134 48.8102 12.0727L49.1222 13.5555C49.1222 13.5555 49.9676 17.6747 50.1512 18.5351C49.4535 18.5351 47.3223 18.5351 46.4405 18.5351ZM51.951 7.42285H48.498C47.4331 7.42285 46.6241 7.73382 46.1647 8.85066L39.5337 24.6313H44.2178C44.2178 24.6313 44.989 22.5073 45.1548 22.0499C45.6686 22.0499 50.2254 22.0499 50.8864 22.0499C51.0146 22.654 51.4191 24.6313 51.4191 24.6313H55.5525L51.951 7.42285Z" fill="#2A2B6A"/>
<path d="M0.517815 7.42285H7.70029C8.67384 7.45911 9.46381 7.77031 9.72086 8.8694L11.2814 16.7741L11.2824 16.7776L11.7602 19.1575L16.1321 7.42285H20.8526L13.8357 24.6133H9.11491L5.136 9.66059C3.76309 8.86053 2.19621 8.21708 0.444336 7.77056L0.517815 7.42285Z" fill="#2A2B6A"/>
</svg>
