<svg width="24" height="24" viewBox="0 0 24 24" fill="none" xmlns="http://www.w3.org/2000/svg">
<path fill-rule="evenodd" clip-rule="evenodd" d="M4.92973 18.9293C4.73446 18.734 4.73446 18.4175 4.92972 18.2222L18.2226 4.9293C18.4179 4.73403 18.7345 4.73403 18.9297 4.9293L19.0711 5.07072C19.2664 5.26598 19.2664 5.58256 19.0711 5.77782L5.77825 19.0707C5.58299 19.266 5.26641 19.266 5.07115 19.0707L4.92973 18.9293Z" fill="#B8C0CC"/>
<path fill-rule="evenodd" clip-rule="evenodd" d="M5.07027 4.9293C5.26553 4.73404 5.58212 4.73404 5.77738 4.9293L19.0703 18.2222C19.2655 18.4175 19.2655 18.734 19.0703 18.9293L18.9289 19.0707C18.7336 19.266 18.417 19.266 18.2217 19.0707L4.92885 5.77783C4.73359 5.58257 4.73359 5.26598 4.92885 5.07072L5.07027 4.9293Z" fill="#B8C0CC"/>
</svg>
