<svg width="24" height="24" viewBox="0 0 24 24" fill="none" xmlns="http://www.w3.org/2000/svg">
<path fill-rule="evenodd" clip-rule="evenodd" d="M11.3999 11.0515V5.5C11.3999 5.22386 11.6238 5 11.8999 5H12.0999C12.3761 5 12.5999 5.22386 12.5999 5.5V11.0515L14.2221 9.42929C14.4174 9.23403 14.734 9.23403 14.9292 9.42929L15.0707 9.57071C15.2659 9.76597 15.2659 10.0826 15.0707 10.2778L12.3535 12.995C12.1582 13.1902 11.8417 13.1902 11.6464 12.995L8.92924 10.2778C8.73397 10.0826 8.73397 9.76597 8.92924 9.57071L9.07066 9.42929C9.26592 9.23403 9.5825 9.23403 9.77777 9.42929L11.3999 11.0515Z" fill="#AABACD"/>
<path fill-rule="evenodd" clip-rule="evenodd" d="M4.8999 15.5V14.5C4.8999 14.2239 5.12376 14 5.3999 14H5.5999C5.87604 14 6.0999 14.2239 6.0999 14.5V15.5C6.0999 16.2732 6.7267 16.9 7.4999 16.9H16.4999C17.2731 16.9 17.8999 16.2732 17.8999 15.5V14.5C17.8999 14.2239 18.1238 14 18.3999 14H18.5999C18.876 14 19.0999 14.2239 19.0999 14.5V15.5C19.0999 16.9359 17.9358 18.1 16.4999 18.1H7.4999C6.06396 18.1 4.8999 16.9359 4.8999 15.5Z" fill="#AABACD"/>
</svg>
