<svg width="544" height="544" viewBox="0 0 544 544" fill="none" xmlns="http://www.w3.org/2000/svg">
<path d="M515.5 242.5C515.5 146 469.5 48 381 48C343.5 48 304 63.5 278 106C252 148.5 189.5 186 132 186C74.5 186 28 259 28 306.5C28 354 74 495 240 495C406 495 515.5 339 515.5 242.5Z" fill="white"/>
<path d="M120 448.5H105L103 433.5H122L120 448.5Z" fill="#DAE2F2"/>
<path d="M123 433.5H102L101 428.5H124L123 433.5Z" fill="#E6EEFF"/>
<path d="M95.0001 388.5C91.5001 386.5 89.9999 379.5 93 379.5C96.0001 379.5 97.0001 382.5 98 385.5C98 383.5 99 382.5 101 382.5C103 382.5 105 384.5 105 386.5C105 390.5 103.5 392.5 103 394.5C105 393 107 391.5 108 391.5C109 391.5 111 391.5 111 395.5C111 398.5 108 401.5 108 404.5C109 403.167 111 400.5 113 400.5C115 400.5 117 402.5 117 404.5C117 406.5 116 408.5 115 411.5C117 409.5 121 409.5 121 412.5C121 415.5 116 419.5 114 428.5H107C103 419.5 96 421.5 96 417.5C96 413.5 101 416.5 103 414.5C101 412.5 96 411.5 96 409.5C96 407.5 98 406.5 102 406.5C97 404.5 93 403.5 93 400.5C93 398.5 94 397.5 98 397.5C92 395.5 91 392.5 91 391C91 389.5 92.0001 388 95.0001 388.5Z" fill="#FFEA80"/>
<path d="M97 388.5C104 398.5 109 411.5 111 422.5H108C106 411.5 101 398.5 97 388.5Z" fill="black" fill-opacity="0.24"/>
<path d="M126 394.5C129.5 392.5 131 385.5 128 385.5C125 385.5 124 388.5 123 391.5C123 389.5 122 388.5 120 388.5C118 388.5 116 390.5 116 392.5C116 396.5 117.5 398.5 118 400.5C116 399 114 397.5 113 397.5C112 397.5 110 397.5 110 401.5C110 404.5 113 407.5 113 410.5C112 409.167 110 406.5 108 406.5C106 406.5 104 408.5 104 410.5C104 412.5 105 414.5 106 417.5C104 415.5 100 415.5 100 418.5C100 421.5 102 425.5 106 428.5H119C121 427.167 125 425.5 125 423.5C125 419.5 120 422.5 118 420.5C120 418.5 125 417.5 125 415.5C125 413.5 123 412.5 119 412.5C124 410.5 128 409.5 128 406.5C128 404.5 127 403.5 123 403.5C129 401.5 130 398.5 130 397C130 395.5 129 394 126 394.5Z" fill="#99BBFF"/>
<path d="M124 394.5C117 404.5 112 417.5 110 428.5H113C115 417.5 120 404.5 124 394.5Z" fill="black" fill-opacity="0.24"/>
<path d="M424.277 136.218C435.727 134.724 444.5 146.185 440.069 156.848L336.201 406.792C331.77 417.455 317.457 419.322 310.438 410.153L145.915 195.229C138.896 186.06 144.435 172.731 155.885 171.237L424.277 136.218Z" fill="#4285ED"/>
<circle cx="263.273" cy="275.486" r="12" transform="rotate(52.5661 263.273 275.486)" fill="white"/>
<path d="M366.091 215.671C373.108 210.3 375.049 201.051 369.678 194.035C364.307 187.019 354.872 186.478 347.856 191.849C325.436 210.271 305.212 228.271 282.792 246.693C277.53 250.721 276.716 256.851 280.744 262.114C284.772 267.376 290.902 268.19 296.165 264.162C319.8 247.328 342.456 232.505 366.091 215.671Z" fill="white"/>
<path d="M198.039 489.5L193.039 479.5H202.039L205.039 489.5H198.039Z" fill="#E8C0C2"/>
<path d="M215.039 489.5L210.039 479.5H219.039L222.039 489.5H215.039Z" fill="#E8C0C2"/>
<path d="M218.037 488.5C215.037 488.5 214.037 487.5 213.037 487.5C208.037 487.5 210.039 496.5 213.037 496.5H242.037C246.037 496.5 245.039 492.5 241.037 491.5C237.035 490.5 224.037 485.5 223.037 485.5C222.037 485.5 221.037 488.5 218.037 488.5Z" fill="#E5EEFF"/>
<path d="M201.084 488.5C198.084 488.5 197.084 487.5 196.084 487.5C191.084 487.5 193.086 496.5 196.084 496.5H225.084C229.084 496.5 228.086 492.5 224.084 491.5C220.082 490.5 207.084 485.5 206.084 485.5C205.084 485.5 204.084 488.5 201.084 488.5Z" fill="#E5EEFF"/>
<path d="M413.033 446.5H394.033L392.033 428.5H415.033L413.033 446.5Z" fill="#DAE2F2"/>
<path d="M417.033 428.5H390.033L388.033 421.5H419.033L417.033 428.5Z" fill="#E6EEFF"/>
<path d="M382.439 373.5C376.439 368.5 375.439 362.5 379.439 362.5C383.439 362.5 384.439 364.5 385.439 369.5C386.439 366.5 388.439 365.5 390.439 365.5C392.439 365.5 393.439 369.5 393.439 371.5C393.439 375.5 392.439 379.5 391.439 381.5C392.939 381.5 394.939 377.5 397.939 377.5C400.939 377.5 401.439 379.5 401.439 381.5C401.439 384.5 397.439 388.5 397.439 391.5C399.439 391.5 402.439 388.5 404.439 388.5C406.439 388.5 408.439 389.5 408.439 392.5C408.439 394.5 406.439 397.5 406.439 400.5C408.439 398.5 413.439 398.5 413.439 402.5C413.439 406.5 407.039 419.5 405.039 421.5H397.039C384.039 411.5 383.439 409.5 383.439 406.5C383.439 402.5 390.439 405.5 392.439 403.5C390.439 401.5 384.439 400.5 384.439 397.5C384.439 394.5 390.439 393.5 390.439 393.5C390.439 393.5 379.439 391.5 379.439 386.5C379.439 383.5 381.939 384 385.439 382.5C379.439 380.5 377.439 377 377.439 375.5C377.439 374 379.439 373 382.439 373.5Z" fill="#FFEA80"/>
<path d="M385.439 373.5C392.439 383.5 399.439 400.5 401.439 411.5H398.439C396.439 400.5 389.439 383.5 385.439 373.5Z" fill="black" fill-opacity="0.24"/>
<path d="M420.033 383.5C426.033 378.5 427.033 372.5 423.033 372.5C419.033 372.5 418.033 374.5 417.033 379.5C416.033 376.5 414.033 375.5 412.033 375.5C410.033 375.5 409.033 379.5 409.033 381.5C409.033 385.5 410.033 389.5 411.033 391.5C409.533 391.5 407.533 387.5 404.533 387.5C401.533 387.5 401.033 389.5 401.033 391.5C401.033 394.5 405.033 398.5 405.033 401.5C403.033 401.5 400.033 398.5 398.033 398.5C396.033 398.5 394.033 399.5 394.033 402.5C394.033 404.5 396.033 407.5 396.033 410.5C394.033 408.5 389.033 408.5 389.033 412.5C389.033 416.5 392.033 419.5 394.033 421.5L414.033 421.5C417.033 419.5 419.033 419.5 419.033 416.5C419.033 412.5 412.033 415.5 410.033 413.5C412.033 411.5 418.033 410.5 418.033 407.5C418.033 404.5 412.033 403.5 412.033 403.5C412.033 403.5 423.033 401.5 423.033 396.5C423.033 393.5 420.533 394 417.033 392.5C423.033 390.5 425.033 387 425.033 385.5C425.033 384 423.033 383 420.033 383.5Z" fill="#99BBFF"/>
<path d="M417.033 383.5C410.033 393.5 403.033 410.5 401.033 421.5H404.033C406.033 410.5 413.033 393.5 417.033 383.5Z" fill="black" fill-opacity="0.24"/>
<path d="M171 385.5C171 375.5 177 367.833 180 363.5H204V480.5H191C191 446.5 171 407.5 171 385.5Z" fill="#0057B8"/>
<path d="M184 385.5C184 375.5 190 367.833 193 363.5H212C219 428.5 221 462.5 221 480.5H208C208 446.5 184 407.5 184 385.5Z" fill="#0065D6"/>
<path d="M175 340.5C175 327.5 182 322.5 193 322.5C193 322.5 187 333.5 187 343.5C187 353.5 180.5 354.5 179 354.5C177.5 354.5 175 353.5 175 340.5Z" fill="#DDBF36"/>
<path d="M251 276.5C250 274.5 248.929 278 248.5 281C248.071 284 247 286.5 247 286.5L251.5 292.5C253 288.5 255 288.5 259 283.5C263 278.5 263.5 274 262.5 273.5C260.5 272.5 253 282 252 281.5C250.211 280.606 252 278.5 251 276.5Z" fill="#EBC0C2"/>
<path d="M205 317.5L204 321.5H198V301.5H204C207 303.5 212 312 212 314C212 315.6 207.333 317 205 317.5Z" fill="#EBC0C2"/>
<path d="M212 323.5C210 323.5 199.5 322.5 194 322.5C181 322.5 179 326.5 179 332.5C179 338.5 184 344 184 349.5C184 353.9 181 360.5 178 364.5L214 372.5C213 363.5 212 349.5 214 341.5C232 334.5 252 320.5 258 293.5L240 279.5C238 293.5 221 316.5 212 323.5Z" fill="#F8D141"/>
<path d="M205 303.5C205 300.5 202 298.5 199 298.5C189 298.5 183 313.5 183 319.5C183 324.5 192 326.5 196 326.5C200 326.5 204 326.5 208 323.5C206 323.5 203 319.5 203 315.5C203 312.3 201 310.833 200 310.5C201.667 309 205 306.5 205 303.5Z" fill="#2C4488"/>
<path d="M440.25 114C442.045 114 443.5 115.455 443.5 117.25V118.5C443.5 119.605 444.395 120.5 445.5 120.5C446.605 120.5 447.5 119.605 447.5 118.5V117.25C447.5 115.455 448.955 114 450.75 114H452C453.105 114 454 113.105 454 112C454 110.895 453.105 110 452 110H450.75C448.955 110 447.5 108.545 447.5 106.75V105.5C447.5 104.395 446.605 103.5 445.5 103.5C444.395 103.5 443.5 104.395 443.5 105.5V106.75C443.5 108.545 442.045 110 440.25 110H439C437.895 110 437 110.895 437 112C437 113.105 437.895 114 439 114H440.25Z" fill="#FFEA80"/>
<path d="M404.25 319.448C406.045 319.448 407.5 320.903 407.5 322.698V323.948C407.5 325.053 408.395 325.948 409.5 325.948C410.605 325.948 411.5 325.053 411.5 323.948V322.698C411.5 320.903 412.955 319.448 414.75 319.448H416C417.105 319.448 418 318.553 418 317.448C418 316.343 417.105 315.448 416 315.448H414.75C412.955 315.448 411.5 313.993 411.5 312.198V310.948C411.5 309.843 410.605 308.948 409.5 308.948C408.395 308.948 407.5 309.843 407.5 310.948V312.198C407.5 313.993 406.045 315.448 404.25 315.448H403C401.895 315.448 401 316.343 401 317.448C401 318.553 401.895 319.448 403 319.448H404.25Z" fill="#F8F8FB"/>
<path d="M241.25 419C243.045 419 244.5 420.455 244.5 422.25V423.5C244.5 424.605 245.395 425.5 246.5 425.5C247.605 425.5 248.5 424.605 248.5 423.5V422.25C248.5 420.455 249.955 419 251.75 419H253C254.105 419 255 418.105 255 417C255 415.895 254.105 415 253 415H251.75C249.955 415 248.5 413.545 248.5 411.75V410.5C248.5 409.395 247.605 408.5 246.5 408.5C245.395 408.5 244.5 409.395 244.5 410.5V411.75C244.5 413.545 243.045 415 241.25 415H240C238.895 415 238 415.895 238 417C238 418.105 238.895 419 240 419H241.25Z" fill="#E8D06D"/>
<path d="M100.25 340C102.045 340 103.5 341.455 103.5 343.25V344.5C103.5 345.605 104.395 346.5 105.5 346.5C106.605 346.5 107.5 345.605 107.5 344.5V343.25C107.5 341.455 108.955 340 110.75 340H112C113.105 340 114 339.105 114 338C114 336.895 113.105 336 112 336H110.75C108.955 336 107.5 334.545 107.5 332.75V331.5C107.5 330.395 106.605 329.5 105.5 329.5C104.395 329.5 103.5 330.395 103.5 331.5V332.75C103.5 334.545 102.045 336 100.25 336H99C97.8954 336 97 336.895 97 338C97 339.105 97.8954 340 99 340H100.25Z" fill="#99BBFF"/>
<circle cx="484" cy="273.5" r="5" fill="#99BBFF"/>
<circle cx="454" cy="204.948" r="5" fill="#F8F8FB"/>
<circle cx="330" cy="85.5" r="5" fill="#99BBFF"/>
<circle cx="161" cy="269.5" r="5" fill="#99BBFF"/>
<circle cx="78" cy="278.948" r="5" fill="#F8F8FB"/>
<circle cx="291" cy="466.948" r="5" fill="#F8F8FB"/>
<circle cx="83" cy="158.5" r="5" fill="#FFEA80"/>
</svg>
