<svg width="24" height="24" viewBox="0 0 24 24" fill="none" xmlns="http://www.w3.org/2000/svg">
<path d="M7.5 5.0999C7.27909 5.0999 7.1 5.27899 7.1 5.4999V18.4999C7.1 18.7208 7.27909 18.8999 7.5 18.8999H15.5C15.7209 18.8999 15.9 18.7208 15.9 18.4999V16.4999C15.9 16.2238 16.1239 15.9999 16.4 15.9999H16.6C16.8761 15.9999 17.1 16.2238 17.1 16.4999V18.4999C17.1 19.3836 16.3837 20.0999 15.5 20.0999H7.5C6.61635 20.0999 5.9 19.3836 5.9 18.4999V5.4999C5.9 4.61625 6.61635 3.8999 7.5 3.8999H15.5C16.3837 3.8999 17.1 4.61625 17.1 5.4999V7.4999C17.1 7.77604 16.8761 7.9999 16.6 7.9999H16.4C16.1239 7.9999 15.9 7.77604 15.9 7.4999V5.4999C15.9 5.27899 15.7209 5.0999 15.5 5.0999H7.5Z" fill="#295FCC"/>
<path d="M19.5515 12.5999H14.5C14.2239 12.5999 14 12.376 14 12.0999V11.8999C14 11.6238 14.2239 11.3999 14.5 11.3999H19.5515L18.4293 10.2777C18.234 10.0825 18.234 9.76587 18.4293 9.57061L18.5707 9.42919C18.766 9.23393 19.0826 9.23393 19.2778 9.42919L21.495 11.6463C21.6902 11.8416 21.6902 12.1582 21.495 12.3535L19.2778 14.5706C19.0826 14.7659 18.766 14.7659 18.5707 14.5706L18.4293 14.4292C18.234 14.2339 18.234 13.9173 18.4293 13.7221L19.5515 12.5999Z" fill="#295FCC"/>
</svg>
