<svg viewBox="0 0 48 48" xmlns="http://www.w3.org/2000/svg">
<path d="M23.9995 0L25.0709 1.30537L23.9995 2.6792L22.9281 1.30537L23.9995 0Z" fill="white"/>
<path d="M29.8836 14.4188C30.4513 14.2436 31.4405 14.2299 32.1283 14.8326C32.1283 14.1882 31.571 13.6159 31.3767 13.5431C31.1215 13.5885 30.2555 13.9625 29.8836 14.4188Z" fill="white"/>
<path d="M15.9007 14.8326C16.5892 14.2299 17.5785 14.2436 18.1454 14.4188C17.7751 13.9625 16.9075 13.5885 16.653 13.5431C16.4587 13.6159 15.9007 14.1882 15.9007 14.8326Z" fill="white"/>
<path d="M31.1868 5.25244L30.4249 4.32477L29.6637 5.25244L30.4249 6.15921L31.1868 5.25244Z" fill="white"/>
<path d="M17.574 4.32477L18.336 5.25244L17.574 6.15921L16.8129 5.25244L17.574 4.32477Z" fill="white"/>
<path d="M16.1537 9.79923H18.9953C21.3844 9.79923 22.4595 8.33384 22.7843 7.06309H25.2153C25.5402 8.33384 26.6145 9.79923 29.0044 9.79923H31.846C31.846 9.79923 32.3432 9.12528 32.4679 8.79156C32.9167 7.59071 32.3432 7.03065 31.5065 7.03065L30.4249 8.01021L29.3432 7.03065C28.5064 7.03065 27.933 7.59071 28.3817 8.79156C28.439 8.94508 28.5762 9.17069 28.7059 9.36892C27.6976 9.23052 26.4106 8.54072 26.1283 7.06309C26.1283 7.06309 26.8733 5.88026 27.0604 5.40164C27.7321 3.68038 26.8741 2.97689 25.6194 2.97689L23.9995 4.87979L22.3795 2.97689C21.1248 2.97689 20.2669 3.68038 20.9393 5.40164C21.1256 5.88026 21.8714 7.06309 21.8714 7.06309C21.5883 8.54072 20.3013 9.23052 19.293 9.36892C19.4235 9.17069 19.56 8.94508 19.6172 8.79156C20.0652 7.59071 19.4931 7.03065 18.6557 7.03065L17.574 8.01021L16.4925 7.03065C15.6549 7.03065 15.083 7.59071 15.531 8.79156C15.6557 9.12528 16.1537 9.79923 16.1537 9.79923Z" fill="white"/>
<path d="M35.2882 6.78702C35.217 6.55853 37.5402 6.55276 37.5402 8.00589C37.5402 8.48827 37.1992 8.8449 36.855 9.20483C36.5044 9.5715 36.1506 9.94159 36.1506 10.4516C36.1506 10.9222 36.6573 11.2675 36.8128 11.2675C36.4549 9.64498 37.9348 10.4941 38.3345 10.7975C37.8463 9.45643 38.3336 8.94483 38.7408 8.51735C38.9961 8.24935 39.2199 8.01443 39.1521 7.62891C39.0772 7.20098 38.466 7.11408 37.8741 7.02992C37.4989 6.97657 37.1315 6.92432 36.9133 6.78702C36.6472 6.6196 36.368 6.32312 36.087 6.02463C35.3141 5.2038 34.5271 4.36784 33.9566 6.15921C35.407 7.50493 34.563 9.48568 32.7216 9.48568C32.7216 9.48568 32.7113 9.77617 32.7282 9.79923C34.9245 9.69183 35.6901 8.07869 35.2882 6.78702Z" fill="white"/>
<path d="M11.1868 11.2675C11.544 9.64498 10.0641 10.4941 9.66447 10.7975C10.1527 9.45627 9.66544 8.9447 9.25824 8.51719C9.00305 8.24926 8.7793 8.01435 8.84682 7.62891C8.92177 7.20098 9.53294 7.11408 10.1248 7.02992C10.5 6.97657 10.8674 6.92432 11.0857 6.78702C11.3518 6.6196 11.6309 6.32313 11.9119 6.02466C12.6847 5.20383 13.4718 4.36782 14.0424 6.15921C12.5926 7.50493 13.4367 9.48568 15.2774 9.48568C15.2774 9.48568 15.2876 9.77617 15.2714 9.79923C13.0752 9.69183 12.3096 8.07869 12.7107 6.78702C12.7818 6.55853 10.4587 6.55276 10.4587 8.00589C10.4587 8.48827 10.7997 8.8449 11.1438 9.20483C11.4944 9.5715 11.8483 9.94159 11.8483 10.4516C11.8483 10.9222 11.3416 11.2675 11.1868 11.2675Z" fill="white"/>
<path d="M29.5948 10.8902C31.8884 10.8826 34.0512 10.8755 34.3246 12.3371C34.4207 12.8489 34.1744 13.6288 33.9081 13.8529C33.8605 13.6908 33.6126 13.1603 32.8279 13.0414C29.8772 12.5958 27.7403 16.2001 27.8503 19.3249L27.1903 20.0979C26.3317 18.8993 25.2056 18.2206 23.9999 18.2206C22.7945 18.2206 21.6689 18.8997 20.8104 20.0979L20.1504 19.3249C20.2604 16.1052 18.2097 12.5906 15.2245 13.0414C14.4406 13.1603 14.192 13.6908 14.1444 13.8529C13.8781 13.6288 13.6317 12.8489 13.7271 12.3371C14.001 10.8755 16.1639 10.8826 18.4576 10.8902C19.9587 10.8952 21.5159 10.9004 22.6362 10.4941C22.6913 11.199 21.7643 12.3285 20.8784 12.7466C22.3549 14.0271 23.4503 15.3219 23.9999 16.5642C24.5503 15.3219 26.0478 13.7233 27.174 12.7466C26.2882 12.3285 25.362 11.199 25.4163 10.4941C26.5366 10.9004 28.0937 10.8952 29.5948 10.8902Z" fill="white"/>
<path d="M10.6472 20.395C10.5323 20.1714 10.4312 19.9287 10.3464 19.6644C9.03468 19.9126 6.58713 20.3068 5.21748 20.0932C3.29497 19.7939 2.16968 18.4435 2.38635 16.7619C2.39169 16.7194 2.44357 16.6939 2.48629 16.7145C3.03294 16.9754 6.08202 18.3211 10.0601 17.9852C10.0492 17.7593 10.0468 17.5226 10.0536 17.2744C7.43983 16.956 5.31269 16.5093 3.92589 15.7817C2.24216 14.897 1.5052 12.7865 2.35431 11.2146C2.37567 11.175 2.43823 11.1679 2.46951 11.2026C2.93115 11.7024 5.7571 14.5997 10.2183 15.5924C10.2555 15.3588 10.2992 15.1173 10.3497 14.8675C8.17759 13.6931 6.08543 12.3551 5.0733 11.1283C3.49714 9.21806 3.64285 6.7813 5.14043 5.53779C5.17324 5.5109 5.22663 5.51798 5.24877 5.55265C5.7271 6.29579 10.1664 13.0618 15.0399 15.9834C15.0894 16.0131 15.1551 16.0514 15.2215 16.0889C15.3603 16.1688 15.3763 16.3401 15.2566 16.4413C14.6951 16.9218 14.3448 17.5914 14.3448 18.3338C14.3448 19.6247 15.3999 20.6984 16.7953 20.9312C17.4439 21.0499 19.6002 20.9813 19.6002 20.9813L19.7628 21.2299C19.0629 21.7453 18.2335 22.5207 17.9501 23.3742C17.4001 25.0306 17.9501 26.7791 17.9501 26.7791C17.6824 28.6603 15.8511 29.7566 14.232 28.7948C14.1667 28.756 14.1645 28.6631 14.2246 28.6165C15.9366 27.2898 16.6034 25.9699 16.7903 24.9405C16.6501 24.5787 16.4053 24.295 16.0896 24.055C15.7967 25.2042 15.3767 26.1398 14.8636 26.6987C13.8002 27.8544 12.063 27.8381 11.31 27.0391C11.2841 27.0115 11.2925 26.9682 11.3268 26.9499C11.7399 26.7259 13.9731 25.4338 14.6804 23.309C14.5564 23.2567 14.4301 23.2045 14.3021 23.1516C14.2063 23.112 14.1096 23.072 14.0123 23.0313C13.6094 23.7434 12.9615 24.4743 11.3502 25.3987C9.42518 26.503 8.1806 25.8352 7.52755 24.7701C7.50466 24.7326 7.5329 24.6858 7.58096 24.6816C8.48196 24.6136 11.0707 23.9303 12.5174 22.3082C12.2733 22.1629 12.0363 22.0017 11.8119 21.8191C10.5407 22.5981 8.99564 23.2325 7.83806 23.3808C6.22681 23.5873 4.40194 23.1026 4.35693 21.3361C4.35616 21.3014 4.38973 21.271 4.43017 21.2731C4.94709 21.303 8.06086 21.4306 10.6472 20.395Z" fill="white"/>
<path d="M37.3528 20.395C37.4677 20.1714 37.5688 19.9287 37.6536 19.6644C38.9653 19.9126 41.4129 20.3068 42.7825 20.0932C44.705 19.7939 45.8303 18.4435 45.6137 16.7619C45.6083 16.7194 45.5564 16.6939 45.5137 16.7145C44.9671 16.9754 41.918 18.3211 37.9399 17.9852C37.9508 17.7593 37.9532 17.5226 37.9464 17.2744C40.5602 16.956 42.6873 16.5093 44.0741 15.7817C45.7578 14.897 46.4948 12.7865 45.6457 11.2146C45.6243 11.175 45.5618 11.1679 45.5305 11.2026C45.0688 11.7024 42.2429 14.5997 37.7817 15.5924C37.7445 15.3588 37.7008 15.1173 37.6503 14.8675C39.8224 13.6931 41.9146 12.3551 42.9267 11.1283C44.5029 9.21806 44.3572 6.7813 42.8596 5.53779C42.8268 5.5109 42.7734 5.51798 42.7512 5.55265C42.2729 6.29579 37.8336 13.0618 32.9601 15.9834C32.9106 16.0131 32.8449 16.0514 32.7785 16.0889C32.6397 16.1688 32.6237 16.3401 32.7434 16.4413C33.3049 16.9218 33.6552 17.5914 33.6552 18.3338C33.6552 19.6247 32.6001 20.6984 31.2047 20.9312C30.5561 21.0499 28.3998 20.9813 28.3998 20.9813L28.2372 21.2299C28.9371 21.7453 29.7665 22.5207 30.0499 23.3742C30.5999 25.0306 30.0499 26.7791 30.0499 26.7791C30.3176 28.6603 32.1489 29.7566 33.768 28.7948C33.8333 28.756 33.8355 28.6631 33.7754 28.6165C32.0634 27.2898 31.3966 25.9699 31.2097 24.9405C31.3499 24.5787 31.5947 24.295 31.9104 24.055C32.2033 25.2042 32.6233 26.1398 33.1364 26.6987C34.1998 27.8544 35.937 27.8381 36.69 27.0391C36.7159 27.0115 36.7075 26.9682 36.6732 26.9499C36.2601 26.7259 34.0269 25.4338 33.3196 23.309C33.4436 23.2567 33.5699 23.2045 33.6979 23.1516C33.7937 23.112 33.8904 23.072 33.9877 23.0313C34.3906 23.7434 35.0385 24.4743 36.6498 25.3987C38.5748 26.503 39.8194 25.8352 40.4725 24.7701C40.4953 24.7326 40.4671 24.6858 40.419 24.6816C39.518 24.6136 36.9293 23.9303 35.4826 22.3082C35.7267 22.1629 35.9637 22.0017 36.1881 21.8191C37.4593 22.5981 39.0044 23.2325 40.1619 23.3808C41.7732 23.5873 43.5981 23.1026 43.6431 21.3361C43.6438 21.3014 43.6103 21.271 43.5698 21.2731C43.0529 21.303 39.9391 21.4306 37.3528 20.395Z" fill="white"/>
<path fill-rule="evenodd" clip-rule="evenodd" d="M18.5317 28.8533C18.107 29.4218 18.1611 30.1749 18.5758 30.6777L18.2103 31.3415L8.55278 27.2261C8.41297 27.1666 8.25158 27.2319 8.19219 27.3724L7.97729 27.8806L7.72408 27.7727C7.58427 27.7132 7.42289 27.7785 7.3635 27.919C7.3041 28.0595 7.36937 28.2214 7.50918 28.281L7.76239 28.3889L7.54749 28.8971C7.4881 29.0376 7.55337 29.1996 7.69318 29.2591L9.46513 30.0142C9.0495 30.9972 8.16061 31.7782 5.61945 31.3131C5.49779 31.2908 5.39362 31.4034 5.43429 31.5206C6.5325 34.6878 11.1911 36.673 14.2234 35.2659C14.3356 35.2139 14.3439 35.0604 14.2435 34.988C12.1449 33.4761 12.0871 32.2916 12.5027 31.3086L17.1405 33.2849L15.2004 36.8094L16.8504 36.2572L18.5585 33.8892L21.1906 35.0108L12.4754 38.7246C12.4115 38.7519 12.3377 38.7405 12.2849 38.6953L11.9031 38.3687C12.3225 38.19 12.5181 37.7038 12.3401 37.2827C12.1621 36.8617 11.6778 36.6652 11.2584 36.8439C10.3038 37.2507 10.9623 38.8067 11.2581 39.5055L11.2716 39.5375L8.12336 40.8791C7.992 40.935 7.84724 40.9513 7.70681 40.9259L7.4753 40.8841C7.44385 40.8784 7.41337 40.8684 7.38407 40.8556C6.98346 40.6806 6.51484 40.6648 6.08095 40.8497C5.24214 41.2071 4.85078 42.1795 5.20684 43.0216C5.5629 43.8637 6.53153 44.2566 7.37035 43.8991C7.80423 43.7143 8.11839 43.3648 8.27132 42.954C8.28251 42.9239 8.29652 42.895 8.3143 42.8683L8.44512 42.6721C8.52447 42.553 8.6367 42.4598 8.76804 42.4038L11.9163 41.0622L11.9299 41.0943C12.2251 41.7933 12.8826 43.3497 13.8372 42.9429C14.2566 42.7642 14.4522 42.278 14.2742 41.8569C14.0962 41.4359 13.6119 41.2394 13.1925 41.4182L13.2236 40.9156C13.228 40.846 13.2711 40.7848 13.335 40.7576L24.0058 36.2104L38.5757 42.4191C38.7155 42.4787 38.8769 42.4133 38.9362 42.2729L39.1511 41.7646L39.4043 41.8725C39.5441 41.9321 39.7055 41.8667 39.7649 41.7262C39.8243 41.5858 39.759 41.4238 39.6192 41.3643L39.366 41.2564L39.5809 40.7481C39.6403 40.6077 39.5751 40.4457 39.4353 40.3862L26.821 35.0108L29.4446 33.8928L31.1502 36.2572L32.8002 36.8094L30.8621 33.2887L37.7474 30.3547C38.2714 30.1314 38.7364 29.7887 39.1056 29.3538L39.9017 28.4159C39.9997 28.3004 39.9243 28.1223 39.7735 28.1128L38.5485 28.0362C37.9804 28.0007 37.4118 28.0984 36.8878 28.3217L29.7923 31.3453L29.4247 30.6775C29.8393 30.1748 29.8934 29.4217 29.4687 28.8532L28.9502 28.1592L28.1251 29.3767V30.0919H27.3002C26.7502 30.9199 25.6502 32.3001 23.9998 32.3001C22.3831 32.3001 21.2502 30.9199 20.7003 30.0919H19.8752V29.3772C19.8752 29.3772 19.3173 28.5559 19.0503 28.1592L18.5317 28.8533ZM28.1209 32.0576L27.7591 31.556L24.2819 33.0105C24.1013 33.086 23.8983 33.0859 23.7178 33.0104L20.2413 31.5562L19.8822 32.054L24.0058 33.8112L28.1209 32.0576Z" fill="white"/>
<path d="M19.5247 41.3174C19.9691 39.416 21.5251 37.8165 23.1296 37.0582C24.0254 36.7267 24.0255 36.7267 24.921 37.0582C26.5255 37.8165 28.081 39.416 28.5262 41.3174C28.7293 42.1881 27.7584 42.9731 26.9554 43.188C26.9158 43.1987 26.8754 43.1699 26.8733 43.131C26.7214 40.7264 25.6582 38.685 24.707 37.756C24.6807 37.9348 24.6616 38.1178 24.6477 38.3031C24.6477 38.3031 25.6222 41.0168 25.6222 42.9969C25.6222 43.9181 24.2531 44.561 24.0001 44.6511C23.7978 44.561 22.4279 43.9181 22.4279 42.9969C22.4279 41.0168 23.4024 38.3031 23.4024 38.3031C23.3892 38.1178 23.3694 37.9348 23.3437 37.756C22.3919 38.685 21.3293 40.7271 21.1768 43.1316C21.1747 43.1706 21.135 43.1987 21.0947 43.188C20.2925 42.9731 19.3208 42.1881 19.5247 41.3174Z" fill="white"/>
<path d="M24.0072 19.3249L24.6307 20.0839L24.0072 20.8258L23.3845 20.0839L24.0072 19.3249Z" fill="white"/>
<path d="M22.8451 22.9005C22.8451 22.9005 22.4377 22.3491 22.3357 22.076C21.9691 21.0935 22.4371 20.6353 23.1223 20.6353L24.0072 21.4368L24.8922 20.6353C25.5774 20.6353 26.0453 21.0935 25.6788 22.076C25.5768 22.3491 25.1694 22.9005 25.1694 22.9005H22.8451Z" fill="white"/>
<path d="M22.8824 23.3907H25.1324V27.9082H25.4474V28.5858H25.8074V29.2634H22.2074V28.5858H22.5674V27.9082H22.8824V23.3907Z" fill="white"/>
</svg>
