<svg width="32" height="32" viewBox="0 0 32 32" fill="none" xmlns="http://www.w3.org/2000/svg">
<path d="M8.2343 10.6345C8.54672 10.3221 9.05325 10.3221 9.36567 10.6345L16 17.2688L17.8337 15.4351C17.8336 15.4353 17.8339 15.4349 17.8337 15.4351C17.8339 15.4349 17.8347 15.4341 17.8349 15.4339L22.6343 10.6345C22.9467 10.3221 23.4533 10.3221 23.7657 10.6345C24.0781 10.9469 24.0781 11.4535 23.7657 11.7659L19.5314 16.0002L23.7657 20.2345C24.0781 20.5469 24.0781 21.0535 23.7657 21.3659C23.4533 21.6783 22.9467 21.6783 22.6343 21.3659L18.4 17.1316L16.5657 18.9659C16.2533 19.2783 15.7467 19.2783 15.4343 18.9659L13.6 17.1316L9.36567 21.3659C9.05325 21.6783 8.54672 21.6783 8.2343 21.3659C7.92188 21.0535 7.92188 20.5469 8.2343 20.2345L12.4686 16.0002L8.2343 11.7659C7.92188 11.4535 7.92188 10.9469 8.2343 10.6345Z" fill="#2E6BE6"/>
<path fill-rule="evenodd" clip-rule="evenodd" d="M8.04595 7.65584C9.55826 7.4348 12.0849 7.2002 16 7.2002C19.9151 7.2002 22.4417 7.4348 23.954 7.65584C25.4188 7.86992 26.5348 8.96184 26.7812 10.4214C26.991 11.6645 27.2 13.5243 27.2 16.0002C27.2 18.4761 26.991 20.3358 26.7812 21.579C26.5348 23.0385 25.4188 24.1305 23.954 24.3445C22.4417 24.5656 19.9151 24.8002 16 24.8002C12.0849 24.8002 9.55827 24.5656 8.04595 24.3446C6.5812 24.1305 5.46517 23.0386 5.21881 21.579C5.00897 20.3358 4.79999 18.4761 4.79999 16.0002C4.79999 13.5243 5.00897 11.6645 5.21881 10.4214C5.46517 8.96184 6.5812 7.86993 8.04595 7.65584ZM16 8.8002C12.1471 8.8002 9.69932 9.03119 8.27734 9.23902C7.49966 9.35268 6.92733 9.91256 6.79649 10.6877C6.60129 11.8441 6.39999 13.6148 6.39999 16.0002C6.39999 18.3856 6.60129 20.1563 6.79649 21.3127C6.92733 22.0878 7.49966 22.6477 8.27734 22.7614C9.69932 22.9692 12.1471 23.2002 16 23.2002C19.8529 23.2002 22.3007 22.9692 23.7226 22.7614C24.5003 22.6477 25.0727 22.0878 25.2035 21.3127C25.3987 20.1563 25.6 18.3856 25.6 16.0002C25.6 13.6148 25.3987 11.8441 25.2035 10.6877C25.0727 9.91255 24.5003 9.35268 23.7226 9.23902C22.3007 9.03119 19.8529 8.8002 16 8.8002Z" fill="#2E6BE6"/>
</svg>
