<svg width="24" height="24" viewBox="0 0 24 24" fill="none" xmlns="http://www.w3.org/2000/svg">
<path d="M11.6311 4.88088C11.7681 4.55358 12.2319 4.55358 12.3689 4.88088L14.0316 8.8505C14.0892 8.98819 14.2188 9.08231 14.3676 9.09461L18.6567 9.44918C19.0103 9.47842 19.1536 9.91945 18.8847 10.151L15.6231 12.9589C15.51 13.0563 15.4605 13.2086 15.4948 13.3539L16.483 17.5426C16.5645 17.888 16.1893 18.1606 15.886 17.9763L12.2077 15.7421C12.0801 15.6646 11.9199 15.6646 11.7923 15.7421L8.11397 17.9763C7.81069 18.1606 7.43553 17.888 7.517 17.5426L8.50519 13.3539C8.53947 13.2086 8.48999 13.0563 8.37686 12.9589L5.1153 10.151C4.84639 9.91945 4.98969 9.47842 5.34333 9.44918L9.63244 9.09461C9.78121 9.08231 9.91076 8.98819 9.96843 8.8505L11.6311 4.88088Z" fill="#3C4858"/>
</svg>
