<svg width="160" height="160" viewBox="0 0 160 160" fill="none" xmlns="http://www.w3.org/2000/svg">
<path d="M0 80C0 35.8172 35.8172 0 80 0C124.183 0 160 35.8172 160 80C160 124.183 124.183 160 80 160C35.8172 160 0 124.183 0 80Z" fill="#F9F9FB"/>
<path d="M116 62C116 81.8823 99.8823 98 80 98C60.1177 98 44 81.8823 44 62C44 42.1177 60.1177 26 80 26C99.8823 26 116 42.1177 116 62Z" fill="#E0E6ED"/>
<path d="M146.341 160H13.6602C17.3633 132.161 36.3023 109.508 61.2524 101.817C66.94 104.5 73.2952 106 80.0008 106C86.7064 106 93.0616 104.5 98.7492 101.817C123.699 109.508 142.638 132.161 146.341 160Z" fill="#E0E6ED"/>
</svg>
