<svg width="16" height="18" viewBox="0 0 16 18" fill="none" xmlns="http://www.w3.org/2000/svg">
<path fill-rule="evenodd" clip-rule="evenodd" d="M7.99998 0.25C5.37663 0.25 3.24998 2.37665 3.24998 5C3.24998 6.51754 3.96162 7.86886 5.06938 8.73845C3.99767 9.11097 3.06322 9.67187 2.30182 10.3341C0.929183 11.528 0.0498962 13.1185 0.0498962 14.6C0.0498962 15.2832 0.338374 15.8533 0.818295 16.2894C1.27573 16.7051 1.89425 16.9905 2.58081 17.1941C3.95358 17.6011 5.84315 17.75 7.9999 17.75C10.1566 17.75 12.0462 17.6011 13.419 17.1941C14.1055 16.9905 14.7241 16.7051 15.1815 16.2894C15.6614 15.8533 15.9499 15.2832 15.9499 14.6C15.9499 13.1185 15.0706 11.528 13.698 10.3341C12.9366 9.67189 12.0022 9.11101 10.9305 8.7385C12.0383 7.8689 12.75 6.51756 12.75 5C12.75 2.37665 10.6233 0.25 7.99998 0.25ZM4.74998 5C4.74998 3.20507 6.20506 1.75 7.99998 1.75C9.79491 1.75 11.25 3.20507 11.25 5C11.25 6.79493 9.79491 8.25 7.99998 8.25C6.20506 8.25 4.74998 6.79493 4.74998 5ZM1.5499 14.6C1.5499 13.6815 2.12944 12.472 3.28622 11.4659C4.42253 10.4776 6.05008 9.75 7.9999 9.75C9.94971 9.75 11.5773 10.4776 12.7136 11.4659C13.8703 12.472 14.4499 13.6815 14.4499 14.6C14.4499 14.8168 14.3737 14.9967 14.1727 15.1793C13.9493 15.3824 13.5707 15.5845 12.9926 15.7559C11.8359 16.0989 10.1255 16.25 7.9999 16.25C5.87431 16.25 4.16388 16.0989 3.00723 15.7559C2.42909 15.5845 2.05054 15.3824 1.82709 15.1793C1.62613 14.9967 1.5499 14.8168 1.5499 14.6Z" fill="#295FCC"/>
</svg>
