<svg width="24" height="24" viewBox="0 0 24 24" fill="none" xmlns="http://www.w3.org/2000/svg">
<path d="M4.96447 5.03553L5.79289 4.20711C6.18342 3.81658 6.81658 3.81658 7.20711 4.20711L9.79289 6.79289C10.1834 7.18342 10.1834 7.81658 9.79289 8.20711L8.5 9.5C8.5 9.5 9 11 11 13C13 15 14.5 15.5 14.5 15.5L15.7929 14.2071C16.1834 13.8166 16.8166 13.8166 17.2071 14.2071L19.7929 16.7929C20.1834 17.1834 20.1834 17.8166 19.7929 18.2071L18.9645 19.0355C18.0268 19.9732 16.7383 20.4983 15.4771 20.0887C13.8316 19.5543 11.3255 18.3255 8.5 15.5C5.67452 12.6745 4.4457 10.1684 3.91129 8.52292C3.50166 7.26169 4.02678 5.97322 4.96447 5.03553Z" fill="#E0E6ED"/>
</svg>
