<svg width="32" height="32" viewBox="0 0 32 32" fill="none" xmlns="http://www.w3.org/2000/svg">
<path fill-rule="evenodd" clip-rule="evenodd" d="M11.2 16.9999C11.2 14.3489 13.349 12.1999 16 12.1999C18.6509 12.1999 20.8 14.3489 20.8 16.9999C20.8 19.6509 18.6509 21.7999 16 21.7999C13.349 21.7999 11.2 19.6509 11.2 16.9999ZM16 13.7999C14.2327 13.7999 12.8 15.2326 12.8 16.9999C12.8 18.7672 14.2327 20.1999 16 20.1999C17.7673 20.1999 19.2 18.7672 19.2 16.9999C19.2 15.2326 17.7673 13.7999 16 13.7999Z" fill="#FF9933"/>
<path fill-rule="evenodd" clip-rule="evenodd" d="M11.2407 8.94736C11.2589 8.8929 11.2832 8.83957 11.314 8.78831L12.3479 7.06511C12.7816 6.34222 13.5628 5.8999 14.4059 5.8999H17.5941C18.4371 5.8999 19.2183 6.34222 19.6521 7.06511L20.686 8.78831C20.7167 8.83957 20.7411 8.8929 20.7592 8.94736C21.7694 9.01732 22.5756 9.10434 23.2056 9.1905C24.6721 9.39107 25.8017 10.4755 26.0426 11.944C26.2264 13.0645 26.4 14.6833 26.4 16.7999C26.4 18.9165 26.2264 20.5353 26.0426 21.6558C25.8017 23.1243 24.6721 24.2087 23.2056 24.4093C21.7933 24.6025 19.4954 24.7999 16 24.7999C12.5045 24.7999 10.2067 24.6025 8.79435 24.4093C7.32789 24.2087 6.19826 23.1243 5.95738 21.6558C5.77359 20.5353 5.59998 18.9165 5.59998 16.7999C5.59998 14.6833 5.77359 13.0645 5.95738 11.944C6.19826 10.4755 7.32789 9.39107 8.79435 9.1905C9.42436 9.10434 10.2306 9.01732 11.2407 8.94736ZM13.7199 7.8883C13.8645 7.64734 14.1249 7.4999 14.4059 7.4999H17.5941C17.8751 7.4999 18.1355 7.64734 18.2801 7.88831L18.8563 8.84867C18.0084 8.81803 17.0591 8.7999 16 8.7999C14.9408 8.7999 13.9916 8.81803 13.1437 8.84868L13.7199 7.8883ZM16 10.3999C12.5633 10.3999 10.3392 10.5941 9.01117 10.7757C8.23267 10.8822 7.66217 11.4355 7.53628 12.203C7.36634 13.239 7.19998 14.7712 7.19998 16.7999C7.19998 18.8286 7.36634 20.3608 7.53628 21.3968C7.66217 22.1643 8.23267 22.7176 9.01117 22.8241C10.3392 23.0057 12.5633 23.1999 16 23.1999C19.4367 23.1999 21.6608 23.0057 22.9888 22.8241C23.7673 22.7176 24.3378 22.1643 24.4637 21.3968C24.6336 20.3608 24.8 18.8286 24.8 16.7999C24.8 14.7712 24.6336 13.239 24.4637 12.203C24.3378 11.4355 23.7673 10.8822 22.9888 10.7757C21.6608 10.5941 19.4367 10.3999 16 10.3999Z" fill="#FF9933"/>
</svg>
