<svg width="24" height="24" viewBox="0 0 24 24" fill="none" xmlns="http://www.w3.org/2000/svg">
<path d="M14.0394 3.11098C14.0394 3.06579 14.0456 3.02232 14.0533 3.01437C14.061 3.00641 14.0728 2.99994 14.0796 3C14.0863 3.00007 14.1296 3.02419 14.1757 3.05361C14.2219 3.08303 14.2667 3.10742 14.2754 3.10779C14.2841 3.10816 14.2911 3.08892 14.2911 3.06503C14.2911 3.04115 14.3003 3.02161 14.3114 3.02161C14.3226 3.02161 14.3649 3.05596 14.4055 3.09793C14.446 3.13992 14.5253 3.20242 14.5817 3.23679C14.6381 3.27118 14.7057 3.31745 14.7321 3.3396C14.7585 3.36175 14.7951 3.39551 14.8136 3.41462C14.8321 3.43373 14.8615 3.46793 14.8791 3.49062C14.8967 3.51331 14.927 3.55546 14.9464 3.58427C14.9659 3.61309 14.997 3.69125 15.0156 3.75798L15.0708 3.95614C15.0826 3.99839 15.0875 4.10099 15.0817 4.18413C15.0759 4.26725 15.0602 4.38902 15.0469 4.45471C15.0336 4.52039 15.0162 4.63276 15.0083 4.70441C14.9987 4.79264 14.9718 4.87426 14.9251 4.95723C14.8807 5.0362 14.8341 5.08925 14.794 5.10644C14.7598 5.1211 14.7318 5.14103 14.7318 5.15074C14.7318 5.16042 14.7792 5.21881 14.8373 5.28046C15.0021 5.45554 15.0551 5.64556 15.0908 5.87695C15.2313 6.78588 15.2858 7.68022 15.2995 8.60093C15.2419 8.71791 15.0761 8.87595 15.097 9.00372C15.1841 9.53679 15.3047 10.612 15.8046 10.9026C15.8466 10.9271 15.8986 10.9472 15.9201 10.9474C16.1501 10.9493 16.3425 11.1713 16.5152 11.2948C17.1799 11.7701 17.2237 12.8094 17.7508 13.3549C20.313 13.828 17.82 16.4624 20.1446 18.6959C20.9014 19.423 21.3958 20.4194 21.902 20.7291C21.9555 20.7619 22.0289 20.8218 21.9882 20.8894C21.9423 20.9654 21.972 20.994 21.902 21.0508C21.8048 21.1297 21.6217 21.0101 21.5508 21.0832C21.4714 21.1654 21.7098 21.179 21.735 21.2572C21.7445 21.2867 21.651 21.2786 21.6606 21.3099C21.6698 21.3398 21.7607 21.3787 21.7607 21.3921C21.7607 21.4822 21.3967 21.4102 21.4863 21.5836C21.5112 21.6318 21.5136 21.691 21.4617 21.7217C21.4036 21.7561 21.013 21.7503 21.0202 21.8039C21.0307 21.882 21.091 21.9781 21 22C20.9077 22.0222 20.313 22 20.313 22C19.0116 20.5469 18.5751 18.6044 18.3215 16.7121C18.2554 16.2195 17.9979 15.3478 17.6235 14.9869C17.5981 14.9624 17.571 14.9424 17.5631 14.9424C17.5553 14.9424 17.5122 15.0074 17.4674 15.0869C17.4226 15.1664 17.3104 15.3109 17.2181 15.4081C17.1258 15.5053 17.0078 15.6148 16.9558 15.6516C16.9039 15.6883 16.8048 15.7472 16.7355 15.7824C16.6663 15.8177 16.5672 15.8587 16.5152 15.8736C16.4633 15.8885 16.3918 15.9099 16.3564 15.921C16.3209 15.9321 16.2671 15.9412 16.2367 15.9412C16.2063 15.9412 16.1574 15.9526 16.128 15.9664C16.0986 15.9803 16.0746 16.0002 16.0746 16.0106C16.0746 16.021 16.0982 16.0778 16.1271 16.1367C16.2894 16.4681 16.4312 16.8438 16.7644 17.047C16.824 17.0834 16.9054 17.147 16.9454 17.1884C16.9854 17.2298 17.0372 17.2959 17.0604 17.3353C17.0836 17.3747 17.1024 17.4265 17.1023 17.4503C17.1022 17.4742 17.0895 17.5312 17.0741 17.577C17.0587 17.6228 17.0327 17.6766 17.0164 17.6965C16.7224 18.0547 16.39 18.3954 16.138 18.7859C16.0417 18.9351 15.9567 19.062 15.949 19.068C15.9413 19.074 15.8954 19.1397 15.847 19.2141C15.7985 19.2885 16.3564 19.6865 16.3564 19.6865L15.3673 20.6368L14.7103 20.0927C14.7103 20.0927 14.9451 19.1036 15.0077 19.0409C15.0702 18.9782 15.1443 18.8927 15.1723 18.8509C15.2003 18.8091 15.2478 18.7504 15.2779 18.7206C15.3079 18.6907 15.3801 18.593 15.4384 18.5034C15.4966 18.4139 15.5785 18.2702 15.6203 18.1842C15.6622 18.0982 15.7106 17.9858 15.7279 17.9345C15.7451 17.8832 15.7594 17.8174 15.7596 17.7884C15.7597 17.7594 15.7484 17.7008 15.7343 17.6582C15.7202 17.6155 15.6806 17.5366 15.6462 17.4829C15.6118 17.4292 15.5323 17.3339 15.4696 17.2712C15.4069 17.2085 15.3425 17.1572 15.3266 17.1572C15.3106 17.1572 15.1952 17.1041 15.0702 17.0392C14.8974 16.9495 14.8087 16.8869 14.7009 16.7786L14.559 16.6361H14.4139C14.3017 16.6361 14.266 16.6438 14.2562 16.67C14.2493 16.6887 14.2543 16.7282 14.2674 16.7579C14.2805 16.7876 14.2911 16.8375 14.2911 16.869C14.2911 16.9004 14.2999 16.9561 14.3107 16.9928C14.3215 17.0295 14.3403 17.101 14.3527 17.1518C14.365 17.2025 14.3859 17.2856 14.3992 17.3363C14.4125 17.3871 14.4809 17.5295 14.5513 17.6529C14.6217 17.7762 14.6955 17.8951 14.7154 17.9172C14.7352 17.9393 14.7706 17.9898 14.794 18.0295C14.8264 18.0846 14.8365 18.1394 14.8366 18.2603C14.8366 18.3589 14.8248 18.4426 14.8052 18.4818C14.7878 18.5165 14.7335 18.5723 14.6845 18.606C14.6355 18.6396 14.5623 18.6801 14.5219 18.6959C14.4816 18.7117 14.4013 18.7443 14.3436 18.7683C14.2859 18.7923 14.2104 18.8233 14.1757 18.837C14.1411 18.8508 14.101 18.8699 14.0866 18.8795C14.0721 18.889 14.0603 18.9173 14.0603 18.9173L12.9269 19.4809L12.9909 20.4792L11.8169 20.6368V19.1809C12.1975 18.9684 12.6639 18.7871 13.0127 18.6004C13.0443 18.5834 13.0829 18.5568 13.0984 18.5412C13.1139 18.5256 13.1597 18.4892 13.2001 18.4603C13.2405 18.4314 13.291 18.3878 13.3123 18.3633C13.3336 18.3389 13.3738 18.2728 13.4015 18.2165C13.4359 18.1465 13.4518 18.0776 13.4518 17.9993C13.4517 17.9225 13.4377 17.8608 13.4092 17.8125C13.0016 17.1211 11.6761 15.8503 12.1392 14.9232C12.1573 14.8871 12.2145 14.8273 12.2664 14.7904C12.3183 14.7534 12.3608 14.715 12.3608 14.705C12.3608 14.695 12.3301 14.6804 12.2926 14.6726L12.13 14.639C11.0836 14.4224 10.2111 14.0378 9.46437 13.2711C9.29671 13.0989 9.22021 13.0358 9.15453 13.0153C9.10655 13.0004 9.05858 12.9882 9.0479 12.9882C9.03725 12.9882 8.9495 13.0688 8.85294 13.1673C8.75636 13.2659 8.6543 13.3807 8.62615 13.4225C8.59799 13.4643 8.56253 13.5117 8.54734 13.5278C8.53215 13.544 8.49929 13.5978 8.47432 13.6473C8.44933 13.6968 8.42164 13.791 8.41276 13.8567C8.40389 13.9224 8.39054 14.0129 8.38311 14.0578C8.37451 14.1097 8.34291 14.1671 8.29637 14.2152C8.25611 14.2569 8.20454 14.291 8.18175 14.291C8.15899 14.291 8.06786 14.265 7.97928 14.2332C7.89069 14.2015 7.76157 14.1665 7.69233 14.1556C7.62309 14.1447 7.44841 14.1284 7.30416 14.1195C7.15991 14.1105 7.01004 14.0921 6.97112 14.0784C6.9322 14.0648 6.87555 14.037 6.84523 14.0167C6.81491 13.9964 6.76887 13.9545 6.74292 13.9237C6.71281 13.8879 6.69573 13.8393 6.69571 13.7895C6.69569 13.7427 6.71036 13.6978 6.73241 13.6772C6.75656 13.6548 6.82662 13.6392 6.93698 13.6317C7.0293 13.6254 7.17093 13.6109 7.25171 13.5993C7.33249 13.5877 7.43635 13.5685 7.48251 13.5566C7.52867 13.5448 7.59503 13.5257 7.62997 13.5142C7.66493 13.5028 7.73303 13.4725 7.78131 13.447C7.82959 13.4215 7.95435 13.3132 8.05854 13.2063C8.16274 13.0994 8.28603 12.951 8.33253 12.8765C8.37904 12.8021 8.41419 12.7322 8.41066 12.7213C8.40714 12.7103 8.36681 12.6879 8.32105 12.6714C8.27529 12.6549 8.19703 12.6413 8.14713 12.6411C7.6549 12.6394 7.35394 12.0328 6.91294 12.0328C6.6249 12.0328 6.23905 11.8134 6.01155 11.6614C5.93994 11.6135 5.86953 11.5813 5.85188 11.5883C5.83455 11.5952 5.8103 11.6223 5.798 11.6485C5.7857 11.6747 5.7698 11.7255 5.76264 11.7614C5.75549 11.7972 5.74001 11.8656 5.72828 11.9134C5.71653 11.9611 5.69695 12.0491 5.68478 12.1088C5.67261 12.1685 5.65652 12.3981 5.64899 12.619C5.64147 12.84 5.62729 13.0382 5.61745 13.0596C5.60759 13.0809 5.57236 13.1129 5.53915 13.1307C5.50591 13.1484 5.47874 13.1722 5.47874 13.1834C5.47874 13.1946 5.49699 13.2139 5.51932 13.2263C5.54164 13.2386 5.60253 13.2487 5.65463 13.2487C5.73967 13.2487 5.75539 13.2571 5.80813 13.3302C5.84047 13.375 5.88107 13.4235 5.89838 13.438C5.91569 13.4526 5.94491 13.4648 5.96332 13.4652C5.98172 13.4656 6.01139 13.483 6.02924 13.5039C6.04708 13.5248 6.06837 13.5858 6.07651 13.6396C6.08468 13.6933 6.09561 13.881 6.10081 14.0566C6.10857 14.3185 6.10434 14.3877 6.07723 14.442C6.05906 14.4784 6.02737 14.5081 6.00685 14.5081C5.98633 14.5081 5.92481 14.4788 5.87016 14.4429C5.8155 14.407 5.725 14.3537 5.66904 14.3243C5.61309 14.295 5.55348 14.2567 5.53654 14.2392C5.51963 14.2216 5.47374 14.1871 5.43457 14.1624C5.3954 14.1377 5.34756 14.1174 5.32828 14.1174C5.309 14.1173 5.25234 14.0749 5.20239 14.0231C5.13873 13.9571 5.10346 13.897 5.08449 13.8222C5.06961 13.7636 5.04836 13.6856 5.03728 13.6489C5.0262 13.6122 5.01714 13.5655 5.01714 13.5451C5.01714 13.5247 4.98749 13.4473 4.95125 13.373C4.91502 13.2987 4.87018 13.2139 4.85159 13.1846C4.83302 13.1553 4.80616 13.0966 4.79192 13.0543C4.77765 13.012 4.76598 12.9431 4.76598 12.9013C4.76596 12.8595 4.78015 12.7832 4.79746 12.7318C4.81477 12.6803 4.85698 12.5807 4.89125 12.5105C4.92551 12.4402 4.96875 12.3407 4.98736 12.2892C5.00595 12.2377 5.04527 12.1272 5.07473 12.0436C5.10417 11.96 5.1372 11.8428 5.14811 11.7831C5.15902 11.7234 5.1694 11.6208 5.17121 11.5551C5.17383 11.4601 5.16808 11.4366 5.14303 11.4404C5.12572 11.443 5.07379 11.4536 5.02763 11.464C4.98147 11.4744 4.88529 11.5136 4.81389 11.5512C4.74248 11.5887 4.66223 11.6418 4.63554 11.6692C4.60885 11.6965 4.55396 11.743 4.51357 11.7724C4.47318 11.8019 4.39282 11.875 4.33497 11.9348C4.27715 11.9947 4.20677 12.0778 4.17862 12.1196C4.15044 12.1614 4.11234 12.2103 4.09393 12.2282C4.01274 12.3072 3.94672 12.4201 3.88002 12.5127C3.84905 12.5558 3.79247 12.6039 3.75426 12.6196C3.71605 12.6354 3.68126 12.6511 3.67694 12.6544C3.67262 12.6578 3.69385 12.6911 3.72415 12.7284C3.75443 12.7656 3.78521 12.8222 3.79253 12.8541C3.79983 12.8861 3.82018 12.9293 3.83772 12.9502C3.85529 12.9711 3.88651 12.9882 3.90711 12.9882C3.92771 12.9882 3.94933 12.9961 3.95512 13.0058C3.96093 13.0155 3.948 13.0815 3.92641 13.1524C3.90482 13.2233 3.86582 13.3546 3.83976 13.4442C3.8137 13.5337 3.76475 13.6656 3.73097 13.7373C3.69721 13.809 3.65501 13.8847 3.63722 13.9056C3.61941 13.9265 3.58928 13.9436 3.57023 13.9436C3.55119 13.9436 3.50245 13.9118 3.46194 13.873C3.4214 13.8342 3.34769 13.7403 3.29815 13.6644C3.24859 13.5885 3.16125 13.4769 3.10403 13.4164L3 13.3064L3.01248 13.1202C3.01935 13.0177 3.03179 12.7531 3.04014 12.5322C3.05317 12.1879 3.06127 12.1203 3.09689 12.0594C3.12738 12.0072 3.19448 11.9586 3.34868 11.877C3.82384 11.6255 4.20404 11.2117 4.56074 10.8164C4.59867 10.7744 4.70847 10.6976 4.80472 10.6458L4.97971 10.5516L5.20824 10.5597C5.33394 10.5642 5.43678 10.5618 5.43678 10.5544C5.43678 10.547 5.46481 10.5106 5.49907 10.4735C5.53331 10.4364 5.59068 10.3904 5.62654 10.3712C5.67849 10.3434 5.73298 10.3387 5.89473 10.3479C6.00637 10.3544 6.20629 10.3699 6.339 10.3824C6.47171 10.395 6.62278 10.4059 6.67471 10.4066C6.72664 10.4074 6.81633 10.3998 6.87403 10.3899L6.97894 10.3717L6.99325 10.2305C7.03763 9.7927 7.24296 9.25768 7.51398 8.90601C7.6408 8.74146 7.71938 8.57258 7.76822 8.37402C7.95513 7.61413 8.44177 7.05259 8.7803 6.37202C8.79931 6.33379 8.81486 6.29346 8.81486 6.28237C8.81486 6.27127 8.78418 6.25049 8.74667 6.23618C8.70915 6.22185 8.63601 6.1903 8.5841 6.16607C8.38642 6.07376 7.93592 6.06153 7.74575 6.17213C7.70137 6.19795 7.65269 6.243 7.63756 6.27225C7.62244 6.3015 7.5908 6.33661 7.56727 6.35024C7.54373 6.36388 7.4631 6.38206 7.38809 6.39063C7.31308 6.39921 7.22242 6.41261 7.18662 6.42042C7.13851 6.43093 7.09346 6.41992 7.0139 6.37819C6.95469 6.34714 6.89143 6.29833 6.8733 6.26969C6.839 6.21553 6.84688 6.15402 6.85305 6.09409L6.67542 6.08323C6.50056 6.07255 6.49705 6.0712 6.44879 5.99694C6.40211 5.92509 6.40029 5.90807 6.41002 5.63867C6.41564 5.48311 6.42643 5.2998 6.434 5.23134C6.44359 5.14446 6.4617 5.09294 6.49395 5.06082C6.51936 5.0355 6.63417 4.98189 6.74907 4.94168C6.95726 4.86881 7.14496 4.80869 7.34365 4.7057C7.5151 4.61684 7.66841 4.53075 7.68433 4.51442C7.70028 4.49807 7.78421 4.43527 7.87084 4.37487C7.95747 4.31448 8.10599 4.22467 8.20084 4.17532C8.2957 4.12596 8.38721 4.08558 8.40418 4.08558C8.42115 4.08558 8.4606 4.0509 8.49182 4.00854C8.52306 3.96617 8.56838 3.91988 8.59256 3.90566C8.61673 3.89143 8.71677 3.87295 8.81486 3.8646C8.91295 3.85624 9.02801 3.84293 9.07057 3.835C9.11312 3.82705 9.16167 3.80447 9.17845 3.7848C9.19524 3.76512 9.21509 3.70504 9.22256 3.6513C9.23003 3.59756 9.24471 3.48031 9.25516 3.39074C9.26563 3.30117 9.28047 3.19125 9.28813 3.14646C9.29576 3.10169 9.30808 3.06518 9.31547 3.06536C9.32287 3.06555 9.33911 3.07287 9.3516 3.08164C9.36406 3.09042 9.42176 3.17089 9.47982 3.26046C9.53787 3.35002 9.61895 3.49227 9.65995 3.57656C9.70096 3.66083 9.75011 3.74317 9.76914 3.75954C9.79694 3.78339 9.81727 3.78423 9.87207 3.76371C9.90963 3.74966 10.0322 3.73816 10.1445 3.73816C10.2943 3.73816 10.3665 3.7478 10.4158 3.7744C10.4527 3.79433 10.5207 3.81919 10.5668 3.82966L10.7286 3.86635C10.7714 3.87606 10.8303 3.90018 10.8595 3.91997C10.8886 3.93975 10.9316 3.99473 10.955 4.04215C10.9784 4.08957 11.0189 4.1429 11.0451 4.16064C11.0713 4.1784 11.1504 4.21197 11.2209 4.23529C11.2913 4.25859 11.3876 4.298 11.4347 4.32288C11.4818 4.34779 11.5535 4.40244 11.594 4.44435C11.6345 4.48626 11.6826 4.55033 11.7008 4.58677C11.719 4.62321 11.7309 4.67923 11.7274 4.71128C11.7232 4.74841 11.7094 4.76784 11.6894 4.7648C11.6721 4.76219 11.632 4.75373 11.6002 4.746C11.5653 4.73746 11.5425 4.74092 11.5425 4.75473C11.5425 4.76725 11.5899 4.82786 11.6478 4.88939C11.7057 4.95093 11.7657 5.02732 11.7811 5.05913C11.7965 5.09094 11.8223 5.16472 11.8384 5.22307C11.8603 5.30243 11.9011 5.36477 12 5.47032C12.0783 5.55377 12.1619 5.67217 12.2046 5.75994C12.2718 5.89797 12.2769 5.92294 12.2769 6.11398C12.2769 6.24411 12.2681 6.32512 12.253 6.33478C12.2399 6.34317 12.2139 6.33025 12.1953 6.30604C12.1767 6.28183 12.1392 6.25021 12.112 6.23575C12.0792 6.21831 12.0555 6.21675 12.0417 6.2311C12.0302 6.243 12.0256 6.30009 12.0314 6.35798C12.0373 6.41586 12.0488 6.48997 12.057 6.52267C12.0688 6.56977 12.0637 6.58475 12.0327 6.59483C12.0112 6.60182 11.9629 6.62132 11.9254 6.63817L11.8572 6.66881V6.83287C11.8572 6.95593 11.8464 7.01896 11.8138 7.08504C11.7899 7.13348 11.7752 7.17814 11.7812 7.18429C11.7871 7.19041 11.842 7.17982 11.9033 7.16071C11.9645 7.14162 12.0524 7.12343 12.0985 7.12032L12.1825 7.11463L12.1947 6.93007C12.2015 6.82855 12.2168 6.71619 12.2286 6.68036C12.2404 6.64453 12.3172 6.47681 12.3991 6.30766C12.5247 6.04849 12.5705 5.97668 12.6905 5.8512C12.7688 5.76932 12.8659 5.67847 12.9063 5.64933C12.9467 5.62019 13.0034 5.57118 13.0322 5.54039C13.0611 5.5096 13.1177 5.46053 13.1581 5.4313C13.1985 5.40207 13.2457 5.36597 13.263 5.35107C13.2803 5.33617 13.3748 5.26762 13.4728 5.19877C13.6444 5.07835 13.6514 5.07009 13.6575 4.98324C13.6634 4.90073 13.657 4.88766 13.5841 4.83148C13.5402 4.79767 13.4827 4.74548 13.4562 4.71551C13.422 4.67671 13.4117 4.64533 13.4204 4.6067C13.4272 4.57685 13.4429 4.51333 13.4553 4.46556C13.4677 4.41779 13.4778 4.34451 13.4778 4.30271C13.4778 4.26091 13.4712 4.20181 13.4632 4.17137C13.4512 4.12605 13.4631 4.10032 13.5289 4.02936C13.5731 3.98168 13.6217 3.92661 13.6369 3.90694C13.6568 3.88131 13.6586 3.8596 13.6434 3.83016C13.6282 3.80093 13.631 3.76241 13.6529 3.69647C13.6699 3.64553 13.7017 3.56747 13.7236 3.52302C13.7455 3.47857 13.7901 3.41349 13.8227 3.3784C13.8553 3.34332 13.9174 3.28727 13.9607 3.25385C14.0274 3.20235 14.0394 3.18061 14.0394 3.11098Z" fill="#3C4858"/>
</svg>
