<svg width="24" height="24" viewBox="0 0 24 24" fill="none" xmlns="http://www.w3.org/2000/svg">
<path fill-rule="evenodd" clip-rule="evenodd" d="M12 3C7.58172 3 4 6.58172 4 11C4 15.4183 7.58172 19 12 19C13.5913 19 15.0741 18.5354 16.3202 17.7344L18.9393 20.3536C19.1346 20.5488 19.4512 20.5488 19.6464 20.3536L20.3536 19.6464C20.5488 19.4512 20.5488 19.1346 20.3536 18.9393L17.8602 16.446C19.1879 15.0179 20 13.1038 20 11C20 6.58172 16.4183 3 12 3ZM6 11C6 7.68629 8.68629 5 12 5C15.3137 5 18 7.68629 18 11C18 14.3137 15.3137 17 12 17C8.68629 17 6 14.3137 6 11Z" fill="white"/>
</svg>
