<svg width="32" height="32" viewBox="0 0 32 32" fill="none" xmlns="http://www.w3.org/2000/svg">
<path fill-rule="evenodd" clip-rule="evenodd" d="M21.0268 6.54369C20.7024 5.76482 19.8289 5.37175 19.0308 5.64547L8.54043 9.24327C8.4451 9.27597 8.35992 9.32489 8.28694 9.38588C7.08166 9.80631 6.14806 10.8139 5.93402 12.1604C5.7576 13.2703 5.59998 14.8169 5.59998 16.8C5.59998 18.7831 5.7576 20.3298 5.93402 21.4396C6.19147 23.0593 7.49 24.1885 9.05013 24.3954C10.5213 24.5906 12.6913 24.8 15.2325 24.8C17.7737 24.8 19.9437 24.5906 21.4149 24.3954C22.9751 24.1885 24.2736 23.0588 24.531 21.4392C24.6203 20.8775 24.7048 20.2039 24.7664 19.4184C25.2769 18.9782 25.6 18.3269 25.6 17.6V16C25.6 15.2732 25.2769 14.6218 24.7664 14.1817C24.7048 13.3961 24.6203 12.7225 24.531 12.1608C24.3193 10.8287 23.4032 9.82795 22.2165 9.39954L21.0268 6.54369ZM20.3486 9.07639L19.5499 7.15893L14.7578 8.80244C14.9145 8.80084 15.0728 8.80001 15.2325 8.80001C17.2159 8.80001 18.9732 8.92759 20.3486 9.07639ZM15.2325 10.4C12.7767 10.4 10.6786 10.6026 9.26052 10.7907C8.33526 10.9134 7.65031 11.5551 7.51418 12.4116C7.3508 13.4394 7.19998 14.9021 7.19998 16.8C7.19998 18.6979 7.3508 20.1606 7.51418 21.1885C7.65031 22.0449 8.33526 22.6866 9.26052 22.8093C10.6786 22.9974 12.7767 23.2 15.2325 23.2C17.6883 23.2 19.7864 22.9974 21.2045 22.8093C22.1296 22.6866 22.8147 22.0446 22.9509 21.1881C23.006 20.8415 23.0596 20.4454 23.1065 20H20C18.6745 20 17.6 18.9255 17.6 17.6V16C17.6 14.6745 18.6745 13.6 20 13.6H23.1065C23.0596 13.1546 23.006 12.7586 22.9509 12.4119C22.8147 11.5554 22.1296 10.9134 21.2045 10.7907C19.7864 10.6026 17.6883 10.4 15.2325 10.4ZM20 15.2C19.5581 15.2 19.2 15.5582 19.2 16V17.6C19.2 18.0418 19.5581 18.4 20 18.4H23.2C23.6418 18.4 24 18.0418 24 17.6V16C24 15.5582 23.6418 15.2 23.2 15.2H20Z" fill="#3FCC6F"/>
</svg>
