<svg width="24" height="24" viewBox="0 0 24 24" fill="none" xmlns="http://www.w3.org/2000/svg">
<path fill-rule="evenodd" clip-rule="evenodd" d="M9 6C9 5.44772 8.55228 5 8 5C7.44772 5 7 5.44772 7 6V11C7 12.0609 7.42143 13.0783 8.17157 13.8284C8.92172 14.5786 9.93913 15 11 15H15.5858L14.2929 16.2929C13.9024 16.6834 13.9024 17.3166 14.2929 17.7071C14.6834 18.0976 15.3166 18.0976 15.7071 17.7071L18.7071 14.7071L19.4142 14L18.7071 13.2929L15.7071 10.2929C15.3166 9.90237 14.6834 9.90237 14.2929 10.2929C13.9024 10.6834 13.9024 11.3166 14.2929 11.7071L15.5858 13H11C10.4696 13 9.96086 12.7893 9.58579 12.4142C9.21071 12.0391 9 11.5304 9 11V6Z" fill="#3D4B66"/>
</svg>
