<svg width="24" height="24" viewBox="0 0 24 24" fill="none" xmlns="http://www.w3.org/2000/svg">
<path fill-rule="evenodd" clip-rule="evenodd" d="M13.0937 7.66667H18.0833C18.6422 7.66667 19 8.01907 19 8.55556C18.9134 9.85181 18.6603 11.1861 18.2484 12.3702L18.2458 12.3783C17.6978 13.9507 17 17 15 17H8V9L12.3788 3.63253L12.3814 3.62907C12.6923 3.25017 12.9289 2.82681 13.0918 2.35965L13.0937 2.35372C13.2118 2.01402 13.2844 1.65537 13.3092 1.28339C13.4922 1.10835 13.7444 1 14.0233 1C14.5452 1 14.9007 1.33263 15.113 1.89892C15.3663 2.57438 15.3441 3.33958 15.3441 3.33958C15.3441 4.33466 14.9847 5.24774 14.3876 5.97145L14.3895 5.97293L13.0937 7.66667ZM7 17H5V9H7V17Z" fill="#ACB3BF"/>
</svg>
