<svg width="24" height="24" viewBox="0 0 24 24" fill="none" xmlns="http://www.w3.org/2000/svg">
<path d="M3.67256 3.31915L21.2376 11.6392C21.3057 11.6717 21.3633 11.7229 21.4036 11.7867C21.4439 11.8506 21.4653 11.9246 21.4653 12.0002C21.4653 12.0757 21.4439 12.1497 21.4036 12.2136C21.3633 12.2775 21.3057 12.3286 21.2376 12.3612L3.67256 20.6812C3.60726 20.712 3.53481 20.7247 3.46291 20.7177C3.39101 20.7107 3.32235 20.6844 3.26421 20.6415C3.20606 20.5986 3.16061 20.5408 3.13268 20.4742C3.10475 20.4076 3.09537 20.3347 3.10556 20.2632L3.90556 14.6662C3.9334 14.4692 4.01935 14.285 4.15242 14.1372C4.28548 13.9893 4.45962 13.8845 4.65256 13.8362L12.0006 12.0002L4.65256 10.1632C4.45976 10.1149 4.28572 10.0102 4.15267 9.86254C4.01962 9.71488 3.93359 9.53093 3.90556 9.33415L3.10556 3.73715C3.09537 3.66564 3.10475 3.5927 3.13268 3.52609C3.16061 3.45947 3.20606 3.40166 3.26421 3.3588C3.32235 3.31593 3.39101 3.28961 3.46291 3.28263C3.53481 3.27565 3.60726 3.28827 3.67256 3.31915Z" fill="#295FCC"/>
</svg>
