<svg width="24" height="24" viewBox="0 0 24 24" fill="none" xmlns="http://www.w3.org/2000/svg">
<path fill-rule="evenodd" clip-rule="evenodd" d="M19.5 12C19.5 16.1421 16.1421 19.5 12 19.5C7.85786 19.5 4.5 16.1421 4.5 12C4.5 7.85786 7.85786 4.5 12 4.5C16.1421 4.5 19.5 7.85786 19.5 12ZM21 12C21 16.9706 16.9706 21 12 21C7.02944 21 3 16.9706 3 12C3 7.02944 7.02944 3 12 3C16.9706 3 21 7.02944 21 12ZM9.18542 13.625C8.97831 13.2663 8.51962 13.1434 8.1609 13.3505C7.80218 13.5576 7.67927 14.0163 7.88638 14.375C8.30328 15.0971 8.90291 15.6967 9.625 16.1136C10.3471 16.5305 11.1662 16.75 12 16.75C12.8338 16.75 13.6529 16.5305 14.375 16.1136C15.0971 15.6967 15.6967 15.0971 16.1136 14.375C16.3207 14.0163 16.1978 13.5576 15.8391 13.3505C15.4804 13.1434 15.0217 13.2663 14.8146 13.625C14.5293 14.1191 14.1191 14.5293 13.625 14.8146C13.1309 15.0998 12.5705 15.25 12 15.25C11.4295 15.25 10.8691 15.0998 10.375 14.8146C9.88094 14.5293 9.47066 14.1191 9.18542 13.625ZM10 9.5C10 10.3284 9.55228 11 9 11C8.44772 11 8 10.3284 8 9.5C8 8.67157 8.44772 8 9 8C9.55228 8 10 8.67157 10 9.5ZM15 11C15.5523 11 16 10.3284 16 9.5C16 8.67157 15.5523 8 15 8C14.4477 8 14 8.67157 14 9.5C14 10.3284 14.4477 11 15 11Z" fill="#ACB3BF"/>
</svg>
