<svg width="24" height="24" viewBox="0 0 24 24" fill="none" xmlns="http://www.w3.org/2000/svg">
<path fill-rule="evenodd" clip-rule="evenodd" d="M8.31899 15.028C7.86159 14.8136 7.54459 14.3489 7.54459 13.8108C7.54459 13.0694 8.14659 12.4674 8.88799 12.4674C9.11099 12.4674 9.32129 12.5218 9.50649 12.6181C10.2574 12.986 11.1015 13.1925 11.9935 13.1925C12.8874 13.1925 13.7333 12.985 14.4856 12.6156V12.6158C14.6697 12.5209 14.8785 12.4674 15.0996 12.4674C15.8411 12.4674 16.4431 13.0694 16.4431 13.8108C16.4431 14.3496 16.1253 14.8147 15.6671 15.0287V15.0289C15.1604 15.2777 14.6249 15.4766 14.067 15.6193L15.9022 17.699C16.393 18.2551 16.34 19.105 15.7838 19.5958C15.2277 20.0866 14.3778 20.0335 13.887 19.4774L11.993 17.3311L10.0989 19.4774C9.60809 20.0335 8.75819 20.0866 8.20209 19.5958C7.64599 19.105 7.59289 18.2551 8.08369 17.699L9.91909 15.6191C9.36109 15.4763 8.82549 15.2773 8.31879 15.0284L8.31899 15.028ZM11.9938 4.06836C14.2643 4.06836 16.1075 5.91166 16.1075 8.18206C16.1075 10.4525 14.2643 12.2958 11.9938 12.2958C9.72339 12.2958 7.88009 10.4525 7.88009 8.18206C7.88009 5.91166 9.72339 4.06836 11.9938 4.06836ZM11.9938 6.56686C12.8853 6.56686 13.609 7.29066 13.609 8.18206C13.609 9.07356 12.8853 9.79726 11.9938 9.79726C11.1024 9.79726 10.3786 9.07356 10.3786 8.18206C10.3786 7.29066 11.1024 6.56686 11.9938 6.56686Z" fill="white"/>
</svg>
