<svg width="24" height="24" viewBox="0 0 24 24" fill="none" xmlns="http://www.w3.org/2000/svg">
<path d="M20.4068 6.91218C19.7924 7.18399 19.1408 7.36251 18.4736 7.44183C19.1765 7.02106 19.7025 6.35911 19.9536 5.57931C19.293 5.97173 18.5701 6.24793 17.8162 6.3959C17.5013 6.06001 17.1208 5.79237 16.6983 5.60958C16.2757 5.42678 15.8201 5.33273 15.3597 5.33325C13.5011 5.33325 11.9936 6.84019 11.9936 8.69962C11.9936 8.96342 12.024 9.21925 12.0805 9.46608C9.28186 9.32518 6.80252 7.98588 5.14184 5.94904C4.84284 6.46276 4.68569 7.0467 4.68649 7.64109C4.68649 8.8089 5.28093 9.83966 6.18391 10.4431C5.64938 10.4263 5.12663 10.2819 4.65924 10.022C4.65872 10.0361 4.65872 10.0502 4.65872 10.0636C4.65872 11.695 5.81907 13.0559 7.35943 13.3649C7.07033 13.4431 6.77214 13.4826 6.47265 13.4824C6.25513 13.4824 6.04404 13.4624 5.83887 13.423C6.26747 14.76 7.50984 15.7334 8.98335 15.7602C7.79096 16.696 6.31849 17.2037 4.8027 17.2016C4.53443 17.2018 4.26639 17.186 4 17.1542C5.53885 18.1435 7.33008 18.6685 9.15947 18.6666C15.3515 18.6666 18.7372 13.5374 18.7372 9.08941C18.7372 8.94388 18.7336 8.79784 18.7271 8.65386C19.3861 8.17776 19.9549 7.58797 20.4068 6.91218Z" fill="white"/>
</svg>
