<svg width="24" height="24" viewBox="0 0 24 24" fill="none" xmlns="http://www.w3.org/2000/svg">
<path fill-rule="evenodd" clip-rule="evenodd" d="M11.5468 16.2847H12.4887C12.4887 16.2847 12.7732 16.2535 12.9184 16.0969C13.0521 15.9531 13.0478 15.6832 13.0478 15.6832C13.0478 15.6832 13.0294 14.4194 13.616 14.2333C14.1942 14.05 14.9367 15.4547 15.7236 15.9949C16.3187 16.4036 16.7709 16.314 16.7709 16.314L18.8752 16.2847C18.8752 16.2847 19.976 16.2169 19.454 15.3514C19.4113 15.2806 19.1501 14.7112 17.8895 13.5411C16.5701 12.3164 16.7468 12.5145 18.3361 10.3962C19.3041 9.10605 19.6911 8.31843 19.5702 7.98109C19.4549 7.6598 18.743 7.74472 18.743 7.74472L16.3737 7.75948C16.3737 7.75948 16.1981 7.73552 16.0678 7.81339C15.9405 7.88975 15.8586 8.06773 15.8586 8.06773C15.8586 8.06773 15.4836 9.06605 14.9835 9.91507C13.9285 11.7066 13.5067 11.8011 13.3342 11.6899C12.9332 11.4306 13.0333 10.6484 13.0333 10.0926C13.0333 8.35651 13.2966 7.63263 12.5205 7.44525C12.263 7.383 12.0735 7.34193 11.4148 7.3353C10.5694 7.32652 9.85391 7.33786 9.44876 7.53637C9.17924 7.66835 8.97131 7.96248 9.09795 7.97938C9.25453 8.00034 9.6092 8.075 9.79722 8.33105C10.04 8.66133 10.0315 9.40318 10.0315 9.40318C10.0315 9.40318 10.1709 11.4469 9.70567 11.7008C9.3863 11.8749 8.94821 11.5194 8.00764 9.8941C7.5257 9.06156 7.16184 8.14131 7.16184 8.14131C7.16184 8.14131 7.09167 7.96933 6.96654 7.87735C6.81466 7.7659 6.60246 7.73039 6.60246 7.73039L4.35104 7.74515C4.35104 7.74515 4.01306 7.75456 3.88899 7.90152C3.77862 8.03222 3.88022 8.3026 3.88022 8.3026C3.88022 8.3026 5.64285 12.4264 7.63865 14.5045C9.46866 16.4098 11.5468 16.2847 11.5468 16.2847Z" fill="white"/>
</svg>
