<svg width="24" height="24" viewBox="0 0 24 24" fill="none" xmlns="http://www.w3.org/2000/svg">
<path fill-rule="evenodd" clip-rule="evenodd" d="M5.5 5.25C5.36193 5.25 5.25 5.36193 5.25 5.5V17.6893L7.18934 15.75H18.5C18.6381 15.75 18.75 15.6381 18.75 15.5V5.5C18.75 5.36193 18.6381 5.25 18.5 5.25H5.5ZM3.75 5.5C3.75 4.5335 4.5335 3.75 5.5 3.75H18.5C19.4665 3.75 20.25 4.5335 20.25 5.5V15.5C20.25 16.4665 19.4665 17.25 18.5 17.25H7.81066L5.45711 19.6036C4.82714 20.2335 3.75 19.7874 3.75 18.8964V5.5Z" fill="#8492A6"/>
<path fill-rule="evenodd" clip-rule="evenodd" d="M17 7.59999C17 7.87614 16.7761 8.09999 16.5 8.09999H7.5C7.22386 8.09999 7 7.87614 7 7.59999V7.39999C7 7.12385 7.22386 6.89999 7.5 6.89999H16.5C16.7761 6.89999 17 7.12385 17 7.39999V7.59999Z" fill="#8492A6"/>
<path fill-rule="evenodd" clip-rule="evenodd" d="M17 10.6C17 10.8761 16.7761 11.1 16.5 11.1H7.5C7.22386 11.1 7 10.8761 7 10.6V10.4C7 10.1239 7.22386 9.89999 7.5 9.89999H16.5C16.7761 9.89999 17 10.1239 17 10.4V10.6Z" fill="#8492A6"/>
<path fill-rule="evenodd" clip-rule="evenodd" d="M17 13.6C17 13.8761 16.7761 14.1 16.5 14.1H7.5C7.22386 14.1 7 13.8761 7 13.6V13.4C7 13.1239 7.22386 12.9 7.5 12.9H16.5C16.7761 12.9 17 13.1239 17 13.4V13.6Z" fill="#8492A6"/>
</svg>
