<svg width="24" height="24" viewBox="0 0 24 24" fill="none" xmlns="http://www.w3.org/2000/svg">
<path d="M19.2015 10.9249C19.7519 11.5526 19.7519 12.4474 19.2015 13.0751C18.4474 13.9354 17.3863 14.991 16.1297 15.827C14.8701 16.6649 13.4627 17.25 12 17.25C10.5373 17.25 9.12992 16.6649 7.87033 15.827C6.61366 14.991 5.5526 13.9354 4.79845 13.0751C4.24812 12.4474 4.24812 11.5526 4.79845 10.9249C5.5526 10.0646 6.61366 9.00898 7.87033 8.17303C9.12992 7.33513 10.5373 6.75 12 6.75C13.4627 6.75 14.8701 7.33513 16.1297 8.17303C17.3863 9.00898 18.4474 10.0646 19.2015 10.9249L19.7655 10.4304L19.2015 10.9249Z" stroke="#8492A6" stroke-width="1.5" stroke-linecap="round" stroke-linejoin="round"/>
<circle cx="12" cy="12" r="2.25" stroke="#8492A6" stroke-width="1.5"/>
</svg>
